<svg class="eTCnuQXical1" xmlns="http://www.w3.org/2000/svg" xmlns:xlink="http://www.w3.org/1999/xlink" viewBox="0 0 98.219 27.391" shape-rendering="geometricPrecision" text-rendering="geometricPrecision" width="101.4375" height="50" ><path d="M54.131,41.243c7.915707-2.15168,16.019429-3.539693,24.2-4.145c9.806-.846,28.594,1.14,31.139,5.881.862524,1.460329.717366,3.304592-.363,4.612-1.1,1.433-7.743,8.65-30.293,10.086-8.786038.610527-17.597576.770737-26.4.48-12.469-.483-32.031-3.687-34.42-9.029-1.424-3.189-.439-5.953,2.935-8.217c7.818-5.248,28.54-7.713,55.412-6.595.78.027,1.429-.293,1.484-.721s-.514-.806-1.278-.837C48.361,31.582,27.314,34.187,18.8,39.905c-3.98,2.67-5.155,5.9-3.5,9.606c3.26,7.288,28.378,9.875,36.922,10.205q4,.156,8.257.156c5.761,0,11.923-.214,18.647-.641c24.072-1.533,31.318-9.447,32.525-11.018c1.326738-1.612305,1.514417-3.878398.471-5.687-3.195-5.95-23.862-7.866-34.209-6.974-9.075.782-22.356,2.71-24.97,4.246-1.781,1.626,1.07,1.554,1.188,1.445Z" transform="matrix(1 0 0 0.999312-14.578-32.481)" fill="rgba(251,238,118,0)" stroke="#fbee76" stroke-miterlimit="1.5" stroke-dashoffset="468.95162" stroke-dasharray="468.95" class="svg-elem-1"></path></svg>