<svg width="47" height="39" viewBox="0 0 47 39" fill="none" xmlns="http://www.w3.org/2000/svg">
<path d="M25.3165 11.9356C26.1903 11.9356 26.8988 11.2272 26.8988 10.3534C26.8988 9.4795 26.1903 8.77109 25.3165 8.77109C24.4426 8.77109 23.7342 9.4795 23.7342 10.3534C23.7342 11.2272 24.4426 11.9356 25.3165 11.9356Z" fill="#0025BB"/>
<path d="M44.7166 26.9329C45.5905 26.9329 46.2989 26.2245 46.2989 25.3506C46.2989 24.4768 45.5905 23.7683 44.7166 23.7683C43.8427 23.7683 43.1343 24.4768 43.1343 25.3506C43.1343 26.2245 43.8427 26.9329 44.7166 26.9329Z" fill="#0025BB"/>
<path d="M44.3726 28.3088C43.6847 28.24 43.2719 28.7904 43.0655 29.4095C42.8591 30.0287 42.3088 32.1613 40.7953 32.7805C39.9009 33.1244 39.3506 32.918 39.4194 32.0925C39.4194 31.267 39.4882 28.4464 39.4882 27.0705C39.4882 25.6946 39.6258 24.3875 38.6626 23.3556C38.0435 22.7364 37.1492 22.3925 36.2548 22.4612C36.1172 22.4612 35.9796 22.4612 35.8421 22.53C34.9477 22.6676 33.6406 23.9059 33.0903 25.2818C33.2279 22.874 32.9527 22.0485 32.3335 21.4293C31.7144 20.8102 30.82 20.4662 29.9257 20.535C29.7881 20.535 29.6505 20.535 29.5129 20.6038C28.5498 20.8102 27.5867 21.4981 26.486 23.4244C26.5548 21.1541 26.5548 19.3655 25.5916 18.4024C24.9725 17.7832 24.0782 17.4392 23.1838 17.508C23.0462 17.508 21.1888 17.6456 20.2944 20.6038L20.7072 12.5548C20.776 10.9725 19.4001 9.80302 17.8866 10.0782L6.74188 12.142C6.94827 9.87181 7.63622 7.67038 8.66814 6.01931C9.70006 4.36823 11.076 3.33631 12.3831 3.12993C14.5157 2.71716 16.4419 5.05618 17.3363 6.70725C17.8178 7.67038 18.7122 7.80797 18.7122 7.80797C18.9873 7.87676 19.3313 7.87676 19.6065 7.80797C20.432 7.60158 20.7072 6.91364 20.776 6.0881L20.8448 1.54765C20.9136 0.584522 20.0193 -0.17222 19.0561 0.0341639C18.3682 0.171753 17.8866 0.722111 17.8178 1.41006L17.4739 3.4739C15.754 0.859701 13.7589 -0.0346311 11.9015 0.309343C7.49863 1.06608 4.05889 6.22569 3.71492 12.5548C3.71492 12.6924 3.71492 12.83 3.71492 12.8988L1.16951 13.3803C0.481563 13.5179 0 14.0683 0 14.7562C0 15.7194 0.894332 16.4761 1.85746 16.2697L3.9213 15.857C4.40286 18.196 5.57237 19.5719 6.39791 20.3286C7.49863 21.3605 8.87452 21.9109 10.2504 21.9109C10.4568 21.9109 10.732 21.9109 10.9384 21.8421C12.5894 21.5669 14.2405 20.6726 15.4788 19.3655C16.0292 18.8151 16.4419 18.196 16.7859 17.5768L16.3731 27.896C16.7171 29.2031 18.2994 29.1343 18.8498 28.1024C19.8817 25.901 20.5696 24.0435 22.2207 22.1173C22.5647 21.7045 23.1838 21.9797 23.1838 22.4612C23.1838 22.8052 23.1838 23.1492 23.1838 23.6308L22.3583 37.0457C22.2895 38.2152 23.3902 39.1784 24.5597 38.972C25.3853 38.8344 26.0044 38.0777 26.0732 37.2521L26.6236 29.2031C26.8299 26.9329 27.5179 25.6946 28.2746 25.0067C28.8938 24.5251 29.8569 24.9379 29.7881 25.7634C29.7193 28.5152 29.3066 35.7386 29.3066 35.7386C29.2378 36.9081 30.3385 37.8713 31.508 37.6649C32.3335 37.5273 32.9527 36.7705 33.0215 35.945C33.0215 35.945 33.3654 30.4414 33.3654 30.1663C33.4342 29.2719 33.5718 28.7216 33.9158 27.9648C34.6038 26.3138 36.186 26.4513 36.1172 27.8272C36.0484 29.1343 36.0484 32.4365 36.0484 32.6429C35.9796 34.3627 36.8052 36.8393 40.3137 36.289C42.9967 35.8762 45.3357 32.5741 45.5421 29.6847C45.5421 28.9279 45.0606 28.3776 44.3726 28.3088ZM10.5944 18.6087C9.97524 18.6775 9.21849 18.4024 8.59934 17.852C8.11778 17.4392 7.42983 16.5449 7.08586 15.1002L15.066 13.5867C14.7221 16.7513 12.1767 18.3336 10.5944 18.6087Z" fill="#0025BB"/>
</svg>
