<svg width="153" height="59" viewBox="0 0 153 59" fill="none" xmlns="http://www.w3.org/2000/svg">
<path d="M98.7218 0.877064C98.6989 0.918825 98.5812 0.925117 98.4652 0.888856C98.3495 0.841958 98.1778 0.86755 98.0901 0.928215C98.0025 0.988881 97.8631 1.00502 97.8007 0.960097C97.7105 0.899938 97.692 0.917009 97.7455 1.01131C97.7853 1.08736 97.762 1.13975 97.687 1.14763C97.612 1.1555 97.3874 1.16848 97.2054 1.18303C97.0127 1.1972 96.8532 1.18063 96.8552 1.12744C96.8568 1.08489 96.9136 0.991127 96.991 0.919428C97.0905 0.827244 97.0704 0.79454 96.8679 0.787033C96.7186 0.781501 96.4695 0.87879 96.3045 1.01115C96.1398 1.13288 96.0056 1.29834 95.9926 1.36178C95.9898 1.43624 95.9554 1.49888 95.9128 1.4973C95.8599 1.48469 95.7774 1.40706 95.7273 1.31998C95.6771 1.23291 95.4565 1.13951 95.2437 1.12096C94.9776 1.10045 94.8698 1.12841 94.8879 1.2143C94.9065 1.28956 94.8721 1.3522 94.8188 1.35022C94.7655 1.34825 94.704 1.28205 94.6854 1.2068C94.6574 1.09923 94.5934 1.09686 94.3656 1.19494C94.203 1.26348 93.9981 1.3198 93.9128 1.31664C93.8275 1.31347 93.7766 1.24767 93.8114 1.17439C93.8568 1.10151 93.7427 1.01206 93.5208 0.950572C93.3305 0.900908 93.0858 0.881182 92.9886 0.909539C92.8915 0.937896 92.8248 1.00999 92.8548 1.06436C92.8848 1.11874 92.8295 1.16995 92.7442 1.16679C92.659 1.16363 92.5871 1.0864 92.5903 1.0013C92.5935 0.916194 92.5003 0.838173 92.383 0.833827C92.2658 0.82948 92.1892 0.879903 92.2192 0.934278C92.2492 0.988652 92.1939 1.03987 92.1086 1.0367C92.0234 1.03354 91.9452 1.12652 91.9408 1.24353C91.9341 1.42438 91.88 1.44368 91.5409 1.37784C91.3182 1.33763 91.0865 1.25447 91.0352 1.19931C90.9732 1.14375 90.854 1.19259 90.7312 1.33717C90.5646 1.51209 90.4998 1.53099 90.4078 1.42106C90.336 1.34383 90.2207 1.28629 90.1568 1.28392C90.0821 1.28116 89.9601 1.40446 89.8796 1.56126C89.7631 1.82326 89.7414 1.83311 89.7059 1.64004C89.6889 1.52224 89.5579 1.31498 89.4244 1.17155C89.2906 1.03876 89.124 0.926063 89.0707 0.924087C89.0174 0.922111 88.9823 1.00603 89 1.10256C89.0174 1.20973 89.0012 1.35826 88.9562 1.42051C88.8989 1.52491 88.8137 1.52175 88.5511 1.40549L88.2148 1.26519L88.7991 1.0525C88.2239 1.02052 87.9657 1.07487 87.8666 1.15641C87.7351 1.24741 87.6064 1.26395 87.4915 1.19577C87.3767 1.1276 87.1951 1.13152 87.0324 1.20006C86.8808 1.25835 86.6309 1.37692 86.4781 1.46713C86.3036 1.56718 86.0351 1.61049 85.8121 1.58092C85.4931 1.54779 85.4177 1.5663 85.4121 1.71523C85.4062 1.87479 85.3521 1.89409 85.0671 1.80896C84.8768 1.7593 84.4958 1.67061 84.2096 1.61739C83.8069 1.53854 83.7102 1.55626 83.7054 1.68392C83.7003 1.82221 83.6896 1.82181 83.5882 1.67957C83.497 1.54836 83.4856 1.56924 83.5321 1.75206C83.5775 1.96679 83.566 1.98767 83.3777 1.88482C83.2629 1.81665 83.0288 1.79731 82.846 1.83315C82.5984 1.88789 82.4926 1.86266 82.4026 1.69954C82.3016 1.54665 82.2278 1.52261 82.054 1.60139C81.9344 1.66087 81.7394 1.73886 81.6205 1.77707C81.5017 1.81527 81.341 1.83062 81.2771 1.82825C81.2028 1.81485 81.1373 1.85503 81.1353 1.90822C81.1333 1.9614 81.0781 2.01262 81.0248 2.01064C80.9715 2.00867 80.9435 1.9011 80.9806 1.764C81.0311 1.55282 80.9893 1.52996 80.5641 1.48225C80.1492 1.44556 80.0734 1.47471 80.0126 1.67485C79.9517 1.87499 79.9194 1.88444 79.8495 1.75402C79.7899 1.63464 79.6312 1.5968 79.3106 1.60622C79.054 1.61801 78.7654 1.62862 78.6699 1.61442C78.5637 1.59983 78.4539 1.68098 78.4077 1.77514C78.3592 1.93313 78.2087 1.95951 77.4946 1.93304C77.0149 1.91526 76.6086 1.93215 76.5857 1.97391C76.5624 2.02631 76.3481 2.05032 76.1136 2.04163C75.8151 2.03057 75.7069 2.06917 75.7357 2.15545C75.7748 2.25278 75.6773 2.29177 75.4432 2.27244C75.2517 2.25469 74.9864 2.2129 74.8601 2.1656C74.7227 2.12855 74.5514 2.14351 74.4854 2.19432C74.4084 2.25539 74.1404 2.28806 73.8952 2.27897C73.5861 2.26751 73.4136 2.31438 73.3776 2.41957C73.3425 2.50349 73.2659 2.55391 73.2138 2.52002C73.1617 2.48613 73.0436 2.50306 72.9777 2.55388C72.9015 2.59366 72.515 2.6539 72.119 2.68183C71.7128 2.69873 71.2828 2.77867 71.1521 2.84839C71.0104 2.92836 70.8485 2.97562 70.7956 2.963C70.7427 2.95039 70.5951 2.90231 70.4798 2.84477C70.3539 2.78684 70.1825 2.80179 70.0515 2.88215C69.9314 2.95227 69.5978 3.02512 69.2986 3.03534C69.01 3.04594 68.7095 3.08807 68.6547 3.12864C68.5994 3.17986 68.3309 3.22317 68.064 3.22393C67.7968 3.23532 67.4963 3.27745 67.3984 3.32708C67.2898 3.37632 67.107 3.41215 67.0005 3.4082C66.8832 3.40385 66.7099 3.472 66.6214 3.55394C66.5223 3.63548 66.4406 3.8242 66.4351 3.97313C66.4295 4.12206 66.3932 4.23789 66.3501 4.24695C66.2968 4.24497 66.1681 4.2615 66.0497 4.28907C65.9317 4.306 65.7461 4.4163 65.6458 4.52976C65.4792 4.70467 65.4365 4.70309 65.3987 4.57386C65.3702 4.47693 65.4374 4.3942 65.5665 4.36703C65.6849 4.33946 65.8065 4.22679 65.8429 4.11096C65.8792 3.99513 65.8847 3.8462 65.8547 3.79183C65.8251 3.72682 65.7189 3.71223 65.6214 3.75122C65.5136 3.77918 65.3068 3.88869 65.154 3.9789C64.9791 4.08959 64.8069 4.12582 64.6703 4.0675C64.5551 4.00996 64.3423 3.99142 64.1918 4.0178C64.0414 4.04418 63.8563 4.14384 63.7887 4.23721C63.6995 4.34043 63.5811 4.368 63.4658 4.31046C63.3608 4.26396 63.2218 4.26946 63.1665 4.32067C63.1117 4.36125 62.724 4.4534 62.3055 4.51245C61.8866 4.58215 61.4665 4.68375 61.3674 4.7653C61.2253 4.8559 61.1076 4.86219 60.9612 4.7822C60.825 4.71323 60.7081 4.69825 60.6201 4.76955C60.5435 4.81997 60.1665 4.91252 59.78 4.97276C59.3078 5.04048 59.0697 5.12753 59.0444 5.23311C59.0073 5.37022 58.8786 5.38675 58.421 5.34849C57.9844 5.32165 57.802 5.34684 57.669 5.48039C57.5691 5.58321 57.4972 5.7936 57.5126 5.95396C57.5358 6.18918 57.4912 6.24078 57.2764 6.27543C57.126 6.30181 56.9875 6.29668 56.9563 6.27422C56.9251 6.25176 56.9709 6.16823 57.0483 6.09653C57.1253 6.03547 57.1833 5.90979 57.1861 5.83533C57.1885 5.7715 57.1052 5.71515 57.0088 5.72223C56.9121 5.73995 56.7893 5.88454 56.7293 6.0634C56.6799 6.24267 56.6503 6.46527 56.6787 6.5622C56.7154 6.72334 56.6937 6.73319 56.5472 6.65319C56.443 6.58542 56.2519 6.55703 56.1228 6.5842C55.9835 6.60034 55.8781 6.56447 55.88 6.51128C55.8824 6.44746 55.7786 6.36904 55.6519 6.33239C55.5149 6.2847 55.2602 6.2433 55.0901 6.22634C54.9195 6.22002 54.5548 6.27041 54.2847 6.35627C53.8204 6.49885 53.7983 6.51933 53.8164 6.89284C53.8192 7.10599 53.7698 7.28526 53.7165 7.28328C53.6632 7.2813 53.6127 7.20486 53.6158 7.11976C53.619 7.03466 53.5677 6.97949 53.5132 7.00943C53.4587 7.03937 53.3869 6.96214 53.3593 6.84394C53.3324 6.70446 53.2286 6.62604 53.0794 6.62051C52.9408 6.61538 52.7454 6.704 52.6451 6.81746C52.5341 6.93053 52.4441 7.05502 52.4425 7.09757C52.4406 7.15076 52.1188 7.19209 51.7236 7.19875C51.3178 7.20501 50.891 7.19984 50.7635 7.18446C50.6253 7.16869 50.5171 7.20729 50.5147 7.27111C50.5128 7.3243 50.4468 7.37512 50.3829 7.37275C50.3087 7.35935 50.1673 7.42867 50.0785 7.52125C49.9454 7.6548 49.9328 7.7076 50.0461 7.81832C50.1179 7.89555 50.168 7.98263 50.1665 8.02518C50.1645 8.07837 50.0567 8.10633 49.9288 8.10159C49.7259 8.10472 49.7057 8.07202 49.8163 7.96959C49.9268 7.86717 49.9292 7.80334 49.8266 7.69301C49.7654 7.61617 49.5755 7.55587 49.4156 7.54994C49.2451 7.54362 49.0931 7.61255 49.0579 7.69647C49.0109 7.81191 48.9035 7.82923 48.66 7.77759C48.3951 7.72516 48.2229 7.76139 47.9817 7.93354C47.8064 8.05487 47.4708 8.18091 47.2351 8.20413C47.0101 8.22775 46.8052 8.28407 46.7823 8.32583C46.759 8.37823 46.6405 8.40579 46.5233 8.40145C46.406 8.3971 46.1569 8.49439 45.971 8.61533C45.7191 8.78708 45.6113 8.81504 45.5615 8.71733C45.5225 8.62001 45.3831 8.63615 45.0246 8.80395C44.6555 8.97136 44.5662 9.07457 44.5808 9.25621C44.597 9.39529 44.5725 9.4796 44.5093 9.45596C44.4568 9.4327 44.4079 9.31371 44.4123 9.1967C44.417 9.06904 44.3775 8.98236 44.3128 9.00126C44.2587 9.02056 44.1592 9.11275 44.0913 9.21675C44.0115 9.35228 44.0198 9.4165 44.1149 9.44133C44.1781 9.46498 44.2184 9.53039 44.184 9.59303C44.1459 9.66263 44.0393 9.65868 43.8642 9.58118C43.7174 9.51182 43.3767 9.48853 43.098 9.52081C42.809 9.54206 42.5385 9.63855 42.4718 9.71065C42.4153 9.79378 42.1453 9.87964 41.8776 9.90167C41.6099 9.92371 41.3727 9.98948 41.3391 10.0308C41.3052 10.0828 41.1137 10.0651 40.9131 10.0044C40.576 9.88538 40.5219 9.90468 40.2661 10.1828C40.0655 10.4097 39.8483 10.5082 39.4729 10.5582C39.1081 10.6086 38.902 10.6968 38.7895 10.8524C38.699 10.9876 38.5565 11.0888 38.4712 11.0857C38.386 11.0825 38.3102 11.1116 38.3086 11.1542C38.3066 11.2074 38.1242 11.2326 37.9114 11.214C37.6876 11.2057 37.444 11.1541 37.3812 11.1198C37.3082 11.0745 37.157 11.1222 37.0575 11.2143C36.9576 11.3172 36.7941 11.407 36.7085 11.4144C36.6121 11.4215 36.4056 11.5204 36.241 11.6421C36.0661 11.7528 35.9026 11.8426 35.86 11.8411C35.8067 11.8391 35.6211 11.9494 35.4451 12.092C35.1924 12.285 34.9981 12.3417 34.6144 12.3275C34.2626 12.3145 33.9286 12.398 33.5484 12.5756C33.233 12.7343 32.9712 12.8844 32.9483 12.9262C32.925 12.9786 32.8066 13.0062 32.6893 13.0018C32.5721 12.9975 32.2475 13.1133 31.9648 13.2519C31.6715 13.3902 31.3217 13.6116 31.1776 13.7554C31.0339 13.8885 30.8057 13.9972 30.6671 13.9921C30.5285 13.987 30.3884 14.0244 30.354 14.087C30.3197 14.1497 30.2549 14.1686 30.1921 14.1343C30.14 14.1004 30.0859 14.1197 30.0836 14.1835C30.0812 14.2473 29.973 14.2859 29.8451 14.2812C29.7065 14.2761 29.5229 14.3332 29.4345 14.4151C29.3465 14.4864 29.0969 14.5943 28.8916 14.6613C28.6863 14.7283 28.3504 14.8649 28.1549 14.9536C27.9702 15.0426 27.8063 15.143 27.8047 15.1856C27.8027 15.2388 27.7384 15.247 27.6756 15.2128C27.6022 15.1781 27.4068 15.2667 27.2413 15.4097C27.0652 15.5523 26.826 15.6713 26.6977 15.6772C26.5587 15.6827 26.3956 15.7619 26.3175 15.8548C26.2503 15.9376 26.1516 16.0085 26.0983 16.0065C26.0557 16.0049 25.7091 16.1412 25.3403 16.298C24.9712 16.4654 24.6664 16.6245 24.6648 16.6671C24.6521 16.7199 24.7572 16.7664 24.8847 16.7817C25.0118 16.8078 25.1271 16.8653 25.1353 16.9295C25.1543 16.9941 25.0465 17.0221 24.9087 16.9957C24.7599 16.9795 24.6415 17.0071 24.6391 17.0709C24.6367 17.1347 24.5605 17.1745 24.4752 17.1714C24.39 17.1682 24.3169 17.1229 24.3193 17.0591C24.3217 16.9952 24.388 16.9338 24.4634 16.9153C24.5282 16.8964 24.5617 16.855 24.5207 16.8109C24.4686 16.777 24.3284 16.8144 24.1973 16.8947C24.0556 16.9747 23.861 17.0421 23.765 17.0385C23.6584 17.0346 23.5483 17.1263 23.5119 17.2422C23.4711 17.3827 23.3619 17.4497 23.1842 17.4431C23.035 17.4375 22.7875 17.4923 22.6244 17.5715C22.4511 17.6396 22.2857 17.7826 22.2395 17.8768C22.1826 17.9705 22.0732 18.041 21.988 18.0379C21.9027 18.0347 21.7819 18.1261 21.7136 18.2408C21.6559 18.3558 21.4577 18.5189 21.2733 18.5973C21.0996 18.6761 20.8738 18.7209 20.7897 18.6859C20.7056 18.6508 20.4896 18.7174 20.3041 18.8277C20.1292 18.9384 19.9444 19.0274 19.9018 19.0258C19.8485 19.0238 19.749 19.116 19.6807 19.2306C19.6017 19.3449 19.4596 19.4355 19.3743 19.4323C19.289 19.4292 19.2128 19.469 19.2104 19.5328C19.2081 19.5966 19.3557 19.6447 19.5263 19.651C19.7714 19.6601 19.8235 19.694 19.7655 19.8197C19.709 19.9028 19.5009 20.0442 19.2838 20.1427L18.8929 20.32C19.0454 19.9528 19.0928 19.8267 19.0939 19.7948C19.0951 19.7629 18.9352 19.7569 18.7536 19.7609C18.5179 19.7841 18.3549 19.8633 18.2854 20.0098C18.2273 20.1355 17.975 20.3179 17.7362 20.4262C17.4973 20.5345 17.172 20.6716 17.0101 20.7189C16.8372 20.7764 16.7057 20.8674 16.7034 20.9312C16.701 20.995 16.6576 21.0147 16.5948 20.9804C16.5427 20.9466 16.38 21.0151 16.2478 21.1274C16.1048 21.2392 15.9307 21.3287 15.8668 21.3263C15.7921 21.3235 15.6607 21.4145 15.5928 21.5185C15.5138 21.6328 15.2082 21.8132 14.9046 21.9404C14.612 22.0574 14.3404 22.1858 14.3072 22.2166C14.2741 22.2473 13.9697 22.3958 13.6333 22.5431C13.2859 22.7007 13.0241 22.8507 13.0545 22.8945C13.0738 22.9485 13.0051 23.0737 12.8729 23.186C12.7512 23.2987 12.649 23.4653 12.6565 23.5508C12.6517 23.6785 12.6304 23.6777 12.5704 23.5689C12.5313 23.4716 12.4046 23.435 12.2644 23.4724C12.1247 23.4992 12.0137 23.6122 12.0102 23.708C12.0062 23.8143 11.915 23.9708 11.8155 24.0629C11.7057 24.1441 11.4337 24.2831 11.196 24.3595C10.9584 24.436 10.7392 24.5876 10.6808 24.7239C10.6108 24.8847 10.4869 24.9618 10.3093 24.9552C10.1601 24.9496 10.0187 25.019 9.98356 25.1029C9.94842 25.1868 9.83905 25.2573 9.74312 25.2538C9.63653 25.2498 9.47228 25.3609 9.38146 25.5067C9.29065 25.6524 9.12521 25.7954 9.02849 25.8132C8.92071 25.8411 8.7987 25.9644 8.76197 26.0909C8.71419 26.2276 8.4682 26.5274 8.21393 26.763C7.95926 27.0092 7.65328 27.2003 7.54669 27.1963C7.42983 27.1813 7.28888 27.24 7.2115 27.3117C7.14477 27.3838 7.0492 27.6572 7.00732 27.922C6.9761 28.1871 6.93383 28.4625 6.93146 28.5264C6.91723 28.6217 6.83117 28.6398 6.65233 28.5693C6.46245 28.509 6.34401 28.5366 6.24332 28.6607C6.1758 28.754 6.01235 28.8438 5.8943 28.8608C5.77626 28.8777 5.63333 28.9896 5.56423 29.1255C5.50618 29.2512 5.38576 29.3319 5.32299 29.2976C5.23193 29.2588 5.18244 29.3457 5.17452 29.5584C5.1674 29.7499 5.0979 29.8965 5.00078 29.9248C4.91431 29.9536 4.82429 30.0781 4.80888 30.2054C4.78083 30.3854 4.68212 30.4563 4.44603 30.4902C4.20994 30.524 4.11124 30.5949 4.09385 30.7754C4.06778 30.9022 3.95485 31.0685 3.83522 31.128C3.7152 31.1981 3.61372 31.3435 3.61016 31.4392C3.6062 31.5456 3.45892 31.7745 3.27137 31.938C3.09449 32.1019 2.93694 32.3197 2.93378 32.4048C2.93061 32.4899 2.8852 32.5628 2.82124 32.5604C2.76795 32.5585 2.7103 32.6735 2.70475 32.8224C2.69921 32.9714 2.65222 33.0868 2.58826 33.0844C2.53496 33.0824 2.41138 33.2483 2.3399 33.4481C2.25776 33.6474 2.14483 33.8137 2.08087 33.8113C2.02758 33.8093 1.90597 33.922 1.83647 34.0685C1.75631 34.2147 1.65681 34.3069 1.61537 34.2734C1.56286 34.2501 1.44442 34.2777 1.33506 34.3482C1.16055 34.4483 1.14672 34.533 1.22721 34.9514C1.27061 35.2193 1.2753 35.6669 1.22197 35.9526C1.16864 36.2382 1.05136 36.5215 0.95305 36.5817C0.854741 36.642 0.72759 36.9036 0.675054 37.168C0.622518 37.4323 0.539192 37.6636 0.484707 37.6935C0.430223 37.7235 0.343333 38.0505 0.275783 38.4315C0.218891 38.8129 0.190414 39.2912 0.225528 39.4949C0.260643 39.6986 0.266916 40.1036 0.223851 40.4003C0.191842 40.6867 0.131783 41.1532 0.0895103 41.4286C0.0468418 41.7146 0.0665454 42.0456 0.136409 42.176C0.195218 42.3167 0.284421 42.5011 0.33455 42.5881C0.374019 42.6748 0.443091 42.8265 0.471901 42.9128C0.500712 42.9991 0.589123 43.2048 0.668458 43.3675C0.736738 43.5405 0.782512 43.7446 0.747366 43.8285C0.712221 43.9124 0.720108 43.9872 0.773405 43.9892C0.816042 43.9908 0.958937 44.1665 1.10064 44.3742C1.24196 44.5925 1.41683 44.7694 1.49184 44.7615C1.5558 44.7639 1.59566 44.8399 1.56052 44.9239C1.52537 45.0078 1.62405 45.2245 1.78786 45.4117C1.94142 45.5878 2.17078 45.7348 2.30895 45.7505C2.49016 45.7573 2.54108 45.8231 2.53356 46.0252C2.52762 46.1848 2.65748 46.4239 2.86314 46.6339C3.03762 46.8215 3.34948 47.0461 3.53818 47.1383C3.71622 47.2302 3.98623 47.4319 4.11887 47.5966C4.24044 47.7716 4.57323 48.0076 4.84601 48.1349C5.10814 48.2618 5.32723 48.3977 5.32565 48.4403C5.32367 48.4935 5.39789 48.5069 5.48435 48.4781C5.58147 48.4498 5.66477 48.5061 5.69279 48.6137C5.72081 48.7212 5.86449 48.8757 6.02161 48.9561C6.18939 49.0369 6.4006 49.098 6.50719 49.1019C6.60312 49.1055 6.73813 49.2064 6.78707 49.3254C6.84588 49.466 7.03418 49.5689 7.28842 49.6209C7.50042 49.6607 7.64728 49.7301 7.60345 49.7604C7.55923 49.8014 7.65041 49.9326 7.80595 50.0555C7.96188 50.1678 8.19282 50.2723 8.33099 50.2881C8.45891 50.2928 8.60576 50.3622 8.64602 50.4276C8.68589 50.5036 8.86195 50.6486 9.02933 50.74C9.20698 50.8425 9.40713 50.9138 9.48174 50.9166C9.5457 50.919 9.69334 50.9671 9.79796 51.0242C9.89152 51.0916 10.1232 51.1747 10.2922 51.2236C10.4718 51.2729 10.6301 51.3214 10.6617 51.3332C10.6937 51.3344 10.8307 51.3821 10.9779 51.4408C11.1256 51.4889 11.3565 51.5933 11.5034 51.6626C11.6498 51.7426 11.7852 51.8329 11.8156 51.8766C11.846 51.9204 12.0888 51.9933 12.3754 52.0359C12.6514 52.078 12.9463 52.1848 13.0284 52.2731C13.1208 52.3724 13.3742 52.4457 13.694 52.4576C13.9711 52.4678 14.2467 52.5207 14.2976 52.5865C14.3592 52.6527 14.6869 52.7394 15.0374 52.7843C15.4942 52.8439 15.7153 52.9266 15.827 53.0799C15.9083 53.1895 16.1483 53.3368 16.3485 53.4082C16.5486 53.4795 16.8455 53.5331 17.016 53.5394C17.1759 53.5454 17.3058 53.4969 17.3078 53.4437C17.3098 53.3906 17.3651 53.3393 17.4184 53.3413C17.4823 53.3437 17.5222 53.4197 17.519 53.5048C17.5154 53.6006 17.609 53.668 17.7582 53.6735C17.8861 53.6782 18.2987 53.7787 18.6781 53.91C19.0579 54.0306 19.6611 54.1701 20.0326 54.2265C20.3938 54.2719 20.7104 54.3688 20.7404 54.4232C20.7704 54.4776 20.9496 54.5375 21.1415 54.5446C21.3227 54.5513 21.7684 54.6211 22.1174 54.7086C22.6464 54.8347 22.7641 54.8284 22.8008 54.702C22.8261 54.5964 22.8892 54.62 23.0108 54.795C23.102 54.9262 23.3424 55.0629 23.5437 55.1023C23.7451 55.1418 23.9444 55.2344 23.9737 55.31C24.0131 55.3967 24.066 55.4093 24.1004 55.3467C24.1347 55.284 24.4983 55.2656 24.9452 55.3034C25.3712 55.3299 25.901 55.4347 26.1217 55.5281C26.3317 55.6211 26.8935 55.7272 27.3621 55.7552C27.8303 55.7939 28.2125 55.8507 28.2109 55.8932C28.2089 55.9464 28.4849 55.9886 28.8259 56.0012C29.1564 56.0135 29.4848 56.0789 29.5362 56.1341C29.6076 56.2219 29.6933 56.2145 29.8256 56.1022C29.925 56.01 30.0557 55.9403 30.1197 55.9427C30.1836 55.945 30.2334 56.0427 30.229 56.1598C30.2215 56.3619 30.2851 56.3749 31.3198 56.3919C31.9171 56.4034 32.7789 56.478 33.246 56.5486C33.7023 56.6187 34.094 56.7078 34.1137 56.7512C34.133 56.8052 34.3458 56.8237 34.5815 56.8005C34.8492 56.7784 35.1248 56.8313 35.3028 56.9231C35.5116 57.048 35.8515 57.0926 36.5989 57.0883C37.1543 57.0769 37.8034 57.133 38.0355 57.2055C38.2676 57.278 38.895 57.3439 39.4177 57.3526C39.9514 57.3511 40.5697 57.374 40.8038 57.3933C41.0379 57.4127 41.8586 57.4431 42.6151 57.4818C43.3719 57.5098 44.0233 57.502 44.0564 57.4713C44.0896 57.4406 44.1836 57.4973 44.2657 57.5856C44.3786 57.7069 44.5479 57.7452 44.9013 57.7157C45.1689 57.6936 45.5752 57.6767 45.8101 57.6748C46.0446 57.6835 46.8117 57.7226 47.514 57.7806C48.2163 57.8386 48.8539 57.9155 48.9273 57.9501C48.9897 57.9951 49.0651 57.9765 49.0888 57.9135C49.1026 57.8288 50.0529 57.8214 52.2065 57.8906C53.9119 57.9538 55.3632 57.965 55.4398 57.9146C55.5053 57.8744 56.274 57.8709 57.1481 57.9033C58.0115 57.9354 59.6218 57.9737 60.7418 57.994C61.8618 58.0142 62.9712 58.034 63.2274 58.0328C63.6435 58.0376 63.6656 58.0171 63.6207 57.7918C63.5646 57.5766 63.565 57.566 63.7407 57.7216C63.8749 57.8438 64.214 57.9096 64.8958 57.9456C65.4284 57.976 65.9199 57.9622 65.9748 57.9216C66.0301 57.8704 66.4043 57.8523 66.7983 57.8776C67.1821 57.8918 67.5429 57.9478 67.5942 58.003C67.6353 58.0471 67.7967 58.0105 67.9495 57.9203C68.1462 57.7997 68.3392 57.7749 68.6783 57.8408C68.9223 57.8818 69.1248 57.8893 69.1268 57.8361C69.1284 57.7935 69.4387 57.7731 69.8224 57.7873C70.3661 57.8075 70.5382 57.7712 70.6507 57.6156C70.785 57.4502 70.8173 57.4407 70.9504 57.5948C71.053 57.7051 71.254 57.7552 71.5856 57.7355C71.8525 57.7347 72.2903 57.7297 72.5781 57.7403C72.8769 57.7408 73.0597 57.7049 73.0301 57.6399C73.0001 57.5855 73.0349 57.5123 73.0894 57.4823C73.1438 57.4524 73.196 57.4863 73.194 57.5395C73.1916 57.6033 73.6385 57.6412 74.4502 57.6286C75.134 57.6114 75.8067 57.6044 75.935 57.5985C76.0523 57.6028 76.2031 57.5658 76.2477 57.5142C76.2919 57.4732 76.421 57.446 76.5276 57.45C76.6342 57.4539 76.7325 57.3937 76.7566 57.32C76.7921 57.2254 76.8561 57.2278 77.0555 57.3204C77.1913 57.4 77.5418 57.445 77.8415 57.4241C78.1411 57.4033 78.5924 57.3241 78.862 57.2489C79.1423 57.1741 79.7203 57.1316 80.2 57.1494C80.7752 57.1814 81.1826 57.1325 81.4317 57.0353C81.7354 56.908 81.8956 56.9033 82.2336 57.0011C82.4973 57.0854 82.7211 57.0937 82.8514 57.0346C82.971 56.9751 83.0559 56.9889 83.0855 57.0539C83.1155 57.1083 83.2 57.1328 83.2762 57.093C83.3417 57.0528 83.4286 57.0134 83.461 57.004C83.493 57.0051 83.6446 56.9468 83.8175 56.8893C83.9801 56.8208 84.3978 56.783 84.7496 56.7961C85.2719 56.8154 85.4871 56.7701 85.9127 56.5196C86.3383 56.2691 86.4457 56.2517 86.5262 56.3826C86.5763 56.4696 86.7552 56.5402 86.904 56.5563C87.0532 56.5619 87.2143 56.5359 87.2589 56.4843C87.3031 56.4433 87.6671 56.4142 88.0517 56.4071C88.4469 56.4005 88.9273 56.397 89.1196 56.3935C89.3655 56.3813 89.4634 56.3317 89.4686 56.1934C89.4722 56.0976 89.5286 56.0145 89.5819 56.0165C89.6352 56.0184 89.7079 56.0744 89.7378 56.1288C89.7678 56.1832 89.9364 56.2427 90.107 56.249C90.2775 56.2553 90.4279 56.2289 90.4299 56.1757C90.4315 56.1332 90.6135 56.1186 90.8373 56.1269C91.0501 56.1455 91.4856 56.2042 91.7927 56.2689C92.2799 56.3721 92.3762 56.3651 92.4678 56.198C92.5247 56.1043 92.6451 56.0235 92.7304 56.0267C92.8157 56.0298 92.8922 55.9794 92.8942 55.9262C92.8966 55.8624 93.2282 55.8427 93.7182 55.8715C94.293 55.9141 94.5393 55.8913 94.5749 55.7968C94.5986 55.7337 94.6862 55.6731 94.7715 55.6762C94.8568 55.6794 94.9334 55.629 94.9353 55.5758C94.9373 55.5226 95.0459 55.4733 95.1845 55.4785C95.3124 55.4832 95.4703 55.5423 95.5421 55.6196C95.6341 55.7295 95.6981 55.7319 95.8082 55.6401C95.8852 55.579 96.2832 55.4979 96.6902 55.4597C97.0862 55.4318 97.4407 55.3704 97.464 55.318C97.4869 55.2762 97.5619 55.2683 97.614 55.3022C97.6661 55.3361 97.7419 55.307 97.7759 55.255C97.8102 55.1923 98.0025 55.1888 98.2358 55.2294C98.5323 55.2937 98.6503 55.2767 98.7195 55.1408C98.7775 55.0151 98.8742 54.9974 99.1174 55.0597C99.3918 55.1444 99.4352 55.1247 99.4419 54.9439C99.4376 54.7733 99.4704 54.7532 99.573 54.8635C99.6449 54.9408 99.7503 54.9766 99.7949 54.925C99.8498 54.8845 99.9331 54.9408 99.9828 55.0385C100.032 55.1469 100.125 55.2355 100.178 55.2375C100.231 55.2395 100.265 55.1875 100.235 55.1331C100.205 55.0787 100.316 54.9869 100.488 54.9401C100.65 54.8822 100.821 54.8779 100.862 54.922C100.903 54.9661 100.937 54.9248 100.94 54.8397C100.945 54.712 101.085 54.6852 101.564 54.703C101.969 54.718 102.259 54.6755 102.391 54.5739C102.501 54.4927 102.674 54.4246 102.781 54.4285C102.887 54.4325 103.04 54.3529 103.119 54.2387C103.242 54.0728 103.296 54.0641 103.526 54.1898C103.746 54.3045 103.81 54.3069 103.9 54.1718C103.979 54.0575 104.184 54.0118 104.568 54.0154C104.909 54.0281 105.178 53.9741 105.288 53.8823C105.377 53.8004 105.529 53.7315 105.614 53.7346C105.71 53.7382 105.807 53.7098 105.83 53.6574C105.853 53.6157 106.291 53.5999 106.792 53.6185C107.485 53.6442 107.7 53.6202 107.661 53.5122C107.628 53.4258 107.675 53.4062 107.802 53.4535C107.896 53.4996 108.1 53.4646 108.253 53.385C108.405 53.3055 108.814 53.2141 109.167 53.1952C109.52 53.1657 109.919 53.074 110.06 52.994C110.192 52.9136 110.558 52.8207 110.868 52.8002C111.168 52.7794 111.522 52.7286 111.641 52.6904C111.76 52.6415 112.072 52.5679 112.341 52.514C112.642 52.4612 112.898 52.46 113.013 52.5282C113.139 52.5968 113.192 52.5881 113.207 52.4928C113.22 52.4293 113.223 52.3336 113.215 52.28C113.216 52.2375 113.388 52.2119 113.611 52.2308C113.824 52.2387 114.222 52.1576 114.493 52.0505C114.764 51.9433 115.077 51.8484 115.194 51.8527C115.312 51.8571 115.47 51.9162 115.541 51.9934C115.644 52.1144 115.666 52.0833 115.675 51.8386C115.685 51.5833 115.729 51.553 116.038 51.5644C116.219 51.5712 116.488 51.5066 116.63 51.4266C116.761 51.3462 117.095 51.2521 117.384 51.2309C117.663 51.1986 117.943 51.145 117.998 51.1045C118.052 51.0639 118.279 51.0084 118.483 50.9733C118.686 50.9489 118.947 50.8307 119.058 50.7177C119.158 50.6042 119.364 50.516 119.514 50.5215C119.663 50.527 119.8 50.5747 119.829 50.6397C119.859 50.7048 119.933 50.7288 119.987 50.6989C120.042 50.6689 120.076 50.6063 120.047 50.5413C120.017 50.4763 120.103 50.4581 120.262 50.496C120.42 50.5338 120.56 50.507 120.617 50.4239C120.662 50.351 120.902 50.2108 121.162 50.1245C121.41 50.0379 121.712 49.9639 121.829 49.9682C121.946 49.9725 122.184 49.9068 122.368 49.8284C122.607 49.7201 122.674 49.6267 122.637 49.4868C122.589 49.3359 122.6 49.3257 122.691 49.4675C122.771 49.609 122.846 49.6117 123.148 49.5164C123.343 49.4491 123.601 49.3947 123.718 49.3991C123.835 49.4034 124.03 49.3467 124.151 49.2553C124.271 49.1746 124.434 49.106 124.508 49.1088C124.572 49.1112 124.842 49.0253 125.102 48.9178C125.352 48.8098 125.665 48.7256 125.803 48.7307C125.931 48.7354 126.254 48.6516 126.525 48.5444C126.796 48.4373 127.014 48.3069 127.017 48.2431C127.019 48.1792 127.148 48.1627 127.317 48.2009C127.529 48.2514 127.637 48.2128 127.75 48.0572C127.851 47.9118 127.938 47.8724 128.096 47.9315C128.232 48.0005 128.362 47.9627 128.494 47.8398C128.605 47.7373 128.746 47.6787 128.799 47.6913C128.851 47.7145 129.045 47.6791 129.229 47.6113C129.412 47.5542 129.65 47.4672 129.769 47.429C129.888 47.3908 130.017 47.3742 130.07 47.3762C130.112 47.3884 130.145 47.3577 130.148 47.2939C130.15 47.23 130.248 47.1911 130.365 47.1954C130.482 47.1997 130.675 47.1643 130.795 47.1048C130.915 47.0453 130.993 46.963 130.963 46.898C130.933 46.833 131 46.7503 131.109 46.701C131.207 46.662 131.561 46.6006 131.882 46.5699C132.203 46.5498 132.548 46.4561 132.637 46.3742C132.725 46.2922 132.985 46.1953 133.211 46.1611C133.426 46.1158 133.609 46.0587 133.611 46.0055C133.613 45.9629 133.667 45.9543 133.719 45.9882C133.771 46.0221 133.89 45.9732 133.968 45.8909C134.035 45.7975 134.219 45.7298 134.379 45.7463C134.528 45.7519 134.701 45.6944 134.768 45.6223C134.845 45.5612 134.881 45.4347 134.852 45.3591C134.834 45.2838 134.9 45.233 135.027 45.2377C135.145 45.2421 135.265 45.172 135.3 45.0881C135.339 44.983 135.316 44.9537 135.228 45.0002C135.141 45.0538 135.117 45.028 135.157 44.923C135.204 44.8075 135.354 44.7811 135.716 44.8052C136.067 44.8395 136.325 44.7958 136.576 44.656C136.761 44.5457 137.01 44.459 137.116 44.463C137.212 44.4665 137.429 44.3893 137.603 44.2999C137.767 44.1995 138.019 44.0064 138.153 43.8623C138.352 43.6779 138.439 43.6385 138.477 43.7465C138.537 43.8552 138.58 43.8568 138.713 43.7232C138.801 43.6413 139.019 43.5428 139.201 43.5176C139.384 43.4818 139.612 43.3837 139.711 43.2915C139.821 43.1997 139.868 43.0843 139.828 43.0189C139.788 42.9535 139.809 42.9436 139.893 43C139.955 43.0449 140.019 43.0473 140.021 42.9941C140.023 42.9515 140.261 42.8645 140.562 42.8011C140.906 42.7286 141.102 42.64 141.106 42.5336C141.11 42.406 141.143 42.3965 141.32 42.5096C141.424 42.588 141.55 42.6353 141.583 42.6046C141.616 42.5739 141.652 42.4793 141.677 42.3844C141.691 42.289 141.881 42.0617 142.09 41.8884C142.3 41.715 142.582 41.5764 142.721 41.5815C142.859 41.5867 143.087 41.4886 143.22 41.355C143.385 41.2227 143.537 41.1644 143.631 41.2105C143.725 41.2672 143.791 41.2058 143.831 41.0048C143.882 40.7937 143.97 40.7117 144.163 40.6976C144.312 40.6924 144.573 40.5636 144.76 40.4214C144.946 40.2898 145.153 40.1803 145.228 40.1831C145.292 40.1855 145.357 40.1453 145.36 40.0815C145.362 40.0176 145.376 39.9436 145.378 39.8904C145.39 39.8482 145.543 39.7367 145.707 39.6363C145.881 39.5469 146.098 39.4697 146.183 39.4728C146.268 39.476 146.39 39.3527 146.45 39.1845C146.521 38.9847 146.708 38.8319 147.11 38.655C147.425 38.5069 147.688 38.3249 147.725 38.1984C147.761 38.0826 147.883 37.9593 148.002 37.9105C148.121 37.8722 148.221 37.7588 148.225 37.6524C148.229 37.5567 148.464 37.2671 148.74 37.011C149.027 36.7554 149.306 36.4355 149.354 36.2881C149.413 36.1412 149.462 35.9832 149.453 35.919C149.456 35.8551 149.512 35.7826 149.599 35.7433C149.675 35.7035 149.754 35.5892 149.758 35.4828C149.772 35.3769 149.822 35.1976 149.869 35.0822C149.926 34.9671 150.027 34.843 150.114 34.793C150.191 34.7532 150.371 34.5042 150.509 34.2217C150.658 33.9503 150.838 33.7013 150.904 33.6505C150.991 33.6111 151.016 33.5162 150.977 33.4082C150.927 33.3105 150.953 33.2049 151.007 33.175C151.062 33.1344 151.184 33.0004 151.264 32.8649C151.333 32.7396 151.405 32.5292 151.41 32.3909C151.415 32.2633 151.528 31.7988 151.672 31.3674C151.806 30.9356 151.959 30.2489 152.017 29.8356C152.065 29.4219 152.128 28.572 152.153 27.9231C152.176 26.9972 152.146 26.6765 152.008 26.3731C151.899 26.1348 151.837 25.8022 151.859 25.4835C151.88 25.2073 151.867 24.9831 151.824 24.9815C151.771 24.9795 151.61 24.7179 151.441 24.3814C151.272 24.0556 151.111 23.7833 151.069 23.7817C151.015 23.7797 150.987 23.6828 150.991 23.5658C150.996 23.4488 150.925 23.329 150.841 23.2939C150.757 23.2589 150.706 23.2037 150.74 23.1517C150.763 23.1099 150.675 22.8936 150.544 22.6651C150.403 22.4468 150.295 22.1978 150.298 22.1233C150.3 22.0595 150.242 21.8976 150.151 21.777C150.07 21.6568 150.002 21.4732 150.006 21.3668C150.009 21.2711 149.907 21.1501 149.78 21.1134C149.643 21.0658 149.415 20.8975 149.261 20.7214C149.097 20.5448 148.957 20.284 148.931 20.1339C148.895 19.9408 148.823 19.8636 148.653 19.8573C148.514 19.8521 148.347 19.7501 148.288 19.6307C148.217 19.5109 148.061 19.4092 147.944 19.4049C147.827 19.4005 147.732 19.3544 147.735 19.2906C147.737 19.2268 147.616 19.0306 147.463 18.8438C147.299 18.6566 146.988 18.4107 146.758 18.2957C146.527 18.1806 146.258 17.9682 146.168 17.8051C146.066 17.6522 145.933 17.5194 145.879 17.5174C145.826 17.5155 145.639 17.37 145.465 17.1825C145.29 16.9949 145.061 16.8479 144.944 16.8436C144.827 16.8392 144.711 16.7924 144.681 16.7273C144.652 16.6623 144.525 16.615 144.397 16.6103C144.259 16.6052 144.019 16.4578 143.844 16.2702C143.669 16.0933 143.399 15.9128 143.218 15.8848C143.038 15.8462 142.683 15.6413 142.414 15.4182C142.133 15.2055 141.799 15.0226 141.649 15.0171C141.479 15.0107 141.385 14.9434 141.389 14.8476C141.392 14.7519 141.33 14.707 141.233 14.7353C141.147 14.7641 141.073 14.74 141.075 14.6762C141.077 14.6124 140.878 14.5091 140.636 14.4256C140.383 14.3523 140.13 14.247 140.079 14.2025C140.027 14.158 139.699 14.0819 139.37 14.0377C139.03 13.9932 138.755 13.9085 138.758 13.8446C138.76 13.7808 138.634 13.7335 138.474 13.7276C138.303 13.7213 138.04 13.6156 137.864 13.4919C137.676 13.3571 137.37 13.2606 137.104 13.2507C136.72 13.2365 136.626 13.1904 136.528 12.963C136.419 12.7246 136.335 12.6789 135.866 12.6722C135.578 12.6615 134.933 12.5097 134.438 12.3316C133.942 12.1641 133.522 11.9887 133.491 11.945C133.461 11.9013 133.219 11.8071 132.944 11.733C132.659 11.6478 132.224 11.5784 131.958 11.5686C131.691 11.5587 131.373 11.4936 131.248 11.4144C131.112 11.3455 130.838 11.2607 130.636 11.2213C130.435 11.1925 130.087 11.0625 129.878 10.9482C129.637 10.8221 129.14 10.6971 128.662 10.6368C128.205 10.5879 127.567 10.5216 127.248 10.4885C126.929 10.4554 126.407 10.4147 126.109 10.4037C125.758 10.38 125.483 10.3059 125.39 10.2066C125.308 10.1183 125.119 10.0368 124.97 10.0312C124.821 10.0257 124.599 9.97485 124.473 9.91692C124.336 9.85859 123.922 9.80063 123.538 9.7864C123.154 9.77218 122.632 9.75281 122.366 9.74294C122.1 9.72242 121.653 9.68455 121.355 9.64157C121.069 9.59899 120.77 9.6092 120.714 9.66041C120.659 9.71163 120.53 9.72816 120.445 9.71436C120.361 9.68992 120.192 9.64105 120.077 9.58351C119.961 9.53662 119.758 9.53975 119.627 9.60947C119.486 9.66816 119.315 9.68311 119.253 9.63819C119.18 9.59287 118.989 9.54321 118.83 9.51601C118.661 9.48841 118.47 9.46002 118.406 9.43637C118.321 9.42257 118.276 9.5061 118.292 9.64518C118.297 9.78387 118.251 9.88866 118.197 9.88669C118.144 9.88471 118.051 9.79605 117.991 9.6873C117.942 9.58959 117.925 9.47178 117.969 9.42017C118.003 9.37881 117.951 9.34492 117.834 9.32993C117.728 9.31534 117.525 9.30784 117.397 9.31373C117.258 9.31923 117.089 9.281 117.026 9.24671C116.953 9.2014 116.272 9.14419 115.504 9.12638C114.58 9.09213 114.11 9.11375 114.092 9.19124C114.069 9.25427 114.004 9.28382 113.952 9.24993C113.889 9.21564 113.903 9.13093 113.992 9.02772C114.115 8.88313 114.094 8.87171 113.804 8.92486C113.621 8.9607 113.394 9.0375 113.296 9.0765C113.188 9.12573 113.069 9.1533 113.027 9.14108C112.974 9.13911 112.856 9.15604 112.758 9.18439C112.64 9.2226 112.594 9.30612 112.644 9.38256C112.694 9.46964 112.64 9.48894 112.451 9.418C112.304 9.35928 112.083 9.25524 111.959 9.1654C111.823 9.07516 111.666 9.0054 111.612 9.00343C111.559 9.00145 111.481 9.09442 111.445 9.21025C111.396 9.37888 111.342 9.39818 111.174 9.30675C111.017 9.22636 110.857 9.23107 110.564 9.34806C110.337 9.4355 110.055 9.55288 109.936 9.60172C109.816 9.6612 109.548 9.68324 109.346 9.66509C109.144 9.64695 108.952 9.63983 108.92 9.64929C108.888 9.65874 108.748 9.67488 108.599 9.67998C108.448 9.69573 108.223 9.72998 108.094 9.76779C107.921 9.80402 107.827 9.76855 107.799 9.66098C107.77 9.5747 107.687 9.49707 107.602 9.49391C107.517 9.49075 107.365 9.55968 107.276 9.64162C107.177 9.72317 107.069 9.76177 107.039 9.70739C107.009 9.66366 106.943 9.70384 106.887 9.78696C106.82 9.8697 106.772 10.0064 106.769 10.0702C106.767 10.1447 106.797 10.1884 106.852 10.1585C106.895 10.1388 107.138 10.2011 107.401 10.3067C107.664 10.423 107.904 10.5597 107.955 10.6255C108.006 10.6913 108.081 10.6728 108.17 10.5696C108.238 10.4762 108.423 10.3765 108.574 10.3502C108.724 10.3131 108.778 10.3045 108.713 10.334C108.637 10.3632 108.592 10.4361 108.622 10.4904C108.652 10.5448 108.767 10.6023 108.884 10.6067C109.001 10.611 109.099 10.5614 109.101 10.5082C109.103 10.455 109.159 10.4038 109.212 10.4058C109.265 10.4078 109.294 10.4834 109.259 10.5673C109.224 10.6619 109.274 10.749 109.39 10.7852C109.485 10.8101 110.231 10.8484 111.031 10.8674C112.086 10.8958 112.533 10.9337 112.625 11.0436C112.697 11.1209 112.866 11.1804 113.004 11.1855C113.132 11.1903 113.261 11.1631 113.285 11.1107C113.307 11.0689 113.639 11.0599 114.012 11.0737C114.374 11.0978 114.777 11.1554 114.893 11.2023C115.04 11.2716 115.148 11.2437 115.249 11.0983C115.373 10.9324 115.405 10.923 115.485 11.0644C115.555 11.1842 115.788 11.2355 116.353 11.267C116.779 11.2829 117.194 11.3302 117.267 11.3755C117.329 11.4204 117.648 11.4535 117.958 11.4544C118.256 11.4548 118.565 11.4875 118.617 11.5214C118.669 11.5659 119.221 11.6397 119.838 11.7052C120.454 11.7706 121.016 11.866 121.089 11.922C121.151 11.9775 121.3 11.9831 121.408 11.9445C121.506 11.8948 121.646 11.8681 121.699 11.8807C121.752 11.8933 121.9 11.9414 122.015 11.9989C122.131 12.0458 122.344 12.0537 122.495 12.0167C122.645 11.9903 122.73 11.9935 122.686 12.0451C122.631 12.0857 122.723 12.1956 122.89 12.2764C123.048 12.3568 123.386 12.4332 123.652 12.4538C123.919 12.4636 124.152 12.5149 124.182 12.5586C124.213 12.6024 124.498 12.6662 124.828 12.6997C125.211 12.7459 125.414 12.7215 125.363 12.6557C125.323 12.5903 125.377 12.5816 125.513 12.6506C125.629 12.6975 125.839 12.7692 125.988 12.8066C126.136 12.8334 126.314 12.9146 126.387 12.9706C126.449 13.0261 126.587 13.0526 126.673 13.0238C126.76 12.9951 126.865 13.0309 126.916 13.0967C126.956 13.1621 127.104 13.1996 127.254 13.1838C127.433 13.155 127.574 13.2099 127.675 13.3486C127.787 13.5125 127.924 13.5495 128.202 13.5279C128.406 13.5141 128.65 13.5338 128.734 13.5902C128.817 13.6359 129.496 13.7569 130.228 13.8693C131.205 14.0014 131.628 14.1129 131.762 14.2457C131.875 14.3565 132.053 14.4483 132.171 14.4526C132.288 14.457 132.552 14.52 132.752 14.5914C132.953 14.6627 133.205 14.7679 133.31 14.8251C133.428 14.8934 133.503 14.882 133.535 14.7908C133.582 14.686 133.592 14.6864 133.588 14.7928C133.596 14.8677 133.679 14.9347 133.786 14.9386C133.882 14.9422 134.071 15.0237 134.206 15.114C134.331 15.2038 134.637 15.3004 134.892 15.3205C135.137 15.3509 135.39 15.4242 135.441 15.49C135.492 15.5558 135.672 15.5944 135.843 15.5795C136.004 15.5641 136.131 15.6008 136.128 15.6646C136.126 15.7284 136.22 15.7745 136.337 15.7789C136.455 15.7832 136.812 15.935 137.125 16.1276C137.438 16.3203 137.827 16.4733 137.998 16.4796C138.168 16.4859 138.336 16.5773 138.416 16.7081C138.506 16.8819 138.654 16.93 139.069 16.9454C139.474 16.9604 139.601 17.0077 139.596 17.1247C139.592 17.2311 139.676 17.2768 139.869 17.2626C140.05 17.2587 140.207 17.3391 140.308 17.492C140.41 17.6236 140.691 17.8151 140.954 17.9207C141.217 18.0264 141.457 18.1844 141.507 18.2608C141.547 18.3475 141.651 18.4259 141.736 18.4291C141.821 18.4322 141.925 18.5 141.976 18.5871C142.015 18.6631 142.254 18.8424 142.516 18.98C142.778 19.1175 143.153 19.3551 143.35 19.5116C143.547 19.668 143.829 19.8276 143.977 19.8757C144.125 19.9131 144.477 20.2031 144.765 20.5121C145.063 20.8107 145.412 21.1752 145.567 21.3088C145.712 21.4526 145.858 21.5326 145.892 21.4806C145.926 21.4393 145.945 21.4932 145.941 21.589C145.937 21.706 146.06 21.8278 146.25 21.8987C146.461 21.9775 146.58 22.1062 146.609 22.2848C146.644 22.4885 146.717 22.5551 146.919 22.5626C147.068 22.5682 147.184 22.6151 147.182 22.6789C147.179 22.7427 147.273 22.8101 147.389 22.8464C147.526 22.8834 147.597 22.9926 147.591 23.1415C147.586 23.2798 147.634 23.4413 147.705 23.5186C147.778 23.5852 147.904 23.6325 147.98 23.6033C148.045 23.5844 148.108 23.5974 148.106 23.64C148.105 23.6931 148.048 23.7656 147.993 23.8275C147.905 23.8988 147.913 23.9737 148.015 24.0946C148.097 24.1829 148.248 24.4335 148.347 24.6396C148.446 24.8456 148.607 25.1179 148.687 25.2487C148.768 25.3689 148.943 25.5352 149.079 25.6041C149.205 25.6833 149.357 25.902 149.414 26.0852C149.5 26.3547 149.541 26.3989 149.609 26.2842C149.666 26.1798 149.714 26.3414 149.743 26.7153C149.773 27.036 149.799 27.4844 149.802 27.6975C149.804 27.9319 149.891 28.1695 150.025 28.2917C150.17 28.4355 150.237 28.6404 150.235 28.9705C150.236 29.2369 150.28 29.4942 150.341 29.5604C150.413 29.6376 150.374 29.8279 150.212 30.1628C150.084 30.4457 150.011 30.6879 150.063 30.7218C150.105 30.7553 150.078 30.8822 149.999 31.0177C149.93 31.143 149.832 31.4803 149.778 31.7765C149.736 32.0626 149.625 32.4526 149.523 32.6193C149.431 32.7863 149.359 32.9967 149.357 33.0605C149.354 33.135 149.276 33.2173 149.19 33.2461C149.103 33.2748 148.878 33.5861 148.694 33.9414C148.51 34.3074 148.251 34.66 148.132 34.7195C148.001 34.7892 147.9 34.9133 147.898 34.9771C147.885 35.0512 147.782 35.2179 147.671 35.3416C147.549 35.4755 147.395 35.5764 147.342 35.5744C147.289 35.5724 147.233 35.6449 147.23 35.73C147.226 35.8151 147.025 36.0739 146.781 36.2993C146.538 36.5246 146.286 36.707 146.233 36.705C146.179 36.7031 146.123 36.7862 146.119 36.8819C146.115 36.9883 145.935 37.2373 145.704 37.4311C145.483 37.6253 145.132 37.8893 144.935 38.0098C144.738 38.141 144.445 38.2686 144.284 38.2946C144.112 38.3308 143.906 38.4084 143.818 38.4797C143.73 38.551 143.556 38.6298 143.439 38.6361C143.321 38.653 143.144 38.8275 143.051 39.0159C142.947 39.2251 142.77 39.3889 142.609 39.4256C142.458 39.4519 142.252 39.5615 142.152 39.6643C142.041 39.7667 141.879 39.8246 141.795 39.7895C141.679 39.7426 141.634 39.8049 141.627 39.9964C141.618 40.2304 141.574 40.2607 141.276 40.2497C141.085 40.2319 140.847 40.2977 140.758 40.3903C140.67 40.4828 140.539 40.5526 140.465 40.5392C140.39 40.5364 140.215 40.6471 140.06 40.7905C139.883 40.9544 139.667 41.0422 139.454 41.0343C139.262 41.0272 139.11 41.0855 139.075 41.18C139.039 41.264 138.963 41.3144 138.911 41.2805C138.859 41.2466 138.739 41.2954 138.651 41.3774C138.562 41.4593 138.378 41.5271 138.24 41.5219C138.101 41.5274 137.85 41.6673 137.662 41.852C137.474 42.0368 137.157 42.2381 136.951 42.3051C136.746 42.3614 136.445 42.4141 136.286 42.4082C136.115 42.4019 135.986 42.4397 135.983 42.5035C135.981 42.5674 135.787 42.6241 135.551 42.6473C135.315 42.6705 135.099 42.7477 135.064 42.8103C135.03 42.8836 134.833 43.0148 134.627 43.0924C134.421 43.17 134.247 43.2594 134.246 43.2913C134.245 43.3232 133.974 43.441 133.628 43.556C133.281 43.6817 132.915 43.7746 132.819 43.7711C132.713 43.7671 132.603 43.8376 132.568 43.9215C132.533 44.0055 132.456 44.0559 132.404 44.022C132.352 43.9881 132.168 44.0665 132.003 44.1988C131.827 44.3308 131.416 44.486 131.083 44.5376C130.739 44.5994 130.393 44.7144 130.305 44.7964C130.216 44.8783 130.064 44.9472 129.979 44.9441C129.883 44.9405 129.807 44.9803 129.804 45.0441C129.802 45.108 129.597 45.1749 129.35 45.2084C129.093 45.2308 128.714 45.3659 128.507 45.4967C128.299 45.6275 127.997 45.7228 127.837 45.7169C127.666 45.7105 127.537 45.7377 127.535 45.7803C127.533 45.8334 127.339 45.8902 127.103 45.924C126.867 45.9685 126.65 46.067 126.614 46.1509C126.579 46.2348 126.481 46.3057 126.395 46.3026C126.31 46.2994 126.234 46.3286 126.233 46.3711C126.231 46.4243 125.992 46.5326 125.69 46.6173C125.398 46.713 125.118 46.7666 125.077 46.7331C125.025 46.7098 124.895 46.7476 124.775 46.8284C124.654 46.9198 124.428 46.9753 124.268 46.9694C124.097 46.9631 123.934 47.0316 123.889 47.1151C123.832 47.1982 123.518 47.3144 123.154 47.3648C122.799 47.4156 122.37 47.4743 122.188 47.4995C122.006 47.514 121.519 47.6877 121.107 47.8642C120.694 48.0513 120.154 48.2337 119.917 48.2781C119.681 48.3226 119.412 48.3766 119.326 48.3947C119.24 48.4128 119.142 48.4518 119.109 48.4825C119.076 48.5133 118.859 48.6117 118.62 48.7094C118.382 48.7965 117.92 48.8965 117.599 48.9166C117.277 48.9473 116.903 48.9547 116.776 48.95C116.637 48.9342 116.551 48.9629 116.58 49.028C116.61 49.093 116.47 49.1304 116.267 49.1229C116.065 49.1154 115.828 49.1811 115.728 49.2627C115.64 49.3446 115.403 49.4104 115.211 49.4033C115.019 49.3962 114.771 49.4509 114.673 49.5218C114.563 49.5923 114.518 49.6759 114.559 49.72C114.6 49.7641 114.491 49.824 114.308 49.8492C114.136 49.8854 113.891 49.887 113.774 49.872C113.657 49.857 113.4 49.8794 113.206 49.9255C113.012 49.9716 112.86 50.0405 112.859 50.0831C112.857 50.1363 112.749 50.1642 112.621 50.1595C112.482 50.1543 112.085 50.2248 111.729 50.3182C111.373 50.4115 110.794 50.4965 110.442 50.4941C110.089 50.5024 109.703 50.5413 109.584 50.6008C109.464 50.6603 109.26 50.6847 109.123 50.6583C108.964 50.6204 108.834 50.6795 108.743 50.8147C108.664 50.9289 108.511 51.0298 108.393 51.0467C108.275 51.0636 107.859 51.0695 107.464 51.0655C107.058 51.0611 106.737 51.0918 106.735 51.1344C106.733 51.1876 106.624 51.2474 106.495 51.2852C106.355 51.312 106.055 51.3541 105.819 51.3774C105.584 51.3899 105.167 51.3958 104.89 51.3749C104.464 51.3485 104.378 51.3772 104.404 51.5273C104.42 51.6877 104.301 51.7259 103.776 51.7704C103.423 51.7999 102.954 51.7825 102.732 51.7316C102.414 51.6559 102.339 51.6745 102.334 51.8021C102.33 51.9191 102.233 51.9475 101.956 51.9159C101.701 51.8958 101.561 51.9332 101.525 52.0384C101.489 52.1436 101.316 52.1905 100.986 52.1782C100.709 52.168 100.332 52.2499 100.104 52.3586C99.8757 52.4673 99.3593 52.576 98.942 52.6031C98.5251 52.6196 98.0956 52.6889 97.9755 52.759C97.8559 52.8185 97.4698 52.8681 97.1176 52.8657C96.7651 52.874 96.4327 52.9149 96.3663 52.9764C96.3111 53.0276 96.1283 53.0634 95.9684 53.0575C95.8085 53.0515 95.572 53.096 95.4528 53.1449C95.308 53.2105 95.2192 53.2072 95.1863 53.135C95.1563 53.0806 95.0197 53.0223 94.8705 53.0168C94.7212 53.0112 94.5377 53.0683 94.4709 53.1404C94.3604 53.2429 94.2104 53.2586 93.8507 53.1707C93.5862 53.1076 93.2246 53.0729 93.0528 53.0985C92.8815 53.1135 92.6991 53.1387 92.6565 53.1371C92.6028 53.1458 92.5672 53.2403 92.5629 53.3573C92.5585 53.4743 92.4803 53.5673 92.3951 53.5642C92.3098 53.561 92.2158 53.5043 92.1858 53.4499C92.1558 53.3955 91.9766 53.3356 91.7954 53.3289C91.6039 53.3111 91.3667 53.3769 91.2778 53.4695C91.1669 53.5825 90.9628 53.6176 90.6327 53.5947C90.2604 53.5596 90.0883 53.5958 89.8787 53.7798C89.6583 53.9634 89.5292 53.9905 89.2328 53.9263C89.0314 53.8869 88.7657 53.8557 88.6485 53.8514C88.5308 53.8577 88.275 53.8482 88.0942 53.8308C87.817 53.8205 87.7298 53.8706 87.6698 54.0494C87.6326 54.1866 87.5884 54.2275 87.5592 54.1519C87.5407 54.0766 87.3081 54.0147 86.9457 54.0013C86.6259 53.9894 86.2931 54.041 86.2161 54.1021C86.1166 54.1943 85.753 54.2127 85.1139 54.1784C84.5813 54.148 84.0894 54.1724 84.0235 54.2232C83.9469 54.2736 83.7649 54.2882 83.6168 54.2507C83.4688 54.2133 83.2753 54.2487 83.177 54.309C83.0669 54.4008 82.9816 54.3976 82.9413 54.3322C82.9007 54.2774 82.8071 54.2101 82.7439 54.1864C82.6697 54.173 82.5817 54.2443 82.5355 54.3385C82.4869 54.4965 82.3152 54.5221 81.4399 54.5216C80.8746 54.5113 80.01 54.5112 79.5291 54.5253C79.0376 54.539 78.6404 54.5989 78.6385 54.6521C78.6365 54.7053 78.5172 54.7541 78.368 54.7486C78.2188 54.743 78.0782 54.7911 78.0443 54.8431C78.0099 54.9057 77.6783 54.9254 77.306 54.8903C76.9333 54.8658 76.5832 54.8102 76.5318 54.7551C76.4908 54.7109 76.3641 54.6743 76.2681 54.6707C76.1615 54.6668 75.9669 54.7341 75.8358 54.8145C75.6392 54.935 75.3289 54.9555 74.3917 54.8994C73.7422 54.854 73.2618 54.8575 73.3242 54.9025C73.3968 54.9584 73.353 54.9888 73.2144 54.9836C73.0758 54.9785 72.9716 54.9107 72.9744 54.8362C72.9882 54.7515 72.9349 54.7496 72.8026 54.8618C72.6704 54.9741 72.3273 55.0146 71.5914 54.998C71.0261 54.9877 70.2041 54.9892 69.7655 55.0155C69.3273 55.0313 68.578 55.0887 68.1066 55.1351C67.6352 55.1816 67.015 55.2119 66.7169 55.1902C66.4295 55.1688 66.1184 55.2106 66.0303 55.2819C65.9206 55.363 65.5037 55.3795 64.6411 55.3263C63.9597 55.2797 63.3537 55.2146 63.302 55.1701C63.2502 55.1256 62.9095 55.1023 62.557 55.1105C62.2048 55.1081 61.872 55.1597 61.8061 55.2105C61.7508 55.2617 61.3655 55.29 60.9498 55.2746C60.4914 55.2576 60.1377 55.2978 60.0496 55.3691C59.928 55.4818 59.9178 55.4707 59.9967 55.3565C60.0761 55.2316 60.0445 55.2198 59.829 55.2757C59.6778 55.3234 59.0264 55.3312 58.3868 55.3075C57.7476 55.2731 56.9817 55.2021 56.6853 55.1378C56.3572 55.0618 55.9948 55.0483 55.7259 55.1023C55.4894 55.1468 54.8163 55.1644 54.2305 55.1321C53.6446 55.0997 52.7599 55.0669 52.2589 55.0483C51.7575 55.0404 50.9474 55.0104 50.446 55.0024C49.945 54.9839 49.3907 54.9633 49.2202 54.957C49.05 54.94 47.7926 54.8828 46.4495 54.833C45.1065 54.7832 43.902 54.7385 43.7847 54.7342C43.6675 54.7298 43.3153 54.7274 43.0169 54.7164C42.7077 54.7049 42.354 54.7451 42.2348 54.7939C42.0717 54.8731 41.9979 54.849 41.9493 54.7194C41.8799 54.5783 41.6359 54.5373 40.4855 54.4734C39.7291 54.4347 39.0141 54.4295 38.9162 54.4791C38.7862 54.5311 38.7229 54.511 38.7263 54.4188C38.7295 54.3337 38.4764 54.2498 38.02 54.1796C37.6166 54.122 36.6486 54.0329 35.8606 53.9824C35.073 53.9212 34.3288 53.8404 34.2127 53.8041C34.0655 53.7454 33.9466 53.7836 33.8013 53.9593C33.7002 54.094 33.613 54.1441 33.6158 54.0696C33.6181 54.0058 33.5159 53.8848 33.3904 53.8162C33.2542 53.7473 32.9798 53.6625 32.7781 53.6337C32.5759 53.6156 32.024 53.5312 31.5574 53.45C31.0481 53.3672 30.4729 53.3352 30.1192 53.3754C29.6794 53.4337 29.4457 53.4037 29.1938 53.2878C28.921 53.1605 28.8464 53.1578 28.8428 53.2535C28.8389 53.3599 28.8176 53.3591 28.7572 53.261C28.7173 53.1849 28.5385 53.1144 28.3683 53.0974C28.1982 53.0805 27.5933 52.9835 27.0418 52.8885C26.4907 52.7828 25.8658 52.6531 25.6652 52.5924C25.4019 52.4975 25.2523 52.5026 25.1528 52.5947C25.032 52.6861 24.7979 52.6668 24.0359 52.4894C23.3798 52.3373 22.9906 52.1844 22.8575 52.0303C22.7036 51.8648 22.5666 51.8171 22.3305 51.851C22.1588 51.8766 21.6377 51.8253 21.1817 51.7445C20.7368 51.6534 20.3676 51.5332 20.3696 51.48C20.3716 51.4268 20.2255 51.3362 20.0357 51.2759C19.8454 51.2262 19.5694 51.184 19.4202 51.1785C19.271 51.173 18.9216 51.0961 18.6263 50.9999C18.3416 50.9042 17.8249 50.7359 17.4976 50.6385C17.1601 50.5301 16.8656 50.4127 16.8462 50.3587C16.8265 50.3154 16.5308 50.2298 16.1917 50.164C15.8419 50.0978 15.4282 50.0292 15.2474 50.0118C15.0768 50.0055 14.6978 49.8636 14.4049 49.7036C14.1231 49.5334 13.7133 49.3584 13.5123 49.3084C13.311 49.2689 12.7011 49.0226 12.1768 48.7688C11.6415 48.5253 11.105 48.3136 10.9878 48.3093C10.8705 48.305 10.756 48.2261 10.7272 48.1399C10.6992 48.0323 10.5413 47.9732 10.3068 47.9645C10.051 47.955 9.93569 47.8975 9.93964 47.7911C9.94281 47.706 9.8611 47.6071 9.76636 47.5716C9.66095 47.5357 9.29144 47.4262 8.94324 47.3174C8.56307 47.2074 8.14462 46.9789 7.89632 46.7673C7.66894 46.5671 7.30299 46.3618 7.09099 46.322C6.83715 46.2593 6.69069 46.1793 6.69465 46.0729C6.69782 45.9878 6.48387 45.7136 6.21544 45.4693C5.93635 45.2246 5.67699 45.0232 5.61304 45.0208C5.55934 45.0295 5.31065 44.8285 5.07459 44.5748C4.82748 44.3313 4.5176 44.0535 4.37153 43.9628C4.22547 43.8722 4.11337 43.7295 4.11614 43.6551C4.11851 43.5913 4.01825 43.4171 3.89509 43.2847C3.76167 43.1413 3.6164 43.0294 3.55244 43.027C3.49915 43.025 3.29428 42.7937 3.12376 42.4998C2.94219 42.2161 2.76457 41.826 2.72906 41.633C2.68289 41.4395 2.57237 41.2543 2.47723 41.2295C2.37182 41.1936 2.2909 41.0734 2.29526 40.9564C2.29961 40.8394 2.29371 40.7114 2.27437 40.6574C2.25463 40.614 2.1982 40.4095 2.13111 40.2047C2.06441 39.9891 2.05223 39.4561 2.08071 38.9777C2.11945 38.5105 2.2261 37.9392 2.30943 37.7079C2.39276 37.4767 2.49978 37.1824 2.55822 37.046C2.61627 36.9204 2.66999 36.6241 2.6787 36.3901C2.68741 36.156 2.72731 35.9445 2.7814 35.9252C2.82483 35.9055 2.97211 35.6766 3.12098 35.4051C3.25879 35.1439 3.35396 34.8811 3.32436 34.8161C3.29475 34.7511 3.44243 34.5116 3.65446 34.2638C3.85544 34.0262 4.08288 33.6512 4.16581 33.4305C4.23768 33.2201 4.39523 33.0023 4.51486 32.9428C4.63448 32.8833 4.85836 32.604 5.01828 32.3223C5.1786 32.03 5.35786 31.8023 5.41115 31.8042C5.47511 31.8066 5.54303 31.7026 5.58015 31.5655C5.61688 31.439 5.75073 31.2842 5.89207 31.2149C6.02236 31.1558 6.06738 31.0936 6.00342 31.0912C5.9292 31.0778 5.86683 31.0329 5.8692 30.969C5.87158 30.9052 5.98962 30.8883 6.13767 30.9257C6.32795 30.9754 6.40375 30.9462 6.40811 30.8292C6.41128 30.7441 6.59133 30.4951 6.82349 30.28C7.04459 30.0752 7.27477 29.9133 7.33794 29.9369C7.4015 29.9499 7.55746 29.7746 7.68342 29.5449C7.82044 29.305 8.03128 29.0891 8.18249 29.0415C8.3337 28.9938 8.539 28.9268 8.64678 28.8989C8.7439 28.8705 8.85525 28.7468 8.89158 28.631C8.92792 28.5152 8.98478 28.4214 9.03807 28.4234C9.08071 28.425 9.25522 28.3249 9.41986 28.2032C9.5849 28.0708 9.90392 27.8163 10.1136 27.6323C10.3228 27.459 10.5313 27.307 10.5739 27.3085C10.6166 27.3101 10.8693 27.1171 11.1452 26.8717C11.4208 26.6369 11.8942 26.2496 12.1907 26.0263C12.4983 25.7926 12.8477 25.5819 12.9879 25.5445C13.117 25.5173 13.2263 25.4468 13.2287 25.383C13.2311 25.3191 13.3191 25.2478 13.4277 25.1986C13.5252 25.1596 13.7973 25.0206 14.016 24.8795C14.2454 24.7389 14.4333 24.5648 14.4361 24.4903C14.4385 24.4265 14.5699 24.3355 14.7417 24.3099C14.9027 24.2839 15.2178 24.1358 15.4484 23.9633C15.6896 23.7911 15.9822 23.6741 16.174 23.6812C16.3872 23.6891 16.4958 23.6399 16.4998 23.5335C16.5029 23.4484 16.6024 23.3562 16.7209 23.3287C16.8393 23.3011 16.9716 23.1888 17.0296 23.0631C17.0766 22.9477 17.3301 22.7334 17.6017 22.605C17.8737 22.4659 18.1758 22.3813 18.2812 22.4171C18.4075 22.4644 18.4952 22.4038 18.6105 22.1737C18.6811 21.9952 18.8142 21.8617 18.8888 21.8644C18.9528 21.8668 19.2453 21.7498 19.5387 21.6115C19.8218 21.4623 20.247 21.2224 20.4874 21.0715C20.7283 20.91 21.0433 20.7619 21.1937 20.7355C21.3442 20.7091 21.596 20.5373 21.7729 20.3735C21.9396 20.1985 22.1579 20.0682 22.2645 20.0721C22.36 20.0863 22.5661 19.9981 22.7197 19.8866C22.8729 19.7857 23.2863 19.5774 23.6439 19.4308C24.0013 19.2949 24.3712 19.1063 24.4596 19.0243C24.5481 18.9424 24.6784 18.8833 24.7313 18.8959C24.7948 18.9089 24.9014 18.9129 24.9764 18.905C25.0404 18.9074 25.1075 18.8246 25.1107 18.7395C25.1138 18.6544 25.2019 18.5831 25.3085 18.5871C25.4044 18.5906 25.588 18.5335 25.7084 18.4528C25.8288 18.372 25.9903 18.3354 26.0641 18.3594C26.1273 18.3831 26.2789 18.3248 26.3899 18.2117C26.4897 18.1089 26.774 17.9277 27.0129 17.8194C27.2513 17.7217 27.5984 17.5748 27.7717 17.5066C27.945 17.4385 28.2593 17.3116 28.4654 17.2234C28.6608 17.1348 28.8464 17.0245 28.8701 16.9614C28.9044 16.8988 29.0442 16.872 29.1824 16.8878C29.3415 16.915 29.4713 16.8666 29.5069 16.772C29.542 16.6881 29.6621 16.618 29.7793 16.6223C29.8966 16.6267 29.9941 16.5877 29.9965 16.5238C29.9988 16.46 30.075 16.4202 30.1603 16.4234C30.2456 16.4265 30.5263 16.3411 30.7865 16.2335C31.036 16.1256 31.3273 16.0406 31.4339 16.0445C31.5299 16.0481 31.64 15.9563 31.6764 15.8404C31.7127 15.7246 31.7901 15.6529 31.8422 15.6868C31.905 15.7211 32.023 15.7042 32.1107 15.6435C32.1983 15.5828 32.3696 15.5679 32.4857 15.6041C32.6018 15.6404 32.6772 15.6219 32.6476 15.5569C32.618 15.4919 32.7273 15.4213 32.8991 15.3958C33.0602 15.3698 33.3073 15.3257 33.4581 15.2886C33.6085 15.2623 33.7807 15.226 33.834 15.228C33.8983 15.2197 34.0278 15.1819 34.1356 15.154C34.2331 15.115 34.3223 15.0118 34.3255 14.9267C34.3287 14.8416 34.4167 14.7703 34.5233 14.7742C34.6193 14.7778 34.9209 14.7037 35.1917 14.5966C35.4626 14.4894 35.7105 14.4241 35.7626 14.458C35.8044 14.4808 35.8925 14.4095 35.9501 14.2945C36.0189 14.1692 36.1712 14.0896 36.3311 14.0955C36.4804 14.1011 36.7599 14.0475 36.9549 13.9695C37.1393 13.8911 37.484 13.8081 37.709 13.7844C37.9344 13.7502 38.1622 13.6521 38.2519 13.5382C38.3202 13.4236 38.5373 13.3251 38.7091 13.2995C38.8804 13.2846 39.0221 13.2046 39.0138 13.1404C38.9949 13.0758 39.0928 13.0261 39.2314 13.0313C39.37 13.0364 39.5212 12.9888 39.5764 12.9376C39.6428 12.8761 39.8793 12.8316 40.1146 12.819C40.3814 12.8183 40.533 12.76 40.5256 12.6745C40.507 12.5992 40.5828 12.5701 40.7095 12.6067C40.8256 12.643 40.9219 12.6359 40.9239 12.5827C40.9255 12.5402 41.0566 12.4598 41.2192 12.3913C41.3922 12.3338 41.7056 12.2282 41.9326 12.1514C42.1486 12.0848 42.3334 11.9958 42.3354 11.9426C42.3369 11.9001 42.4874 11.8737 42.6579 11.88C42.8285 11.8863 43.0006 11.8501 43.0349 11.7875C43.0693 11.7248 43.2414 11.6886 43.412 11.6949C43.5825 11.7012 43.7329 11.6749 43.7349 11.6217C43.7365 11.5791 43.8573 11.4877 44.0093 11.4188C44.183 11.34 44.3003 11.3444 44.3299 11.4094C44.3595 11.4744 44.476 11.5 44.5944 11.4724C44.7128 11.4449 44.8112 11.3846 44.8135 11.3208C44.8159 11.2569 45.0323 11.1797 45.3011 11.1258C45.57 11.0718 45.7761 10.9836 45.7678 10.9194C45.7488 10.8548 45.8049 10.7823 45.8803 10.7638C45.9451 10.7449 46.007 10.8004 46.0039 10.8855C45.9999 10.9919 46.0627 11.0262 46.1922 10.9884C46.2897 10.9494 46.5913 10.8754 46.8606 10.8108C47.1298 10.7462 47.347 10.6477 47.3493 10.5839C47.3517 10.52 47.3758 10.4464 47.409 10.4156C47.4425 10.3743 47.711 10.331 47.9996 10.3204C48.2989 10.3102 48.5788 10.246 48.6344 10.1841C48.7004 10.1333 48.8622 10.086 49.0115 10.0916C49.1714 10.0975 49.5046 10.0353 49.7742 9.96005C50.0443 9.87419 50.2831 9.76587 50.3171 9.71386C50.351 9.66186 50.6203 9.59727 50.9097 9.56539C51.2097 9.5339 51.5015 9.43819 51.569 9.34483C51.6472 9.25185 51.9389 9.15614 52.271 9.12584C52.5919 9.10578 53.001 9.01442 53.1747 8.93564C53.3484 8.85686 53.7041 8.76352 53.9611 8.74109C54.2075 8.71826 54.4132 8.64067 54.4151 8.58748C54.4175 8.52365 54.5364 8.48545 54.6856 8.49098C54.8348 8.49651 55.136 8.43311 55.3631 8.35631C55.5798 8.26847 55.8593 8.21492 55.9766 8.21926C56.1045 8.22401 56.245 8.17595 56.3003 8.12474C56.3667 8.06328 56.6252 7.9983 56.8929 7.97627C57.1606 7.95423 57.4405 7.89004 57.5171 7.83962C57.583 7.7888 57.7011 7.77187 57.7532 7.80576C57.8053 7.83965 58.0303 7.81603 58.2348 7.77035C58.4397 7.71403 58.6138 7.62462 58.6158 7.57143C58.6182 7.5076 58.9293 7.46587 59.3032 7.45842C59.7619 7.46478 60.0632 7.40138 60.2171 7.27926C60.3486 7.18826 60.5002 7.12996 60.5523 7.16385C60.6044 7.19774 60.7138 7.12723 60.7714 7.01219C60.8291 6.89715 60.9819 6.80694 61.0991 6.81129C61.2164 6.81563 61.4067 6.8653 61.5216 6.93347C61.6889 7.02489 61.7537 7.00599 61.8453 6.83895C61.903 6.72391 62.0557 6.6337 62.173 6.63804C62.2902 6.64239 62.4158 6.71096 62.456 6.77637C62.4947 6.88433 62.5599 6.85478 62.672 6.70981C62.7845 6.55419 62.9464 6.50693 63.2875 6.51957C63.586 6.53064 63.8335 6.4759 63.9555 6.35259C64.0878 6.24032 64.2386 6.2033 64.3756 6.25099C64.5019 6.29828 64.6306 6.28174 64.6981 6.18838C64.7763 6.0954 65.0128 6.0509 65.4072 6.06553C65.8336 6.08133 66.07 6.03684 66.2134 5.91432C66.346 5.79141 66.4641 5.77448 66.5257 5.84068C66.5872 5.90687 66.875 5.91754 67.3255 5.85967C67.7116 5.81007 68.0669 5.72737 68.1329 5.67655C68.1881 5.62534 68.339 5.58832 68.4775 5.59346C68.6161 5.59859 68.7353 5.54975 68.7594 5.47608C68.7725 5.41265 68.8917 5.3638 69.0093 5.35751C69.1376 5.35162 69.2217 5.38669 69.1988 5.42845C69.1755 5.48085 69.217 5.51434 69.2916 5.51711C69.3556 5.51948 69.5395 5.45173 69.6923 5.36153C69.8451 5.27132 70.0496 5.22564 70.1546 5.27214C70.2494 5.30761 70.3568 5.29028 70.3907 5.23828C70.4251 5.17564 70.5115 5.14689 70.5854 5.17093C70.6485 5.19458 70.778 5.15677 70.8558 5.07443C70.9332 5.00273 71.1701 4.9476 71.3726 4.9551C71.5751 4.96261 71.769 4.91654 71.8246 4.85469C71.8701 4.7818 72.0307 4.76645 72.2214 4.80548C72.3904 4.85435 72.5826 4.85083 72.6269 4.80986C72.6817 4.76928 72.8539 4.73305 73.0035 4.72795C73.1638 4.72324 73.4421 4.7016 73.6143 4.66537C73.7864 4.62914 74.0249 4.53145 74.1342 4.46094C74.2444 4.36915 74.33 4.36167 74.3486 4.43693C74.3565 4.51179 74.5803 4.52009 75.0628 4.4634C75.4489 4.4138 75.9518 4.37919 76.1867 4.37724C76.4216 4.3753 76.7229 4.3119 76.8646 4.23193C76.9953 4.16221 77.2851 4.11969 77.5085 4.13862C77.7213 4.15716 77.9894 4.12449 78.0988 4.05398C78.1975 3.98307 78.3901 3.96891 78.5275 4.00596C78.6542 4.04261 79.0072 4.02374 79.2977 3.95994C79.599 3.89654 79.8994 3.85442 79.9736 3.86782C80.0372 3.88083 80.2093 3.8446 80.3507 3.77527C80.481 3.71619 80.8564 3.66619 81.1766 3.66741C81.4968 3.66862 81.8177 3.64857 81.8833 3.60838C81.9488 3.5682 82.2046 3.57769 82.4482 3.62933C82.7234 3.69279 82.8837 3.68808 82.886 3.62425C82.888 3.57106 83.3507 3.47104 83.9078 3.41712C84.4644 3.37384 85.213 3.33768 85.5647 3.35072C86.0657 3.36929 86.2272 3.33266 86.318 3.1869C86.3749 3.09313 86.429 3.07383 86.4266 3.13766C86.4226 3.24404 86.603 3.27203 87.1486 3.23899C87.5442 3.2217 88.1325 3.19024 88.4534 3.17019C88.774 3.16076 89.138 3.13165 89.2556 3.12536C89.3733 3.11907 89.5565 3.07259 89.6643 3.04463C89.7618 3.00564 89.8514 2.89178 89.8554 2.7854C89.8609 2.63648 89.8826 2.62663 89.9521 2.76769C90.0322 2.90914 90.0642 2.91032 90.2399 2.77835C90.416 2.63575 90.4263 2.64678 90.3564 2.80398C90.2865 2.96117 90.3177 2.98363 90.5222 2.93795C90.6513 2.91078 90.9722 2.89072 91.2395 2.87933C91.5064 2.87857 91.7962 2.83605 91.8838 2.77538C92.0034 2.7159 92.0244 2.72733 91.9675 2.82109C91.9114 2.89358 91.9406 2.96923 92.0354 3.0047C92.1195 3.03978 92.2588 3.02364 92.335 2.98385C92.401 2.93303 92.8818 2.9189 93.3935 2.93787C93.9154 2.96787 94.3319 2.962 94.3331 2.93009C94.3343 2.89818 94.613 2.8659 94.9442 2.85687C95.2861 2.84824 96.097 2.857 96.7366 2.88071C97.7066 2.91667 97.9209 2.89266 97.99 2.75674C98.0595 2.61018 98.0702 2.61057 98.0643 2.77014C98.0706 2.88755 98.1633 2.97621 98.3122 2.99238C98.4401 2.99712 98.6213 3.00384 98.707 2.99636C98.793 2.97825 99.6359 2.98819 100.575 3.00169C101.514 3.01518 102.4 2.99479 102.54 2.95738C102.757 2.88018 102.788 2.90264 102.749 3.0823C102.711 3.24068 102.752 3.28481 102.913 3.2801C103.031 3.26317 103.511 3.25968 103.981 3.26643C104.45 3.27317 104.897 3.31105 104.97 3.35636C105.043 3.40168 105.195 3.33275 105.317 3.1988C105.465 3.04805 105.563 3.0126 105.609 3.09246C105.66 3.15826 105.795 3.26977 105.931 3.34938C106.056 3.41794 106.225 3.46682 106.3 3.45895C106.365 3.44004 106.619 3.50271 106.85 3.59651C107.082 3.69031 107.358 3.73249 107.466 3.69389C107.563 3.66554 107.653 3.54104 107.657 3.42403C107.662 3.30701 107.718 3.23452 107.802 3.25896C107.865 3.28261 107.916 3.35905 107.903 3.42248C107.879 3.48552 107.948 3.63721 108.05 3.75818C108.172 3.92249 108.404 3.99501 108.915 4.05653C109.297 4.10266 109.7 4.17087 109.816 4.21777C109.932 4.25403 110.141 4.37895 110.286 4.50149C110.431 4.6134 110.63 4.71665 110.737 4.70997C110.833 4.71352 110.958 4.80337 111.007 4.90108C111.097 5.07484 111.14 5.06579 111.471 4.76915C111.67 4.58478 111.911 4.4339 111.996 4.43706C112.113 4.44141 112.078 4.51469 111.879 4.69906C111.636 4.9244 111.624 4.95592 111.793 5.01543C111.888 5.0509 112.037 5.04579 112.113 5.00601C112.179 4.96583 112.154 5.07141 112.03 5.23727C111.861 5.48665 111.847 5.56072 111.962 5.6289C112.046 5.67461 112.225 5.72388 112.375 5.72941C112.524 5.74558 112.696 5.68807 112.763 5.61598C112.83 5.54389 112.893 5.27992 112.913 5.025C112.933 4.78073 112.898 4.57703 112.845 4.57505C112.791 4.57308 112.742 4.46472 112.737 4.32604C112.741 4.19838 112.634 3.91745 112.514 3.71059C112.292 3.35085 112.251 3.328 111.654 3.30587C111.206 3.28927 111.037 3.2404 111.062 3.14545C111.075 3.08202 111.027 2.94175 110.966 2.85427C110.895 2.75577 110.77 2.67656 110.705 2.68483C110.631 2.68206 110.485 2.58079 110.394 2.46022C110.271 2.31718 110.113 2.25807 109.92 2.28287C109.727 2.30767 109.639 2.37897 109.679 2.45502C109.708 2.53067 109.677 2.50821 109.595 2.40931C109.514 2.28913 109.314 2.21779 109.069 2.19807C108.845 2.18977 108.566 2.23268 108.447 2.28153C108.284 2.35006 108.157 2.33469 107.969 2.21056C107.823 2.11992 107.732 1.98871 107.766 1.93671C107.8 1.87407 107.535 1.83227 107.055 1.82513C106.628 1.8306 106.213 1.79391 106.128 1.76948C106.034 1.73401 105.946 1.80531 105.897 1.97394C105.848 2.14256 105.737 2.24499 105.587 2.25009C105.459 2.26663 105.375 2.22091 105.409 2.16891C105.443 2.11691 105.382 2.02943 105.287 1.99396C105.182 1.9581 105.025 1.88834 104.941 1.84263C104.857 1.79692 104.709 1.77011 104.622 1.79886C104.504 1.82643 104.523 1.88041 104.722 1.9943L104.983 2.14247C104.46 2.13374 104.388 2.07779 104.384 1.89655C104.36 1.68261 104.307 1.65936 103.933 1.67744C103.698 1.69002 103.401 1.6364 103.275 1.56784C103.139 1.49887 103.037 1.37791 103.04 1.30344C103.042 1.23961 102.929 1.10761 102.783 1.02762C102.542 0.901511 102.499 0.921206 102.244 1.16743C101.967 1.45541 101.945 1.45462 100.623 1.40562L99.291 1.35622C99.4056 0.859802 99.3748 0.826704 99.0874 0.805397C98.9062 0.798679 98.7451 0.824666 98.7218 0.877064Z" fill="#EF8A51"/>
</svg>
