<svg width="160" height="45" viewBox="0 0 160 45" fill="none" xmlns="http://www.w3.org/2000/svg">
<path d="M84.8738 0.18832C86.6215 0.250732 88.6637 0.357896 89.4048 0.422665C90.1474 0.473984 91.9376 0.649655 93.3752 0.815273C94.8129 0.980891 96.5301 1.20329 97.1969 1.32819C97.8637 1.4531 98.7577 1.61562 99.1972 1.7029C99.6382 1.77672 100.927 2.06262 102.053 2.34489C103.181 2.61372 104.25 2.91719 104.431 3.00435C104.613 3.09151 104.969 3.19714 105.223 3.23762C105.478 3.26464 105.829 3.42408 106.004 3.56503C106.178 3.71944 106.648 3.90514 107.046 4.0016C107.445 4.08461 107.861 4.2646 107.958 4.38357C108.052 4.51599 108.177 4.62436 108.232 4.6166C108.299 4.62371 108.604 4.95514 108.941 5.37154C109.41 5.95153 109.52 6.19438 109.464 6.47397C109.423 6.72808 109.315 6.85264 109.124 6.85963C108.946 6.86804 108.682 6.66332 108.369 6.27667C108.105 5.94949 107.66 5.52172 107.38 5.34249C107.101 5.14982 106.432 4.79344 105.899 4.56029C105.367 4.3137 104.501 4.01808 103.999 3.88335C103.496 3.74861 102.382 3.48121 101.545 3.29747C100.709 3.10028 99.5407 2.82718 98.9575 2.68391C98.2815 2.51724 95.8904 2.23721 92.3086 1.89927C89.2379 1.61537 86.3272 1.36199 85.8388 1.35114C85.3503 1.34029 84.6439 1.33357 84.275 1.34897C83.8942 1.3495 82.7679 1.32561 81.7656 1.28762C80.7618 1.26308 79.5025 1.21152 78.99 1.17093C78.4761 1.14378 77.4008 1.15248 76.6079 1.19104C75.8151 1.2296 74.9507 1.3014 74.6881 1.34163C74.4254 1.38185 73.9207 1.39648 73.5575 1.35809C73.2079 1.32111 72.8121 1.33366 72.6705 1.38668C72.5424 1.44113 71.9945 1.4784 71.4805 1.45126C70.9652 1.43757 70.1483 1.44638 69.669 1.4773C69.2032 1.50964 68.7551 1.50306 68.6922 1.4556C68.6292 1.40814 68.4741 1.45974 68.3672 1.57083C68.2751 1.66989 68.0365 1.73986 67.8511 1.69305C67.6642 1.65969 67.2416 1.6694 66.8954 1.728C66.5492 1.78659 65.7507 1.87893 65.1072 1.91968C64.4637 1.96044 63.6963 2.01531 63.3961 2.02437C63.096 2.03343 62.6946 2.09977 62.4963 2.174C62.2981 2.24824 62.1041 2.28214 62.0411 2.23468C61.9902 2.2021 61.69 2.21114 61.3573 2.27115C61.0394 2.31914 60.6572 2.33313 60.5107 2.30403C60.3641 2.27494 60.1404 2.33288 60.02 2.44254C59.8713 2.56281 59.5803 2.61365 59.1514 2.55469C58.8017 2.51772 58.3493 2.55149 58.1228 2.63633C57.9097 2.7226 57.1932 2.81002 56.5122 2.81961C55.8298 2.84265 55.1148 2.91664 54.8882 3.00148C54.6751 3.08774 54.3842 3.13858 54.2362 3.12294C54.0883 3.1073 53.6706 3.19911 53.2918 3.30865C52.9251 3.43307 52.261 3.53965 51.8086 3.57341C51.3577 3.59373 50.7666 3.65363 50.5025 3.7073C50.2385 3.76098 49.9177 3.83586 49.8045 3.87828C49.6912 3.9207 49.2777 3.97219 48.9089 3.98759C48.5267 4.00157 48.1536 4.0573 48.0806 4.10399C48.0063 4.16412 47.687 4.22556 47.3854 4.24807C47.0838 4.27058 46.681 4.35038 46.4814 4.43806C46.2831 4.5123 45.9383 4.55744 45.7232 4.53469C45.508 4.51193 44.9366 4.64192 44.4701 4.81018C44.0021 4.99189 43.4321 5.10841 43.2035 5.08424C42.9883 5.06148 42.7405 5.08969 42.6527 5.14841C42.5784 5.20854 42.1203 5.29609 41.6262 5.33904C41.1335 5.36854 40.5395 5.45532 40.3144 5.52672C40.0892 5.59811 39.3558 5.84695 38.6909 6.08944C38.0275 6.31848 37.1192 6.54882 36.6683 6.56913C36.2159 6.6029 35.7727 6.67844 35.6984 6.73858C35.624 6.79871 35.2212 6.87851 34.824 6.90451C34.4106 6.95599 34.0736 7.05636 34.0205 7.17313C33.9673 7.28991 33.8406 7.33092 33.6983 7.26148C33.5815 7.20833 33.3741 7.24079 33.2523 7.36391C33.1319 7.47357 32.8261 7.53644 32.5854 7.49739C32.3568 7.47321 32.1493 7.50566 32.1408 7.58636C32.1337 7.65361 31.9609 7.74413 31.7415 7.76173C31.5355 7.78074 31.0732 7.90866 30.6901 8.05855C30.3219 8.19642 29.9998 8.28475 29.9637 8.24013C29.9276 8.19552 29.6636 8.24918 29.3684 8.34036C29.0866 8.43296 28.8168 8.54045 28.7722 8.57653C28.7262 8.62606 28.5725 8.66422 28.4217 8.67547C28.2709 8.68672 28.0578 8.77298 27.9537 8.85717C27.8482 8.95481 27.6379 9.01418 27.49 8.99854C27.3555 8.98432 27.0171 9.09812 26.7551 9.26081C26.5065 9.42492 26.1978 9.51469 26.0959 9.44952C25.9926 9.3978 25.6479 9.44293 25.3363 9.55959C25.0262 9.66279 24.6191 9.78295 24.4266 9.80339C24.2326 9.83727 23.8765 9.99001 23.6414 10.1555C23.4063 10.3211 23.1082 10.4391 23.0006 10.4278C22.893 10.4164 22.5723 10.4913 22.3025 10.5988C22.0342 10.6928 21.6483 10.8696 21.4458 10.9842C21.2447 11.0853 20.9778 11.1659 20.8433 11.1516C20.7223 11.1388 20.1467 11.3092 19.5802 11.5213C19.0259 11.7482 18.4 12.0084 18.1974 12.123C17.9949 12.2376 17.7266 12.3316 17.5935 12.304C17.4725 12.2912 17.3592 12.3336 17.3507 12.4143C17.3436 12.4815 17.2558 12.5402 17.1616 12.5303C17.0809 12.5218 16.7021 12.6313 16.3191 12.7812C15.9495 12.9325 15.6259 13.0343 15.6019 13.0045C15.563 12.9868 15.0341 13.2301 14.4159 13.5455C13.768 13.885 13.0614 14.1367 12.7464 14.1578C12.4449 14.1803 12.1227 14.2686 12.0441 14.3691C11.9655 14.4696 11.809 14.5346 11.7134 14.5381C11.6327 14.5296 11.5464 14.5749 11.5378 14.6556C11.5307 14.7228 11.4295 14.7801 11.3219 14.7687C11.2008 14.7559 10.8822 14.9398 10.5862 15.1669C10.3036 15.3954 10.0119 15.5822 9.94463 15.5751C9.86393 15.5665 9.74495 15.6627 9.66491 15.7767C9.59689 15.9055 9.23364 16.1255 8.86405 16.2768C8.49446 16.4281 7.84231 16.8079 7.39902 17.1418C6.95714 17.4623 5.9473 18.2667 5.14567 18.9027C4.34261 19.5522 3.47865 20.2632 3.23502 20.5094C2.99139 20.7557 2.69888 21.0783 2.58767 21.2297C2.48991 21.3826 2.24266 21.7917 2.04145 22.1512C1.82821 22.4958 1.54902 23.0783 1.40161 23.4435C1.20389 23.8986 1.10808 24.4188 1.08224 25.1777C1.05006 25.8678 1.12056 26.4873 1.25416 26.8958C1.37999 27.2491 1.46406 27.6116 1.45553 27.6923C1.44558 27.7864 1.57218 28.0038 1.74483 28.1717C1.91748 28.3395 2.04835 28.5165 2.04266 28.5703C2.03555 28.6376 2.26122 28.947 2.53927 29.2756C2.83076 29.6057 3.20929 30.0129 3.38194 30.1807C3.55458 30.3486 4.02584 30.7792 4.41006 31.1326C4.79286 31.4995 5.12896 31.7934 5.16931 31.7977C5.20966 31.802 5.48706 32.0081 5.79911 32.2723C6.11117 32.5365 6.40201 32.744 6.45581 32.7497C6.52305 32.7568 6.63699 32.8369 6.72118 32.941C6.80537 33.0451 6.9837 33.1591 7.10333 33.1854C7.22295 33.2116 7.60936 33.4157 7.96745 33.6303C8.31209 33.8436 8.81386 34.1142 9.06086 34.2219C9.30645 34.3431 9.64902 34.4473 9.81041 34.4644C9.98525 34.4829 10.141 34.5537 10.1728 34.6387C10.2046 34.7237 10.4445 34.8986 10.7021 35.0347C10.9717 35.1856 11.4551 35.3727 11.7842 35.4755C12.1134 35.5783 12.7822 35.8122 13.2939 35.9887C13.8042 36.1787 14.2671 36.4316 14.3484 36.5626C14.4283 36.7071 14.5062 36.7425 14.5431 36.6512C14.5813 36.5464 14.6903 36.5443 14.921 36.6775C15.1022 36.7647 15.3344 36.8844 15.4405 36.9093C15.5453 36.9476 15.994 37.0766 16.4322 37.1773C16.8689 37.2915 17.2893 37.4311 17.3523 37.4786C17.4153 37.5261 17.8116 37.636 18.2094 37.7324C18.6072 37.8289 19.0022 37.9522 19.0651 37.9997C19.1267 38.0606 19.6427 38.1968 20.1884 38.3089C20.7356 38.4076 21.3726 38.5565 21.5835 38.6196C21.7944 38.6827 22.4329 38.8182 22.9786 38.9303C23.5258 39.029 24.5082 39.2553 25.1707 39.4205C25.8318 39.5992 27.1505 39.861 28.1011 40.0024C29.0518 40.1437 30.2253 40.363 30.7024 40.4814C31.1809 40.5864 32.169 40.7589 32.9073 40.8506C33.6456 40.9422 37.1275 41.324 40.6378 41.6952C44.1481 42.0664 47.9719 42.4299 49.1194 42.5104L49.4212 42.5281C50.5126 42.5919 51.7825 42.6662 52.3643 42.6904C53.0007 42.7169 53.9074 42.7583 54.3945 42.7826C54.8815 42.8069 56.0049 42.8577 56.8968 42.9112C57.7901 42.9513 58.7373 42.9971 58.9971 42.9837C59.2555 42.9839 60.6224 43.0468 62.0431 43.1154C63.4638 43.1841 64.8845 43.2527 65.225 43.2479C65.5641 43.2565 66.3243 43.2689 66.9204 43.2912C67.5164 43.3134 68.3708 43.3357 68.8189 43.3423C69.2326 43.3609 69.8922 43.3704 70.3433 43.377L70.447 43.3785C70.8937 43.3985 72.2394 43.4048 73.4343 43.4224C74.6292 43.4399 75.6373 43.4241 75.6805 43.4015C75.7237 43.3789 76.3211 43.3876 76.9978 43.4184C77.688 43.4506 78.3004 43.4473 78.357 43.4261C78.4285 43.3929 78.987 43.3839 79.6248 43.397C80.2626 43.41 80.9245 43.4528 81.1114 43.4862C81.2982 43.5195 81.815 43.5198 82.2659 43.4994C82.7183 43.4657 83.6322 43.4399 84.3132 43.4304C84.9942 43.4208 85.935 43.3978 86.4263 43.3818C86.9176 43.3657 87.8584 43.3428 88.5394 43.3332C89.2204 43.3236 89.9877 43.2688 90.2504 43.2286C90.513 43.1883 91.0326 43.1617 91.4135 43.1612C91.779 43.1726 92.8225 43.188 93.718 43.2011L93.7212 43.2012C94.6174 43.2143 95.4789 43.1694 95.6354 43.1044C95.7904 43.0528 96.0786 43.0289 96.2774 43.0771C96.4763 43.1253 96.6512 43.1438 96.6554 43.1035C96.6597 43.0631 97.5375 42.9927 98.6036 42.9423C99.6846 42.8798 100.778 42.8322 101.037 42.8188C101.297 42.8055 101.787 42.8029 102.126 42.8116C102.464 42.8337 103.095 42.778 103.525 42.7011C103.968 42.6255 104.394 42.5889 104.457 42.6364C104.52 42.6839 104.67 42.6726 104.76 42.6004C104.861 42.5432 105.574 42.4826 106.351 42.4695C107.114 42.455 107.746 42.3994 107.753 42.3321C107.758 42.2783 107.921 42.282 108.12 42.3302C108.332 42.3798 108.703 42.351 108.941 42.281C109.195 42.199 109.741 42.1752 110.145 42.2179C110.548 42.2605 110.998 42.2537 111.126 42.1992C111.267 42.1462 111.67 42.0664 112.029 42.0227C112.4 41.9804 112.986 41.9743 113.335 42.0113C113.685 42.0483 114.04 42.0314 114.116 41.9578C114.204 41.8991 114.631 41.8491 115.08 41.8422C115.53 41.8353 115.999 41.7761 116.116 41.6933C116.232 41.624 116.951 41.5097 117.705 41.4534C118.459 41.3971 119.655 41.2788 120.346 41.175C121.05 41.0727 121.779 41.0001 121.967 41.0201C122.155 41.04 122.336 41.0046 122.385 40.9282C122.434 40.8518 122.708 40.8265 122.991 40.8563C123.287 40.8876 123.618 40.841 123.722 40.7568C123.828 40.6592 124.136 40.5694 124.396 40.5561C124.656 40.5428 125.151 40.4864 125.498 40.4278C125.842 40.3827 126.373 40.2484 126.682 40.1587C126.992 40.0554 127.519 39.9615 127.859 39.9568C128.201 39.9385 128.601 39.8856 128.756 39.834C128.893 39.8002 129.216 39.7114 129.512 39.6301L129.624 39.5994C129.96 39.5125 130.32 39.4553 130.427 39.4667C130.535 39.4781 130.797 39.4378 131.009 39.365C131.233 39.3071 131.525 39.2428 131.675 39.245C131.824 39.2472 132.167 39.2155 132.43 39.1753C132.693 39.135 133.073 39.012 133.274 38.9109C133.475 38.8098 133.881 38.7031 134.184 38.6671C134.488 38.6177 135.141 38.4828 135.644 38.3592C136.147 38.2355 136.71 38.0503 136.913 37.9357C137.114 37.8346 137.394 37.7555 137.542 37.7711C137.69 37.7868 137.968 37.7345 138.167 37.6468C138.366 37.5726 138.768 37.4928 139.07 37.4703C139.37 37.4612 139.694 37.3594 139.771 37.2724C139.85 37.1719 140.207 37.0057 140.559 36.8933C140.894 36.7988 141.436 36.6147 141.804 36.4899L141.855 36.4727C142.233 36.3632 142.611 36.2671 142.691 36.2756C142.784 36.299 143.039 36.2036 143.258 36.0635C143.489 35.9384 143.703 35.8386 143.757 35.8443C143.824 35.8514 144.118 35.7737 144.43 35.6571C144.74 35.5538 145.173 35.3141 145.395 35.1471C145.63 34.9816 146.059 34.7822 146.365 34.7193C146.669 34.6699 146.924 34.5744 146.931 34.5072C146.937 34.4534 147.184 34.3027 147.47 34.1698C147.769 34.0383 148.141 33.8735 148.297 33.8085C148.453 33.7434 148.854 33.5546 149.185 33.3855C149.529 33.2179 149.869 33.0907 149.936 33.0978C150.003 33.1049 150.09 33.0596 150.11 32.9938C150.144 32.9294 150.467 32.7051 150.844 32.4866C151.206 32.2801 152.019 31.7948 152.659 31.4001C153.284 31.0175 154.419 30.1855 155.179 29.5587C155.939 28.9319 156.571 28.3595 156.564 28.2908C156.573 28.2101 156.772 28 156.998 27.7926C157.237 27.5868 157.63 27.0844 157.865 26.6604C158.249 25.9938 158.334 25.7036 158.477 24.4811C158.559 23.7011 158.577 22.887 158.521 22.6498C158.464 22.4127 158.388 22.1054 158.336 21.9503C158.285 21.7953 158.118 21.3153 157.972 20.8919C157.795 20.3835 157.389 19.7151 156.752 18.9269C156.209 18.2711 155.569 17.5098 155.327 17.2259C155.072 16.9405 154.521 16.4879 154.1 16.2258C153.679 15.9636 153.17 15.6378 152.951 15.5194C152.734 15.3877 152.476 15.2516 152.371 15.2133C152.266 15.1751 151.879 14.9845 151.534 14.7712C151.174 14.57 150.683 14.3277 150.435 14.2334C150.185 14.1526 149.649 13.9464 149.259 13.7827C148.868 13.6189 148.332 13.4127 148.084 13.3184C147.835 13.2242 147.391 13.0548 147.103 12.9428C146.816 12.8308 146.224 12.6458 145.786 12.545C145.349 12.4309 144.638 12.2061 144.209 12.0247C143.779 11.8433 143.333 11.6873 143.228 11.6491L142.06 11.376C141.53 11.2518 141.108 11.1256 141.112 11.0853C141.116 11.0449 140.892 10.9804 140.626 10.9251C140.346 10.8683 139.721 10.7342 139.217 10.6129C138.728 10.4796 137.81 10.2873 137.155 10.1773C136.514 10.0687 135.973 9.91624 135.938 9.85818C135.903 9.80011 135.105 9.6341 134.142 9.4779C133.178 9.33516 131.831 9.08393 131.139 8.94274C130.447 8.80154 128.735 8.52536 127.329 8.32224C125.922 8.11912 124.693 7.90758 124.591 7.8424C124.491 7.76378 123.773 7.60629 122.997 7.48346C122.222 7.36063 121.194 7.17042 120.691 7.04913C120.199 6.94271 119.802 6.83282 119.807 6.79247C119.811 6.75212 119.875 6.66367 119.938 6.57522C120.017 6.47473 120.695 6.49203 122.201 6.65131L124.757 6.92152C124.965 6.95596 126.089 7.05312 127.363 7.16322L127.72 7.19404C129.217 7.31155 131.229 7.57866 132.549 7.82705C133.79 8.05345 135.418 8.34799 136.153 8.46656C136.887 8.59857 137.785 8.72075 138.162 8.76057C138.526 8.78551 138.899 8.86571 138.959 8.94007C139.019 9.01442 139.561 9.16686 140.148 9.26978C140.734 9.38616 141.507 9.53588 141.879 9.61604C142.238 9.69479 142.898 9.88694 143.33 10.0415C143.761 10.2094 144.408 10.4002 144.781 10.4669C145.142 10.5322 146.105 10.8109 146.893 11.071C147.682 11.3312 148.656 11.6382 149.052 11.7481C149.436 11.8431 149.776 11.9742 149.797 12.0309C149.817 12.101 149.934 12.1541 150.042 12.1655C150.149 12.1769 150.486 12.3349 150.795 12.5035C151.088 12.6842 151.57 12.8847 151.862 12.9564C152.154 13.028 152.399 13.1492 152.417 13.2327C152.424 13.3014 152.524 13.38 152.632 13.3914C152.739 13.4027 153.049 13.5579 153.316 13.7357C153.57 13.9121 153.866 14.0659 153.96 14.0758C154.041 14.0843 154.529 14.3536 155.013 14.6631C155.497 14.9727 155.899 15.2872 155.891 15.3679C155.884 15.4352 156.214 15.7829 156.627 16.1257C157.039 16.4685 157.738 17.1951 158.169 17.744C158.599 18.3062 159.051 19.0476 159.174 19.4278C159.299 19.7946 159.444 20.0955 159.511 20.1026C159.565 20.1083 159.638 20.4424 159.692 20.829C159.732 21.2275 159.833 21.687 159.911 21.8449C159.99 22.0028 160.008 22.3447 159.954 22.5974C159.914 22.8515 159.912 23.1234 159.971 23.2112C160.031 23.2855 159.997 23.9891 159.875 24.7649C159.765 25.5421 159.576 26.4333 159.473 26.7624C159.357 27.0901 159.114 27.5813 158.922 27.8601C158.742 28.1403 158.587 28.4503 158.579 28.531C158.569 28.6252 158.376 28.7815 158.136 28.8649C157.895 28.9484 157.701 29.1182 157.689 29.2257C157.678 29.3333 157.162 29.8364 156.553 30.3295C155.943 30.8226 155.433 31.2719 155.427 31.3257C155.42 31.3929 155.102 31.5768 154.687 31.7642C154.287 31.9531 153.816 32.1617 153.659 32.2267C153.488 32.3038 153.152 32.5266 152.9 32.7176C152.65 32.8952 152.07 33.2418 151.596 33.4773C151.122 33.7128 150.686 33.9795 150.622 34.0679C150.544 34.1684 150.374 34.232 150.226 34.2164C150.078 34.2008 149.951 34.2418 149.943 34.3224C149.934 34.4031 149.79 34.6055 149.608 34.7902C149.437 34.9897 149.275 35.1086 149.265 35.0668C149.256 35.0251 148.964 35.0893 148.626 35.2032C148.287 35.317 147.8 35.551 147.549 35.7421C147.312 35.921 147.013 36.0526 146.906 36.0277C146.8 36.0029 146.539 36.0297 146.329 36.0891C146.104 36.1604 145.855 36.3246 145.772 36.4654C145.689 36.6062 145.515 36.7102 145.407 36.6988C145.3 36.6874 145.169 36.7688 145.117 36.8721C145.058 37.0019 144.849 37.0478 144.491 37.0099C144.087 36.9672 143.919 37.0174 143.79 37.2077C143.707 37.3486 143.562 37.4285 143.499 37.381C143.436 37.3336 143.281 37.3852 143.189 37.4842C143.082 37.5953 142.897 37.671 142.791 37.6462C142.684 37.6348 142.348 37.7217 142.064 37.8412C141.765 37.9593 141.457 38.049 141.39 38.0419C141.322 38.0348 140.732 38.2172 140.095 38.4491C139.444 38.693 138.691 38.8717 138.407 38.8553C138.123 38.8389 137.845 38.8911 137.785 38.9527C137.722 39.0277 137.394 39.1698 137.042 39.2822C136.691 39.3946 136.261 39.4716 136.086 39.4531C135.911 39.4346 135.728 39.4968 135.692 39.5746C135.669 39.6674 135.513 39.7324 135.365 39.7168C135.217 39.7011 134.838 39.8107 134.522 39.9677C134.135 40.1579 133.76 40.2271 133.357 40.1845C133.007 40.1475 132.662 40.1926 132.528 40.3009C132.409 40.3971 132.077 40.4571 131.767 40.4244C131.458 40.3917 131.183 40.417 131.135 40.4935C131.086 40.5699 130.723 40.654 130.338 40.6948C129.94 40.7343 129.534 40.841 129.458 40.9146C129.381 41.0016 129.029 41.114 128.683 41.1726C128.335 41.2446 127.981 41.248 127.906 41.1857C127.816 41.1354 127.608 41.1813 127.447 41.2867C127.27 41.4176 127.076 41.4514 126.962 41.3714C126.846 41.3048 126.694 41.3295 126.587 41.4406C126.451 41.5757 126.175 41.6145 125.759 41.557C125.329 41.5115 125.108 41.5425 125.096 41.6501C125.086 41.7443 124.814 41.8787 124.493 41.9535C124.16 42.0136 123.528 42.0826 123.077 42.1029C122.66 42.1093 121.913 42.1393 121.36 42.1614L121.234 42.1665C120.674 42.1889 120.132 42.2948 120.055 42.3818C119.963 42.4809 119.548 42.5458 119.088 42.5244C118.64 42.5178 118.068 42.5253 117.835 42.5415C117.589 42.5562 117.377 42.629 117.369 42.7097C117.36 42.7904 117.092 42.8845 116.775 42.919C116.444 42.9656 116.083 43.0362 115.968 43.092C115.855 43.1345 115.359 43.1909 114.869 43.1935C114.38 43.1961 113.885 43.239 113.772 43.2814C113.657 43.3373 113.192 43.3697 112.742 43.3765C112.293 43.3834 111.749 43.3803 111.519 43.3696C111.289 43.3588 111.041 43.387 110.97 43.4203C110.898 43.4535 110.553 43.4987 110.211 43.5169C109.869 43.5351 109.378 43.5512 109.121 43.5376C108.864 43.5241 108.306 43.533 107.897 43.5441C107.487 43.5553 107.074 43.6067 107.001 43.6534C106.928 43.7001 106.57 43.7438 106.215 43.7607C105.847 43.7626 105.528 43.824 105.479 43.9005C105.43 43.9769 105.182 44.0051 104.927 43.9781C104.671 43.9511 104.314 43.9813 104.145 44.045C103.96 44.1206 103.6 44.1778 103.342 44.1777C103.083 44.1775 102.647 44.1858 102.389 44.1857C102.129 44.199 101.573 44.1811 101.167 44.1653C100.761 44.1495 100.338 44.1592 100.252 44.2045C100.152 44.2483 99.9381 44.2122 99.7838 44.1278C99.5772 44.0244 99.4398 44.0371 99.3329 44.1482C99.2557 44.2352 98.9095 44.2938 98.5704 44.2851C98.2328 44.263 97.8739 44.1843 97.7749 44.0922C97.6489 43.9973 97.6126 43.998 97.6658 44.0943C97.7111 44.1807 97.5638 44.2875 97.3656 44.3617C97.1553 44.4211 96.6194 44.4732 96.1713 44.4666C95.7218 44.4735 94.8674 44.4512 94.2728 44.4155C93.6782 44.3798 92.9462 44.3568 92.6475 44.3524C92.3488 44.348 92.0337 44.3691 91.9608 44.4158C91.8893 44.449 91.4518 44.4708 91.0023 44.4776C90.5542 44.4711 90.1153 44.5062 90.0438 44.5395C89.9708 44.5862 89.5036 44.632 89.0137 44.6346C88.5225 44.6506 87.8832 44.651 87.5859 44.6332C87.2886 44.6153 86.9736 44.6364 86.9007 44.6831C86.8291 44.7164 86.4171 44.7544 86.008 44.7655C85.6002 44.7632 85.2002 44.8161 85.111 44.8883C85.0367 44.9484 84.5065 44.9467 83.9281 44.8856C83.3498 44.8244 82.8479 44.8122 82.8153 44.8631C82.7679 44.9261 82.4854 44.8962 82.1684 44.8083C81.8109 44.7161 81.5256 44.7131 81.4081 44.7959C81.2608 44.9027 81.1397 44.8899 80.9119 44.7298C80.7066 44.6129 80.5601 44.5838 80.5112 44.6603C80.4624 44.7367 79.9859 44.7407 79.4465 44.6973C78.922 44.6418 78.2347 44.5827 77.9239 44.5635C77.6266 44.5456 77.267 44.6028 77.1374 44.6707C76.993 44.7506 76.7721 44.7817 76.6284 44.7257C76.4847 44.6697 76.3191 44.693 76.2568 44.768C76.1796 44.855 75.975 44.8606 75.7117 44.7784C75.447 44.7096 75.2707 44.7045 75.2622 44.7852C75.2536 44.8659 74.7369 44.8657 73.9703 44.7846C73.2709 44.7107 72.5658 44.6905 72.4094 44.7556C72.2529 44.8206 71.6526 44.8387 71.0849 44.8059C70.5051 44.7582 69.9601 44.7685 69.8886 44.8018C69.817 44.835 69.1778 44.8354 68.5011 44.8047C67.7019 44.7746 67.2475 44.6993 67.256 44.6186C67.2645 44.5379 67.1761 44.4742 67.0685 44.4628C66.9609 44.4514 66.7535 44.4839 66.6253 44.5383C66.4837 44.5914 65.7312 44.6342 64.9426 44.6324C64.1554 44.6172 63.0349 44.5395 62.4474 44.4366C61.845 44.3457 61.3042 44.3157 61.2015 44.3864C61.0988 44.4571 60.8942 44.4627 60.7506 44.4067C60.6069 44.3507 60.483 44.3648 60.4745 44.4455C60.4659 44.5262 59.7878 44.5089 58.7118 44.3951C57.7435 44.2928 56.8785 44.2421 56.7921 44.2873C56.6937 44.3177 56.1217 44.3252 55.5271 44.2896C54.9325 44.2539 53.2053 44.1256 51.6812 44.0053C50.1586 43.8715 47.3973 43.6203 45.525 43.4495C43.1161 43.2084 42.0748 43.1527 41.941 43.261C41.8369 43.3451 41.5636 43.3571 41.3513 43.3074C41.1404 43.2443 40.4764 43.0925 39.8918 42.9627C39.3086 42.8194 38.3473 42.6498 37.7556 42.5872C37.1638 42.5246 36.1657 42.4463 35.5307 42.4063C34.8958 42.3664 34.1773 42.3448 33.9429 42.3745C33.5727 42.4033 33.4949 42.3678 33.5162 42.1661C33.5323 42.0137 33.4908 41.9776 33.3917 42.0578C33.3024 42.1299 32.9782 42.1092 32.5549 41.9965C32.1706 41.9014 31.5562 41.7957 31.1782 41.7693C30.8151 41.7309 30.4179 41.7569 30.3301 41.8156C30.2006 41.8835 30.0583 41.8141 29.902 41.6207C29.7697 41.4572 29.5942 41.3162 29.5269 41.3091C29.4597 41.302 29.3882 41.3352 29.3825 41.389C29.3754 41.4563 28.9152 41.4348 28.3667 41.3496C27.7898 41.275 27.2348 41.1211 27.0848 40.9965C26.8584 40.8229 26.6715 40.7896 26.2432 40.8531C25.8418 40.9194 25.3591 40.8548 24.4304 40.6342C23.741 40.4661 22.8902 40.2809 22.5405 40.244C22.1788 40.1921 21.9021 40.1085 21.9106 40.0278C21.9191 39.9471 21.5348 39.852 21.0237 39.798C20.5261 39.7454 20.0759 39.6298 20.0038 39.5405C19.9316 39.4513 19.4723 39.2939 18.9803 39.1875C18.3001 39.0612 18.07 39.0505 18.0572 39.1715C18.0473 39.2657 17.9574 39.2154 17.852 39.0546C17.7365 38.8611 17.4919 38.7309 17.1181 38.6642C16.8102 38.6181 16.4513 38.5393 16.3183 38.5116C16.1986 38.4854 16.0458 38.3876 15.9991 38.3147C15.9538 38.2283 15.5695 38.1333 15.1526 38.0892C14.6011 38.0309 14.3393 37.9352 14.2353 37.761C14.154 37.63 13.8213 37.4316 13.4922 37.3288C13.1645 37.2126 12.6931 37.0403 12.4461 36.9326L12.4037 36.9165C12.1392 36.8162 11.6268 36.6218 11.2444 36.4656C10.8268 36.299 10.3526 36.1537 10.1912 36.1366C10.0163 36.1181 9.68863 36.0019 9.47279 35.8567C9.24208 35.7235 9.0199 35.5096 8.97891 35.3828C8.91528 35.2129 8.78363 35.1718 8.45515 35.1915C8.18048 35.2168 8.00849 35.1714 8.01702 35.0907C8.02555 35.01 7.76161 34.8053 7.42899 34.607C7.0815 34.4206 6.69794 34.1897 6.55711 34.1068C6.41628 34.0239 6.07447 33.7838 5.7985 33.5642C5.5211 33.3581 5.09292 33.1632 4.86571 33.1255C4.52948 33.09 4.35256 32.9625 4.10852 32.5695C3.92035 32.2912 3.66068 32.0461 3.51274 32.0305C3.36479 32.0149 3.16874 31.9397 3.08029 31.876C3.00528 31.8137 2.8638 31.6083 2.78956 31.4101C2.71533 31.2118 2.49742 30.9576 2.30564 30.8421C2.11385 30.7266 1.92426 30.4618 1.86774 30.2246C1.82467 29.9889 1.73272 29.8295 1.67608 29.8508C1.60456 29.884 1.39442 29.685 1.18996 29.4321C0.986918 29.1659 0.733696 28.7311 0.626224 28.4614C0.518751 28.1916 0.376619 27.8638 0.293851 27.7462C0.211083 27.6287 0.125591 27.2797 0.103081 26.9781C0.0805707 26.6765 0.0411145 26.278 0.00722734 26.084C-0.0132105 25.8914 0.0104429 25.2819 0.0687504 24.7305C0.153307 24.0595 0.333429 23.3849 0.623991 22.6949C0.873432 22.1365 1.15611 21.6496 1.25168 21.6461C1.33522 21.6277 1.43013 21.5018 1.44436 21.3673C1.4706 21.2476 1.68242 20.9164 1.9289 20.6433C2.17537 20.3702 2.45586 20.0327 2.5253 19.8904C2.60819 19.7496 2.88156 19.4793 3.14783 19.2762C3.40064 19.0718 3.61879 18.8093 3.63301 18.6748C3.64581 18.5537 3.72444 18.4532 3.79168 18.4604C3.87238 18.4689 4.62513 17.9093 5.48767 17.2117C6.35022 16.5142 7.12987 15.9574 7.22401 15.9674C7.30471 15.9759 7.56528 15.8267 7.80465 15.6208C8.02914 15.4269 8.30459 15.2657 8.41218 15.277C8.51977 15.2884 8.83557 15.1314 9.10041 14.9418C9.35322 14.7373 9.6407 14.591 9.70795 14.5981C9.77377 14.6186 10.137 14.3986 10.5045 14.1383C10.8721 13.878 11.3054 13.6382 11.4831 13.6298C11.6487 13.6065 11.7932 13.5266 11.8003 13.4593C11.8088 13.3787 11.8534 13.3426 11.9193 13.3631C11.9702 13.3957 12.2145 13.2719 12.4525 13.0795C12.7173 12.8899 13.0423 12.7747 13.2709 12.7989C13.4726 12.8202 13.7127 12.7368 13.8359 12.6002C13.9308 12.4742 14.4073 12.2118 14.8754 12.0301C15.3434 11.8484 15.7936 11.7056 15.8609 11.7128C15.9281 11.7199 16.1158 11.6173 16.2659 11.4836C16.4026 11.3485 16.6886 11.2155 16.9081 11.1979C17.1155 11.1655 17.3973 11.0728 17.5418 10.9929C17.6742 10.8981 17.8547 10.8628 17.9177 10.9103C17.9807 10.9577 18.0791 10.9273 18.1265 10.8644C18.1754 10.7879 18.4197 10.6642 18.6732 10.5822C18.9146 10.4853 19.2325 10.4373 19.367 10.4515C19.488 10.4643 19.5999 10.4354 19.607 10.3681C19.6127 10.3143 19.8272 10.2146 20.0658 10.1446C20.3193 10.0626 20.6563 9.96229 20.8113 9.91068C20.9678 9.84563 21.3792 9.68513 21.7339 9.54585C22.09 9.39311 22.4553 9.28215 22.5495 9.29211C22.6302 9.30064 22.7598 9.23272 22.837 9.14569C22.9021 9.04378 23.0749 8.95328 23.2271 8.92857C23.3793 8.90387 23.7836 8.81061 24.1326 8.72512C24.4802 8.65308 24.9248 8.56409 25.1443 8.5465C25.3503 8.52748 25.4947 8.44756 25.4615 8.37604C25.4297 8.29108 25.6307 8.18996 25.8934 8.14973C26.1575 8.09606 26.3904 8.07987 26.4158 8.09616C26.4399 8.1259 26.5709 8.04457 26.7062 7.92288C26.84 7.81464 27.1246 7.69513 27.3441 7.67754C27.5501 7.65852 27.9933 7.583 28.3409 7.51096C28.6885 7.43892 29.0361 7.36686 29.1062 7.34707C29.1749 7.34073 29.497 7.25241 29.8071 7.1492C30.1172 7.046 30.4393 6.95766 30.5094 6.93787C30.5795 6.91809 30.7869 6.88561 30.966 6.86375C31.1317 6.84047 31.2776 6.7471 31.2847 6.67985C31.2932 6.59915 31.5318 6.52921 31.8185 6.51872C32.0932 6.49337 32.593 6.39662 32.93 6.29625C33.255 6.18102 33.529 6.0332 33.5361 5.96596C33.5447 5.88526 33.6579 5.84284 33.779 5.85564C33.9135 5.86986 34.4911 5.80854 35.0582 5.7189C35.6267 5.61582 36.2922 5.49581 36.5145 5.45132C36.7382 5.39337 37.4079 5.233 37.9821 5.07612C38.5549 4.93268 39.226 4.75886 39.4483 4.71436C39.672 4.65642 40.3701 4.48546 40.9832 4.34629C41.5963 4.20713 42.1945 4.07998 42.3035 4.07791C42.414 4.06239 42.7559 4.04413 43.0561 4.03507C43.3576 4.01256 43.6514 3.93483 43.7138 3.85982C43.7761 3.78482 43.9326 3.71977 44.0671 3.734C44.203 3.73477 44.5506 3.66273 44.8458 3.57155C45.1276 3.47895 45.5141 3.42462 45.7024 3.44453C45.8907 3.46444 46.0727 3.41568 46.1201 3.3527C46.169 3.27627 46.3495 3.24096 46.5378 3.26087C46.7261 3.28078 47.0185 3.21651 47.2047 3.1274C47.3775 3.03688 47.8879 2.96845 48.3374 2.96159C48.7869 2.95472 49.3554 2.85163 49.5848 2.7399C49.8143 2.62816 50.1484 2.55469 50.3232 2.57318C50.4846 2.59024 50.9519 2.54445 51.3547 2.46465C51.7441 2.38343 52.2021 2.29585 52.3572 2.24425C52.5108 2.20609 53.0375 2.1122 53.5359 2.02891C54.0329 1.95906 54.709 1.86735 55.0509 1.8491C55.3942 1.81741 56.0151 1.73347 56.4314 1.6551C56.8477 1.57672 57.54 1.45952 57.9535 1.40804C58.3683 1.34311 59.0862 1.24223 59.5428 1.16812C59.998 1.10745 60.6174 1.03695 60.9162 1.04134C61.2163 1.03228 61.7763 1.0099 62.1465 0.981047C62.5316 0.940172 63.1631 0.884541 63.5602 0.858536C63.9453 0.817661 64.5633 0.760605 64.9201 0.730334C65.2918 0.688036 65.8829 0.628165 66.268 0.587289C66.6397 0.544991 67.1784 0.465968 67.4425 0.412293C67.7066 0.358618 68.5115 0.334917 69.2179 0.341621C69.9244 0.348326 70.6889 0.320376 70.9261 0.263856C71.1619 0.220786 71.8769 0.146779 72.5338 0.107448C73.2056 0.0560889 73.9822 0.0430078 74.2781 0.074295C74.574 0.105582 75.4163 0.113065 76.1405 0.0808438C76.8782 0.0500447 77.8459 0.0299669 78.294 0.0365493C78.7435 0.0296825 79.3558 0.0264511 79.6574 0.00394121C79.9575 -0.0051194 80.5415 0.00222389 80.9479 0.0179895C81.3528 0.0472044 83.1274 0.112459 84.8738 0.18832Z" fill="#F9E7F3"/>
<path d="M84.8738 0.18832C86.6215 0.250732 88.6637 0.357896 89.4048 0.422665C90.1474 0.473984 91.9376 0.649655 93.3752 0.815273C94.8129 0.980891 96.5301 1.20329 97.1969 1.32819C97.8637 1.4531 98.7577 1.61562 99.1972 1.7029C99.6382 1.77672 100.927 2.06262 102.053 2.34489C103.181 2.61372 104.25 2.91719 104.431 3.00435C104.613 3.09151 104.969 3.19714 105.223 3.23762C105.478 3.26464 105.829 3.42408 106.004 3.56503C106.178 3.71944 106.648 3.90514 107.046 4.0016C107.445 4.08461 107.861 4.2646 107.958 4.38357C108.052 4.51599 108.177 4.62436 108.232 4.6166C108.299 4.62371 108.604 4.95514 108.941 5.37154C109.41 5.95153 109.52 6.19438 109.464 6.47397C109.423 6.72808 109.315 6.85264 109.124 6.85963C108.946 6.86804 108.682 6.66332 108.369 6.27667C108.105 5.94949 107.66 5.52172 107.38 5.34249C107.101 5.14982 106.432 4.79344 105.899 4.56029C105.367 4.3137 104.501 4.01808 103.999 3.88335C103.496 3.74861 102.382 3.48121 101.545 3.29747C100.709 3.10028 99.5407 2.82718 98.9575 2.68391C98.2815 2.51724 95.8904 2.23721 92.3086 1.89927C89.2379 1.61537 86.3272 1.36199 85.8388 1.35114C85.3503 1.34029 84.6439 1.33357 84.275 1.34897C83.8942 1.3495 82.7679 1.32561 81.7656 1.28762C80.7618 1.26308 79.5025 1.21152 78.99 1.17093C78.4761 1.14378 77.4008 1.15248 76.6079 1.19104C75.8151 1.2296 74.9507 1.3014 74.6881 1.34163C74.4254 1.38185 73.9207 1.39648 73.5575 1.35809C73.2079 1.32111 72.8121 1.33366 72.6705 1.38668C72.5424 1.44113 71.9945 1.4784 71.4805 1.45126C70.9652 1.43757 70.1483 1.44638 69.669 1.4773C69.2032 1.50964 68.7551 1.50306 68.6922 1.4556C68.6292 1.40814 68.4741 1.45974 68.3672 1.57083C68.2751 1.66989 68.0365 1.73986 67.8511 1.69305C67.6642 1.65969 67.2416 1.6694 66.8954 1.728C66.5492 1.78659 65.7507 1.87893 65.1072 1.91968C64.4637 1.96044 63.6963 2.01531 63.3961 2.02437C63.096 2.03343 62.6946 2.09977 62.4963 2.174C62.2981 2.24824 62.1041 2.28214 62.0411 2.23468C61.9902 2.2021 61.69 2.21114 61.3573 2.27115C61.0394 2.31914 60.6572 2.33313 60.5107 2.30403C60.3641 2.27494 60.1404 2.33288 60.02 2.44254C59.8713 2.56281 59.5803 2.61365 59.1514 2.55469C58.8017 2.51772 58.3493 2.55149 58.1228 2.63633C57.9097 2.7226 57.1932 2.81002 56.5122 2.81961C55.8298 2.84265 55.1148 2.91664 54.8882 3.00148C54.6751 3.08774 54.3842 3.13858 54.2362 3.12294C54.0883 3.1073 53.6706 3.19911 53.2918 3.30865C52.9251 3.43307 52.261 3.53965 51.8086 3.57341C51.3577 3.59373 50.7666 3.65363 50.5025 3.7073C50.2385 3.76098 49.9177 3.83586 49.8045 3.87828C49.6912 3.9207 49.2777 3.97219 48.9089 3.98759C48.5267 4.00157 48.1536 4.0573 48.0806 4.10399C48.0063 4.16412 47.687 4.22556 47.3854 4.24807C47.0838 4.27058 46.681 4.35038 46.4814 4.43806C46.2831 4.5123 45.9383 4.55744 45.7232 4.53469C45.508 4.51193 44.9366 4.64192 44.4701 4.81018C44.0021 4.99189 43.4321 5.10841 43.2035 5.08424C42.9883 5.06148 42.7405 5.08969 42.6527 5.14841C42.5784 5.20854 42.1203 5.29609 41.6262 5.33904C41.1335 5.36854 40.5395 5.45532 40.3144 5.52672C40.0892 5.59811 39.3558 5.84695 38.6909 6.08944C38.0275 6.31848 37.1192 6.54882 36.6683 6.56913C36.2159 6.6029 35.7727 6.67844 35.6984 6.73858C35.624 6.79871 35.2212 6.87851 34.824 6.90451C34.4106 6.95599 34.0736 7.05636 34.0205 7.17313C33.9673 7.28991 33.8406 7.33092 33.6983 7.26148C33.5815 7.20833 33.3741 7.24079 33.2523 7.36391C33.1319 7.47357 32.8261 7.53644 32.5854 7.49739C32.3568 7.47321 32.1493 7.50566 32.1408 7.58636C32.1337 7.65361 31.9609 7.74413 31.7415 7.76173C31.5355 7.78074 31.0732 7.90866 30.6901 8.05855C30.3219 8.19642 29.9998 8.28475 29.9637 8.24013C29.9276 8.19552 29.6636 8.24918 29.3684 8.34036C29.0866 8.43296 28.8168 8.54045 28.7722 8.57653C28.7262 8.62606 28.5725 8.66422 28.4217 8.67547C28.2709 8.68672 28.0578 8.77298 27.9537 8.85717C27.8482 8.95481 27.6379 9.01418 27.49 8.99854C27.3555 8.98432 27.0171 9.09812 26.7551 9.26081C26.5065 9.42492 26.1978 9.51469 26.0959 9.44952C25.9926 9.3978 25.6479 9.44293 25.3363 9.55959C25.0262 9.66279 24.6191 9.78295 24.4266 9.80339C24.2326 9.83727 23.8765 9.99001 23.6414 10.1555C23.4063 10.3211 23.1082 10.4391 23.0006 10.4278C22.893 10.4164 22.5723 10.4913 22.3025 10.5988C22.0342 10.6928 21.6483 10.8696 21.4458 10.9842C21.2447 11.0853 20.9778 11.1659 20.8433 11.1516C20.7223 11.1388 20.1467 11.3092 19.5802 11.5213C19.0259 11.7482 18.4 12.0084 18.1974 12.123C17.9949 12.2376 17.7266 12.3316 17.5935 12.304C17.4725 12.2912 17.3592 12.3336 17.3507 12.4143C17.3436 12.4815 17.2558 12.5402 17.1616 12.5303C17.0809 12.5218 16.7021 12.6313 16.3191 12.7812C15.9495 12.9325 15.6259 13.0343 15.6019 13.0045C15.563 12.9868 15.0341 13.2301 14.4159 13.5455C13.768 13.885 13.0614 14.1367 12.7464 14.1578C12.4449 14.1803 12.1227 14.2686 12.0441 14.3691C11.9655 14.4696 11.809 14.5346 11.7134 14.5381C11.6327 14.5296 11.5464 14.5749 11.5378 14.6556C11.5307 14.7228 11.4295 14.7801 11.3219 14.7687C11.2008 14.7559 10.8822 14.9398 10.5862 15.1669C10.3036 15.3954 10.0119 15.5822 9.94463 15.5751C9.86393 15.5665 9.74495 15.6627 9.66491 15.7767C9.59689 15.9055 9.23364 16.1255 8.86405 16.2768C8.49446 16.4281 7.84231 16.8079 7.39902 17.1418C6.95714 17.4623 5.9473 18.2667 5.14567 18.9027C4.34261 19.5522 3.47865 20.2632 3.23502 20.5094C2.99139 20.7557 2.69888 21.0783 2.58767 21.2297C2.48991 21.3826 2.24266 21.7917 2.04145 22.1512C1.82821 22.4958 1.54902 23.0783 1.40161 23.4435C1.20389 23.8986 1.10808 24.4188 1.08224 25.1777C1.05006 25.8678 1.12056 26.4873 1.25416 26.8958C1.37999 27.2491 1.46406 27.6116 1.45553 27.6923C1.44558 27.7864 1.57218 28.0038 1.74483 28.1717C1.91748 28.3395 2.04835 28.5165 2.04266 28.5703C2.03555 28.6376 2.26122 28.947 2.53927 29.2756C2.83076 29.6057 3.20929 30.0129 3.38194 30.1807C3.55458 30.3486 4.02584 30.7792 4.41006 31.1326C4.79286 31.4995 5.12896 31.7934 5.16931 31.7977C5.20966 31.802 5.48706 32.0081 5.79911 32.2723C6.11117 32.5365 6.40201 32.744 6.45581 32.7497C6.52305 32.7568 6.63699 32.8369 6.72118 32.941C6.80537 33.0451 6.9837 33.1591 7.10333 33.1854C7.22295 33.2116 7.60936 33.4157 7.96745 33.6303C8.31209 33.8436 8.81386 34.1142 9.06086 34.2219C9.30645 34.3431 9.64902 34.4473 9.81041 34.4644C9.98525 34.4829 10.141 34.5537 10.1728 34.6387C10.2046 34.7237 10.4445 34.8986 10.7021 35.0347C10.9717 35.1856 11.4551 35.3727 11.7842 35.4755C12.1134 35.5783 12.7822 35.8122 13.2939 35.9887C13.8042 36.1787 14.2671 36.4316 14.3484 36.5626C14.4283 36.7071 14.5062 36.7425 14.5431 36.6512C14.5813 36.5464 14.6903 36.5443 14.921 36.6775C15.1022 36.7647 15.3344 36.8844 15.4405 36.9093C15.5453 36.9476 15.994 37.0766 16.4322 37.1773C16.8689 37.2915 17.2893 37.4311 17.3523 37.4786C17.4153 37.5261 17.8116 37.636 18.2094 37.7324C18.6072 37.8289 19.0022 37.9522 19.0651 37.9997C19.1267 38.0606 19.6427 38.1968 20.1884 38.3089C20.7356 38.4076 21.3726 38.5565 21.5835 38.6196C21.7944 38.6827 22.4329 38.8182 22.9786 38.9303C23.5258 39.029 24.5082 39.2553 25.1707 39.4205C25.8318 39.5992 27.1505 39.861 28.1011 40.0024C29.0518 40.1437 30.2253 40.363 30.7024 40.4814C31.1809 40.5864 32.169 40.7589 32.9073 40.8506C33.6456 40.9422 37.1275 41.324 40.6378 41.6952C44.1481 42.0664 47.9719 42.4299 49.1194 42.5104L49.4212 42.5281C50.5126 42.5919 51.7825 42.6662 52.3643 42.6904C53.0007 42.7169 53.9074 42.7583 54.3945 42.7826C54.8815 42.8069 56.0049 42.8577 56.8968 42.9112C57.7901 42.9513 58.7373 42.9971 58.9971 42.9837C59.2555 42.9839 60.6224 43.0468 62.0431 43.1154C63.4638 43.1841 64.8845 43.2527 65.225 43.2479C65.5641 43.2565 66.3243 43.2689 66.9204 43.2912C67.5164 43.3134 68.3708 43.3357 68.8189 43.3423C69.2326 43.3609 69.8922 43.3704 70.3433 43.377L70.447 43.3785C70.8937 43.3985 72.2394 43.4048 73.4343 43.4224C74.6292 43.4399 75.6373 43.4241 75.6805 43.4015C75.7237 43.3789 76.3211 43.3876 76.9978 43.4184C77.688 43.4506 78.3004 43.4473 78.357 43.4261C78.4285 43.3929 78.987 43.3839 79.6248 43.397C80.2626 43.41 80.9245 43.4528 81.1114 43.4862C81.2982 43.5195 81.815 43.5198 82.2659 43.4994C82.7183 43.4657 83.6322 43.4399 84.3132 43.4304C84.9942 43.4208 85.935 43.3978 86.4263 43.3818C86.9176 43.3657 87.8584 43.3428 88.5394 43.3332C89.2204 43.3236 89.9877 43.2688 90.2504 43.2286C90.513 43.1883 91.0326 43.1617 91.4135 43.1612C91.779 43.1726 92.8225 43.188 93.718 43.2011L93.7212 43.2012C94.6174 43.2143 95.4789 43.1694 95.6354 43.1044C95.7904 43.0528 96.0786 43.0289 96.2774 43.0771C96.4763 43.1253 96.6512 43.1438 96.6554 43.1035C96.6597 43.0631 97.5375 42.9927 98.6036 42.9423C99.6846 42.8798 100.778 42.8322 101.037 42.8188C101.297 42.8055 101.787 42.8029 102.126 42.8116C102.464 42.8337 103.095 42.778 103.525 42.7011C103.968 42.6255 104.394 42.5889 104.457 42.6364C104.52 42.6839 104.67 42.6726 104.76 42.6004C104.861 42.5432 105.574 42.4826 106.351 42.4695C107.114 42.455 107.746 42.3994 107.753 42.3321C107.758 42.2783 107.921 42.282 108.12 42.3302C108.332 42.3798 108.703 42.351 108.941 42.281C109.195 42.199 109.741 42.1752 110.145 42.2179C110.548 42.2605 110.998 42.2537 111.126 42.1992C111.267 42.1462 111.67 42.0664 112.029 42.0227C112.4 41.9804 112.986 41.9743 113.335 42.0113C113.685 42.0483 114.04 42.0314 114.116 41.9578C114.204 41.8991 114.631 41.8491 115.08 41.8422C115.53 41.8353 115.999 41.7761 116.116 41.6933C116.232 41.624 116.951 41.5097 117.705 41.4534C118.459 41.3971 119.655 41.2788 120.346 41.175C121.05 41.0727 121.779 41.0001 121.967 41.0201C122.155 41.04 122.336 41.0046 122.385 40.9282C122.434 40.8518 122.708 40.8265 122.991 40.8563C123.287 40.8876 123.618 40.841 123.722 40.7568C123.828 40.6592 124.136 40.5694 124.396 40.5561C124.656 40.5428 125.151 40.4864 125.498 40.4278C125.842 40.3827 126.373 40.2484 126.682 40.1587C126.992 40.0554 127.519 39.9615 127.859 39.9568C128.201 39.9385 128.601 39.8856 128.756 39.834C128.893 39.8002 129.216 39.7114 129.512 39.6301L129.624 39.5994C129.96 39.5125 130.32 39.4553 130.427 39.4667C130.535 39.4781 130.797 39.4378 131.009 39.365C131.233 39.3071 131.525 39.2428 131.675 39.245C131.824 39.2472 132.167 39.2155 132.43 39.1753C132.693 39.135 133.073 39.012 133.274 38.9109C133.475 38.8098 133.881 38.7031 134.184 38.6671C134.488 38.6177 135.141 38.4828 135.644 38.3592C136.147 38.2355 136.71 38.0503 136.913 37.9357C137.114 37.8346 137.394 37.7555 137.542 37.7711C137.69 37.7868 137.968 37.7345 138.167 37.6468C138.366 37.5726 138.768 37.4928 139.07 37.4703C139.37 37.4612 139.694 37.3594 139.771 37.2724C139.85 37.1719 140.207 37.0057 140.559 36.8933C140.894 36.7988 141.436 36.6147 141.804 36.4899L141.855 36.4727C142.233 36.3632 142.611 36.2671 142.691 36.2756C142.784 36.299 143.039 36.2036 143.258 36.0635C143.489 35.9384 143.703 35.8386 143.757 35.8443C143.824 35.8514 144.118 35.7737 144.43 35.6571C144.74 35.5538 145.173 35.3141 145.395 35.1471C145.63 34.9816 146.059 34.7822 146.365 34.7193C146.669 34.6699 146.924 34.5744 146.931 34.5072C146.937 34.4534 147.184 34.3027 147.47 34.1698C147.769 34.0383 148.141 33.8735 148.297 33.8085C148.453 33.7434 148.854 33.5546 149.185 33.3855C149.529 33.2179 149.869 33.0907 149.936 33.0978C150.003 33.1049 150.09 33.0596 150.11 32.9938C150.144 32.9294 150.467 32.7051 150.844 32.4866C151.206 32.2801 152.019 31.7948 152.659 31.4001C153.284 31.0175 154.419 30.1855 155.179 29.5587C155.939 28.9319 156.571 28.3595 156.564 28.2908C156.573 28.2101 156.772 28 156.998 27.7926C157.237 27.5868 157.63 27.0844 157.865 26.6604C158.249 25.9938 158.334 25.7036 158.477 24.4811C158.559 23.7011 158.577 22.887 158.521 22.6498C158.464 22.4127 158.388 22.1054 158.336 21.9503C158.285 21.7953 158.118 21.3153 157.972 20.8919C157.795 20.3835 157.389 19.7151 156.752 18.9269C156.209 18.2711 155.569 17.5098 155.327 17.2259C155.072 16.9405 154.521 16.4879 154.1 16.2258C153.679 15.9636 153.17 15.6378 152.951 15.5194C152.734 15.3877 152.476 15.2516 152.371 15.2133C152.266 15.1751 151.879 14.9845 151.534 14.7712C151.174 14.57 150.683 14.3277 150.435 14.2334C150.185 14.1526 149.649 13.9464 149.259 13.7827C148.868 13.6189 148.332 13.4127 148.084 13.3184C147.835 13.2242 147.391 13.0548 147.103 12.9428C146.816 12.8308 146.224 12.6458 145.786 12.545C145.349 12.4309 144.638 12.2061 144.209 12.0247C143.779 11.8433 143.333 11.6873 143.228 11.6491L142.06 11.376C141.53 11.2518 141.108 11.1256 141.112 11.0853C141.116 11.0449 140.892 10.9804 140.626 10.9251C140.346 10.8683 139.721 10.7342 139.217 10.6129C138.728 10.4796 137.81 10.2873 137.155 10.1773C136.514 10.0687 135.973 9.91624 135.938 9.85818C135.903 9.80011 135.105 9.6341 134.142 9.4779C133.178 9.33516 131.831 9.08393 131.139 8.94274C130.447 8.80154 128.735 8.52536 127.329 8.32224C125.922 8.11912 124.693 7.90758 124.591 7.8424C124.491 7.76378 123.773 7.60629 122.997 7.48346C122.222 7.36063 121.194 7.17042 120.691 7.04913C120.199 6.94271 119.802 6.83282 119.807 6.79247C119.811 6.75212 119.875 6.66367 119.938 6.57522C120.017 6.47473 120.695 6.49203 122.201 6.65131L124.757 6.92152C124.965 6.95596 126.089 7.05312 127.363 7.16322L127.72 7.19404C129.217 7.31155 131.229 7.57866 132.549 7.82705C133.79 8.05345 135.418 8.34799 136.153 8.46656C136.887 8.59857 137.785 8.72075 138.162 8.76057C138.526 8.78551 138.899 8.86571 138.959 8.94007C139.019 9.01442 139.561 9.16686 140.148 9.26978C140.734 9.38616 141.507 9.53588 141.879 9.61604C142.238 9.69479 142.898 9.88694 143.33 10.0415C143.761 10.2094 144.408 10.4002 144.781 10.4669C145.142 10.5322 146.105 10.8109 146.893 11.071C147.682 11.3312 148.656 11.6382 149.052 11.7481C149.436 11.8431 149.776 11.9742 149.797 12.0309C149.817 12.101 149.934 12.1541 150.042 12.1655C150.149 12.1769 150.486 12.3349 150.795 12.5035C151.088 12.6842 151.57 12.8847 151.862 12.9564C152.154 13.028 152.399 13.1492 152.417 13.2327C152.424 13.3014 152.524 13.38 152.632 13.3914C152.739 13.4027 153.049 13.5579 153.316 13.7357C153.57 13.9121 153.866 14.0659 153.96 14.0758C154.041 14.0843 154.529 14.3536 155.013 14.6631C155.497 14.9727 155.899 15.2872 155.891 15.3679C155.884 15.4352 156.214 15.7829 156.627 16.1257C157.039 16.4685 157.738 17.1951 158.169 17.744C158.599 18.3062 159.051 19.0476 159.174 19.4278C159.299 19.7946 159.444 20.0955 159.511 20.1026C159.565 20.1083 159.638 20.4424 159.692 20.829C159.732 21.2275 159.833 21.687 159.911 21.8449C159.99 22.0028 160.008 22.3447 159.954 22.5974C159.914 22.8515 159.912 23.1234 159.971 23.2112C160.031 23.2855 159.997 23.9891 159.875 24.7649C159.765 25.5421 159.576 26.4333 159.473 26.7624C159.357 27.0901 159.114 27.5813 158.922 27.8601C158.742 28.1403 158.587 28.4503 158.579 28.531C158.569 28.6252 158.376 28.7815 158.136 28.8649C157.895 28.9484 157.701 29.1182 157.689 29.2257C157.678 29.3333 157.162 29.8364 156.553 30.3295C155.943 30.8226 155.433 31.2719 155.427 31.3257C155.42 31.3929 155.102 31.5768 154.687 31.7642C154.287 31.9531 153.816 32.1617 153.659 32.2267C153.488 32.3038 153.152 32.5266 152.9 32.7176C152.65 32.8952 152.07 33.2418 151.596 33.4773C151.122 33.7128 150.686 33.9795 150.622 34.0679C150.544 34.1684 150.374 34.232 150.226 34.2164C150.078 34.2008 149.951 34.2418 149.943 34.3224C149.934 34.4031 149.79 34.6055 149.608 34.7902C149.437 34.9897 149.275 35.1086 149.265 35.0668C149.256 35.0251 148.964 35.0893 148.626 35.2032C148.287 35.317 147.8 35.551 147.549 35.7421C147.312 35.921 147.013 36.0526 146.906 36.0277C146.8 36.0029 146.539 36.0297 146.329 36.0891C146.104 36.1604 145.855 36.3246 145.772 36.4654C145.689 36.6062 145.515 36.7102 145.407 36.6988C145.3 36.6874 145.169 36.7688 145.117 36.8721C145.058 37.0019 144.849 37.0478 144.491 37.0099C144.087 36.9672 143.919 37.0174 143.79 37.2077C143.707 37.3486 143.562 37.4285 143.499 37.381C143.436 37.3336 143.281 37.3852 143.189 37.4842C143.082 37.5953 142.897 37.671 142.791 37.6462C142.684 37.6348 142.348 37.7217 142.064 37.8412C141.765 37.9593 141.457 38.049 141.39 38.0419C141.322 38.0348 140.732 38.2172 140.095 38.4491C139.444 38.693 138.691 38.8717 138.407 38.8553C138.123 38.8389 137.845 38.8911 137.785 38.9527C137.722 39.0277 137.394 39.1698 137.042 39.2822C136.691 39.3946 136.261 39.4716 136.086 39.4531C135.911 39.4346 135.728 39.4968 135.692 39.5746C135.669 39.6674 135.513 39.7324 135.365 39.7168C135.217 39.7011 134.838 39.8107 134.522 39.9677C134.135 40.1579 133.76 40.2271 133.357 40.1845C133.007 40.1475 132.662 40.1926 132.528 40.3009C132.409 40.3971 132.077 40.4571 131.767 40.4244C131.458 40.3917 131.183 40.417 131.135 40.4935C131.086 40.5699 130.723 40.654 130.338 40.6948C129.94 40.7343 129.534 40.841 129.458 40.9146C129.381 41.0016 129.029 41.114 128.683 41.1726C128.335 41.2446 127.981 41.248 127.906 41.1857C127.816 41.1354 127.608 41.1813 127.447 41.2867C127.27 41.4176 127.076 41.4514 126.962 41.3714C126.846 41.3048 126.694 41.3295 126.587 41.4406C126.451 41.5757 126.175 41.6145 125.759 41.557C125.329 41.5115 125.108 41.5425 125.096 41.6501C125.086 41.7443 124.814 41.8787 124.493 41.9535C124.16 42.0136 123.528 42.0826 123.077 42.1029C122.66 42.1093 121.913 42.1393 121.36 42.1614L121.234 42.1665C120.674 42.1889 120.132 42.2948 120.055 42.3818C119.963 42.4809 119.548 42.5458 119.088 42.5244C118.64 42.5178 118.068 42.5253 117.835 42.5415C117.589 42.5562 117.377 42.629 117.369 42.7097C117.36 42.7904 117.092 42.8845 116.775 42.919C116.444 42.9656 116.083 43.0362 115.968 43.092C115.855 43.1345 115.359 43.1909 114.869 43.1935C114.38 43.1961 113.885 43.239 113.772 43.2814C113.657 43.3373 113.192 43.3697 112.742 43.3765C112.293 43.3834 111.749 43.3803 111.519 43.3696C111.289 43.3588 111.041 43.387 110.97 43.4203C110.898 43.4535 110.553 43.4987 110.211 43.5169C109.869 43.5351 109.378 43.5512 109.121 43.5376C108.864 43.5241 108.306 43.533 107.897 43.5441C107.487 43.5553 107.074 43.6067 107.001 43.6534C106.928 43.7001 106.57 43.7438 106.215 43.7607C105.847 43.7626 105.528 43.824 105.479 43.9005C105.43 43.9769 105.182 44.0051 104.927 43.9781C104.671 43.9511 104.314 43.9813 104.145 44.045C103.96 44.1206 103.6 44.1778 103.342 44.1777C103.083 44.1775 102.647 44.1858 102.389 44.1857C102.129 44.199 101.573 44.1811 101.167 44.1653C100.761 44.1495 100.338 44.1592 100.252 44.2045C100.152 44.2483 99.9381 44.2122 99.7838 44.1278C99.5772 44.0244 99.4398 44.0371 99.3329 44.1482C99.2557 44.2352 98.9095 44.2938 98.5704 44.2851C98.2328 44.263 97.8739 44.1843 97.7749 44.0922C97.6489 43.9973 97.6126 43.998 97.6658 44.0943C97.7111 44.1807 97.5638 44.2875 97.3656 44.3617C97.1553 44.4211 96.6194 44.4732 96.1713 44.4666C95.7218 44.4735 94.8674 44.4512 94.2728 44.4155C93.6782 44.3798 92.9462 44.3568 92.6475 44.3524C92.3488 44.348 92.0337 44.3691 91.9608 44.4158C91.8893 44.449 91.4518 44.4708 91.0023 44.4776C90.5542 44.4711 90.1153 44.5062 90.0438 44.5395C89.9708 44.5862 89.5036 44.632 89.0137 44.6346C88.5225 44.6506 87.8832 44.651 87.5859 44.6332C87.2886 44.6153 86.9736 44.6364 86.9007 44.6831C86.8291 44.7164 86.4171 44.7544 86.008 44.7655C85.6002 44.7632 85.2002 44.8161 85.111 44.8883C85.0367 44.9484 84.5065 44.9467 83.9281 44.8856C83.3498 44.8244 82.8479 44.8122 82.8153 44.8631C82.7679 44.9261 82.4854 44.8962 82.1684 44.8083C81.8109 44.7161 81.5256 44.7131 81.4081 44.7959C81.2608 44.9027 81.1397 44.8899 80.9119 44.7298C80.7066 44.6129 80.5601 44.5838 80.5112 44.6603C80.4624 44.7367 79.9859 44.7407 79.4465 44.6973C78.922 44.6418 78.2347 44.5827 77.9239 44.5635C77.6266 44.5456 77.267 44.6028 77.1374 44.6707C76.993 44.7506 76.7721 44.7817 76.6284 44.7257C76.4847 44.6697 76.3191 44.693 76.2568 44.768C76.1796 44.855 75.975 44.8606 75.7117 44.7784C75.447 44.7096 75.2707 44.7045 75.2622 44.7852C75.2536 44.8659 74.7369 44.8657 73.9703 44.7846C73.2709 44.7107 72.5658 44.6905 72.4094 44.7556C72.2529 44.8206 71.6526 44.8387 71.0849 44.8059C70.5051 44.7582 69.9601 44.7685 69.8886 44.8018C69.817 44.835 69.1778 44.8354 68.5011 44.8047C67.7019 44.7746 67.2475 44.6993 67.256 44.6186C67.2645 44.5379 67.1761 44.4742 67.0685 44.4628C66.9609 44.4514 66.7535 44.4839 66.6253 44.5383C66.4837 44.5914 65.7312 44.6342 64.9426 44.6324C64.1554 44.6172 63.0349 44.5395 62.4474 44.4366C61.845 44.3457 61.3042 44.3157 61.2015 44.3864C61.0988 44.4571 60.8942 44.4627 60.7506 44.4067C60.6069 44.3507 60.483 44.3648 60.4745 44.4455C60.4659 44.5262 59.7878 44.5089 58.7118 44.3951C57.7435 44.2928 56.8785 44.2421 56.7921 44.2873C56.6937 44.3177 56.1217 44.3252 55.5271 44.2896C54.9325 44.2539 53.2053 44.1256 51.6812 44.0053C50.1586 43.8715 47.3973 43.6203 45.525 43.4495C43.1161 43.2084 42.0748 43.1527 41.941 43.261C41.8369 43.3451 41.5636 43.3571 41.3513 43.3074C41.1404 43.2443 40.4764 43.0925 39.8918 42.9627C39.3086 42.8194 38.3473 42.6498 37.7556 42.5872C37.1638 42.5246 36.1657 42.4463 35.5307 42.4063C34.8958 42.3664 34.1773 42.3448 33.9429 42.3745C33.5727 42.4033 33.4949 42.3678 33.5162 42.1661C33.5323 42.0137 33.4908 41.9776 33.3917 42.0578C33.3024 42.1299 32.9782 42.1092 32.5549 41.9965C32.1706 41.9014 31.5562 41.7957 31.1782 41.7693C30.8151 41.7309 30.4179 41.7569 30.3301 41.8156C30.2006 41.8835 30.0583 41.8141 29.902 41.6207C29.7697 41.4572 29.5942 41.3162 29.5269 41.3091C29.4597 41.302 29.3882 41.3352 29.3825 41.389C29.3754 41.4563 28.9152 41.4348 28.3667 41.3496C27.7898 41.275 27.2348 41.1211 27.0848 40.9965C26.8584 40.8229 26.6715 40.7896 26.2432 40.8531C25.8418 40.9194 25.3591 40.8548 24.4304 40.6342C23.741 40.4661 22.8902 40.2809 22.5405 40.244C22.1788 40.1921 21.9021 40.1085 21.9106 40.0278C21.9191 39.9471 21.5348 39.852 21.0237 39.798C20.5261 39.7454 20.0759 39.6298 20.0038 39.5405C19.9316 39.4513 19.4723 39.2939 18.9803 39.1875C18.3001 39.0612 18.07 39.0505 18.0572 39.1715C18.0473 39.2657 17.9574 39.2154 17.852 39.0546C17.7365 38.8611 17.4919 38.7309 17.1181 38.6642C16.8102 38.6181 16.4513 38.5393 16.3183 38.5116C16.1986 38.4854 16.0458 38.3876 15.9991 38.3147C15.9538 38.2283 15.5695 38.1333 15.1526 38.0892C14.6011 38.0309 14.3393 37.9352 14.2353 37.761C14.154 37.63 13.8213 37.4316 13.4922 37.3288C13.1645 37.2126 12.6931 37.0403 12.4461 36.9326L12.4037 36.9165C12.1392 36.8162 11.6268 36.6218 11.2444 36.4656C10.8268 36.299 10.3526 36.1537 10.1912 36.1366C10.0163 36.1181 9.68863 36.0019 9.47279 35.8567C9.24208 35.7235 9.0199 35.5096 8.97891 35.3828C8.91528 35.2129 8.78363 35.1718 8.45515 35.1915C8.18048 35.2168 8.00849 35.1714 8.01702 35.0907C8.02555 35.01 7.76161 34.8053 7.42899 34.607C7.0815 34.4206 6.69794 34.1897 6.55711 34.1068C6.41628 34.0239 6.07447 33.7838 5.7985 33.5642C5.5211 33.3581 5.09292 33.1632 4.86571 33.1255C4.52948 33.09 4.35256 32.9625 4.10852 32.5695C3.92035 32.2912 3.66068 32.0461 3.51274 32.0305C3.36479 32.0149 3.16874 31.9397 3.08029 31.876C3.00528 31.8137 2.8638 31.6083 2.78956 31.4101C2.71533 31.2118 2.49742 30.9576 2.30564 30.8421C2.11385 30.7266 1.92426 30.4618 1.86774 30.2246C1.82467 29.9889 1.73272 29.8295 1.67608 29.8508C1.60456 29.884 1.39442 29.685 1.18996 29.4321C0.986918 29.1659 0.733696 28.7311 0.626224 28.4614C0.518751 28.1916 0.376619 27.8638 0.293851 27.7462C0.211083 27.6287 0.125591 27.2797 0.103081 26.9781C0.0805707 26.6765 0.0411145 26.278 0.00722734 26.084C-0.0132105 25.8914 0.0104429 25.2819 0.0687504 24.7305C0.153307 24.0595 0.333429 23.3849 0.623991 22.6949C0.873432 22.1365 1.15611 21.6496 1.25168 21.6461C1.33522 21.6277 1.43013 21.5018 1.44436 21.3673C1.4706 21.2476 1.68242 20.9164 1.9289 20.6433C2.17537 20.3702 2.45586 20.0327 2.5253 19.8904C2.60819 19.7496 2.88156 19.4793 3.14783 19.2762C3.40064 19.0718 3.61879 18.8093 3.63301 18.6748C3.64581 18.5537 3.72444 18.4532 3.79168 18.4604C3.87238 18.4689 4.62513 17.9093 5.48767 17.2117C6.35022 16.5142 7.12987 15.9574 7.22401 15.9674C7.30471 15.9759 7.56528 15.8267 7.80465 15.6208C8.02914 15.4269 8.30459 15.2657 8.41218 15.277C8.51977 15.2884 8.83557 15.1314 9.10041 14.9418C9.35322 14.7373 9.6407 14.591 9.70795 14.5981C9.77377 14.6186 10.137 14.3986 10.5045 14.1383C10.8721 13.878 11.3054 13.6382 11.4831 13.6298C11.6487 13.6065 11.7932 13.5266 11.8003 13.4593C11.8088 13.3787 11.8534 13.3426 11.9193 13.3631C11.9702 13.3957 12.2145 13.2719 12.4525 13.0795C12.7173 12.8899 13.0423 12.7747 13.2709 12.7989C13.4726 12.8202 13.7127 12.7368 13.8359 12.6002C13.9308 12.4742 14.4073 12.2118 14.8754 12.0301C15.3434 11.8484 15.7936 11.7056 15.8609 11.7128C15.9281 11.7199 16.1158 11.6173 16.2659 11.4836C16.4026 11.3485 16.6886 11.2155 16.9081 11.1979C17.1155 11.1655 17.3973 11.0728 17.5418 10.9929C17.6742 10.8981 17.8547 10.8628 17.9177 10.9103C17.9807 10.9577 18.0791 10.9273 18.1265 10.8644C18.1754 10.7879 18.4197 10.6642 18.6732 10.5822C18.9146 10.4853 19.2325 10.4373 19.367 10.4515C19.488 10.4643 19.5999 10.4354 19.607 10.3681C19.6127 10.3143 19.8272 10.2146 20.0658 10.1446C20.3193 10.0626 20.6563 9.96229 20.8113 9.91068C20.9678 9.84563 21.3792 9.68513 21.7339 9.54585C22.09 9.39311 22.4553 9.28215 22.5495 9.29211C22.6302 9.30064 22.7598 9.23272 22.837 9.14569C22.9021 9.04378 23.0749 8.95328 23.2271 8.92857C23.3793 8.90387 23.7836 8.81061 24.1326 8.72512C24.4802 8.65308 24.9248 8.56409 25.1443 8.5465C25.3503 8.52748 25.4947 8.44756 25.4615 8.37604C25.4297 8.29108 25.6307 8.18996 25.8934 8.14973C26.1575 8.09606 26.3904 8.07987 26.4158 8.09616C26.4399 8.1259 26.5709 8.04457 26.7062 7.92288C26.84 7.81464 27.1246 7.69513 27.3441 7.67754C27.5501 7.65852 27.9933 7.583 28.3409 7.51096C28.6885 7.43892 29.0361 7.36686 29.1062 7.34707C29.1749 7.34073 29.497 7.25241 29.8071 7.1492C30.1172 7.046 30.4393 6.95766 30.5094 6.93787C30.5795 6.91809 30.7869 6.88561 30.966 6.86375C31.1317 6.84047 31.2776 6.7471 31.2847 6.67985C31.2932 6.59915 31.5318 6.52921 31.8185 6.51872C32.0932 6.49337 32.593 6.39662 32.93 6.29625C33.255 6.18102 33.529 6.0332 33.5361 5.96596C33.5447 5.88526 33.6579 5.84284 33.779 5.85564C33.9135 5.86986 34.4911 5.80854 35.0582 5.7189C35.6267 5.61582 36.2922 5.49581 36.5145 5.45132C36.7382 5.39337 37.4079 5.233 37.9821 5.07612C38.5549 4.93268 39.226 4.75886 39.4483 4.71436C39.672 4.65642 40.3701 4.48546 40.9832 4.34629C41.5963 4.20713 42.1945 4.07998 42.3035 4.07791C42.414 4.06239 42.7559 4.04413 43.0561 4.03507C43.3576 4.01256 43.6514 3.93483 43.7138 3.85982C43.7761 3.78482 43.9326 3.71977 44.0671 3.734C44.203 3.73477 44.5506 3.66273 44.8458 3.57155C45.1276 3.47895 45.5141 3.42462 45.7024 3.44453C45.8907 3.46444 46.0727 3.41568 46.1201 3.3527C46.169 3.27627 46.3495 3.24096 46.5378 3.26087C46.7261 3.28078 47.0185 3.21651 47.2047 3.1274C47.3775 3.03688 47.8879 2.96845 48.3374 2.96159C48.7869 2.95472 49.3554 2.85163 49.5848 2.7399C49.8143 2.62816 50.1484 2.55469 50.3232 2.57318C50.4846 2.59024 50.9519 2.54445 51.3547 2.46465C51.7441 2.38343 52.2021 2.29585 52.3572 2.24425C52.5108 2.20609 53.0375 2.1122 53.5359 2.02891C54.0329 1.95906 54.709 1.86735 55.0509 1.8491C55.3942 1.81741 56.0151 1.73347 56.4314 1.6551C56.8477 1.57672 57.54 1.45952 57.9535 1.40804C58.3683 1.34311 59.0862 1.24223 59.5428 1.16812C59.998 1.10745 60.6174 1.03695 60.9162 1.04134C61.2163 1.03228 61.7763 1.0099 62.1465 0.981047C62.5316 0.940172 63.1631 0.884541 63.5602 0.858536C63.9453 0.817661 64.5633 0.760605 64.9201 0.730334C65.2918 0.688036 65.8829 0.628165 66.268 0.587289C66.6397 0.544991 67.1784 0.465968 67.4425 0.412293C67.7066 0.358618 68.5115 0.334917 69.2179 0.341621C69.9244 0.348326 70.6889 0.320376 70.9261 0.263856C71.1619 0.220786 71.8769 0.146779 72.5338 0.107448C73.2056 0.0560889 73.9822 0.0430078 74.2781 0.074295C74.574 0.105582 75.4163 0.113065 76.1405 0.0808438C76.8782 0.0500447 77.8459 0.0299669 78.294 0.0365493C78.7435 0.0296825 79.3558 0.0264511 79.6574 0.00394121C79.9575 -0.0051194 80.5415 0.00222389 80.9479 0.0179895C81.3528 0.0472044 83.1274 0.112459 84.8738 0.18832Z" fill="#F9E7F3"/>
</svg>
