<svg width="161" height="46" viewBox="0 0 161 46" fill="none" xmlns="http://www.w3.org/2000/svg">
<path d="M84.8837 1.12765C86.6315 1.19006 88.6737 1.29723 89.4148 1.362C90.1574 1.41331 91.9475 1.58899 93.3852 1.7546C94.8228 1.92022 96.5401 2.14262 97.2068 2.26753C97.8736 2.39243 98.7676 2.55495 99.2072 2.64223C99.6482 2.71606 100.937 3.00195 102.063 3.28423C103.191 3.55305 104.26 3.85652 104.441 3.94368C104.623 4.03084 104.979 4.13648 105.233 4.17695C105.488 4.20397 105.839 4.36341 106.014 4.50436C106.188 4.65877 106.658 4.84447 107.056 4.94093C107.455 5.02395 107.871 5.20393 107.967 5.3229C108.062 5.45532 108.187 5.56369 108.242 5.55593C108.309 5.56304 108.614 5.89448 108.951 6.31087C109.42 6.89086 109.53 7.13371 109.474 7.4133C109.433 7.66742 109.325 7.79198 109.134 7.79896C108.956 7.80737 108.692 7.60265 108.379 7.216C108.115 6.88883 107.67 6.46105 107.39 6.28183C107.111 6.08915 106.442 5.73277 105.909 5.49962C105.377 5.25303 104.511 4.95741 104.008 4.82268C103.506 4.68794 102.392 4.42054 101.554 4.2368C100.719 4.03961 99.5507 3.76652 98.9674 3.62325C98.2915 3.45657 95.9004 3.17654 92.3186 2.8386C89.2479 2.5547 86.3371 2.30132 85.8487 2.29047C85.3603 2.27962 84.6538 2.27291 84.285 2.2883C83.9041 2.28883 82.7779 2.26494 81.7755 2.22695C80.7718 2.20241 79.5124 2.15085 78.9999 2.11026C78.486 2.08311 77.4107 2.09182 76.6179 2.13037C75.825 2.16893 74.9607 2.24073 74.698 2.28096C74.4354 2.32118 73.9306 2.33581 73.5675 2.29742C73.2178 2.26044 72.8221 2.27299 72.6805 2.32601C72.5523 2.38046 72.0044 2.41773 71.4905 2.39059C70.9751 2.3769 70.1582 2.38571 69.679 2.41663C69.2132 2.44897 68.7651 2.44239 68.7021 2.39493C68.6391 2.34747 68.4841 2.39907 68.3771 2.51016C68.285 2.60922 68.0465 2.67919 67.861 2.63238C67.6742 2.59902 67.2515 2.60873 66.9053 2.66733C66.5592 2.72592 65.7606 2.81826 65.1171 2.85902C64.4736 2.89977 63.7063 2.95464 63.4061 2.9637C63.1059 2.97276 62.7045 3.0391 62.5063 3.11333C62.3081 3.18757 62.1141 3.22147 62.0511 3.17401C62.0001 3.14143 61.7 3.15047 61.3672 3.21048C61.0494 3.25847 60.6671 3.27246 60.5206 3.24336C60.3741 3.21427 60.1504 3.27221 60.03 3.38187C59.8813 3.50214 59.5903 3.55298 59.1613 3.49402C58.8116 3.45705 58.3593 3.49082 58.1327 3.57567C57.9196 3.66193 57.2032 3.74935 56.5222 3.75894C55.8398 3.78198 55.1248 3.85597 54.8982 3.94081C54.6851 4.02707 54.3941 4.07791 54.2462 4.06227C54.0982 4.04663 53.6805 4.13844 53.3017 4.24798C52.935 4.3724 52.271 4.47898 51.8186 4.51274C51.3677 4.53306 50.7765 4.59296 50.5125 4.64663C50.2484 4.70031 49.9277 4.77519 49.8144 4.81762C49.7011 4.86004 49.2877 4.91152 48.9189 4.92692C48.5366 4.9409 48.1635 4.99663 48.0906 5.04332C48.0162 5.10345 47.6969 5.16489 47.3954 5.1874C47.0938 5.20991 46.691 5.28971 46.4913 5.37739C46.2931 5.45163 45.9483 5.49677 45.7331 5.47402C45.5179 5.45126 44.9466 5.58125 44.48 5.74951C44.012 5.93122 43.4421 6.04775 43.2135 6.02357C42.9983 6.00081 42.7505 6.02902 42.6627 6.08774C42.5883 6.14787 42.1303 6.23542 41.6362 6.27837C41.1434 6.30787 40.5495 6.39466 40.3243 6.46605C40.0992 6.53744 39.3657 6.78628 38.7009 7.02877C38.0375 7.25781 37.1291 7.48815 36.6782 7.50846C36.2258 7.54223 35.7827 7.61777 35.7083 7.67791C35.634 7.73804 35.2311 7.81784 34.834 7.84384C34.4206 7.89532 34.0836 7.99569 34.0304 8.11246C33.9773 8.22924 33.8505 8.27025 33.7083 8.20081C33.5915 8.14766 33.3841 8.18012 33.2623 8.30324C33.1419 8.4129 32.836 8.47577 32.5954 8.43672C32.3667 8.41254 32.1593 8.44499 32.1508 8.52569C32.1436 8.59294 31.9709 8.68346 31.7514 8.70106C31.5454 8.72007 31.0831 8.84799 30.7001 8.99788C30.3319 9.13575 30.0098 9.22408 29.9737 9.17946C29.9376 9.13485 29.6735 9.18851 29.3783 9.27969C29.0965 9.37229 28.8268 9.47978 28.7821 9.51586C28.7361 9.56539 28.5825 9.60355 28.4317 9.6148C28.2809 9.62606 28.0678 9.71231 27.9637 9.7965C27.8582 9.89414 27.6479 9.95352 27.4999 9.93787C27.3655 9.92365 27.027 10.0374 26.765 10.2001C26.5165 10.3643 26.2078 10.454 26.1059 10.3889C26.0026 10.3371 25.6578 10.3823 25.3463 10.4989C25.0362 10.6021 24.6291 10.7223 24.4365 10.7427C24.2425 10.7766 23.8864 10.9293 23.6513 11.0949C23.4162 11.2604 23.1181 11.3785 23.0105 11.3671C22.9029 11.3557 22.5822 11.4306 22.3125 11.5381C22.0441 11.6321 21.6582 11.8089 21.4557 11.9235C21.2546 12.0246 20.9877 12.1052 20.8532 12.091C20.7322 12.0782 20.1566 12.2485 19.5902 12.4606C19.0358 12.6876 18.4099 12.9478 18.2074 13.0624C18.0049 13.1769 17.7365 13.271 17.6035 13.2433C17.4824 13.2305 17.3691 13.2729 17.3606 13.3536C17.3535 13.4209 17.2657 13.4796 17.1716 13.4696C17.0909 13.4611 16.7121 13.5706 16.329 13.7205C15.9595 13.8718 15.6359 13.9736 15.6118 13.9439C15.5729 13.9261 15.044 14.1694 14.4259 14.4848C13.778 14.8243 13.0714 15.076 12.7564 15.0971C12.4548 15.1196 12.1327 15.2079 12.054 15.3084C11.9754 15.4089 11.8189 15.474 11.7234 15.4775C11.6427 15.4689 11.5563 15.5142 11.5478 15.5949C11.5407 15.6621 11.4394 15.7194 11.3318 15.708C11.2108 15.6952 10.8921 15.8791 10.5961 16.1062C10.3136 16.3348 10.0218 16.5215 9.95458 16.5144C9.87388 16.5058 9.7549 16.6021 9.67486 16.716C9.60684 16.8448 9.24359 17.0648 8.874 17.2161C8.50441 17.3674 7.85226 17.7473 7.40896 18.0812C6.96709 18.4016 5.95725 19.206 5.15562 19.842C4.35256 20.4915 3.4886 21.2025 3.24497 21.4488C3.00134 21.695 2.70883 22.0176 2.59762 22.1691C2.49986 22.3219 2.25261 22.731 2.0514 23.0905C1.83816 23.4351 1.55897 24.0176 1.41156 24.3828C1.21384 24.8379 1.11803 25.3582 1.09219 26.117C1.06001 26.8072 1.13051 27.4266 1.2641 27.8351C1.38994 28.1884 1.47401 28.5509 1.46548 28.6316C1.45552 28.7257 1.58213 28.9431 1.75478 29.111C1.92742 29.2788 2.0583 29.4559 2.05261 29.5097C2.0455 29.5769 2.27117 29.8864 2.54922 30.215C2.84071 30.545 3.21924 30.9522 3.39189 31.1201C3.56453 31.2879 4.03579 31.7185 4.42001 32.0719C4.80281 32.4388 5.13891 32.7328 5.17926 32.737C5.21961 32.7413 5.49701 32.9474 5.80906 33.2116C6.12112 33.4758 6.41196 33.6834 6.46576 33.689C6.533 33.6961 6.64694 33.7762 6.73113 33.8803C6.81532 33.9844 6.99365 34.0984 7.11327 34.1247C7.23289 34.1509 7.61931 34.355 7.9774 34.5697C8.32204 34.7829 8.82381 35.0535 9.07081 35.1613C9.31639 35.2824 9.65896 35.3867 9.82035 35.4037C9.9952 35.4222 10.1509 35.4931 10.1827 35.578C10.2145 35.663 10.4544 35.8379 10.712 35.974C10.9817 36.1249 11.4651 36.312 11.7942 36.4148C12.1233 36.5176 12.7922 36.7515 13.3039 36.928C13.8142 37.118 14.277 37.3709 14.3584 37.5019C14.4383 37.6464 14.5161 37.6818 14.553 37.5905C14.5913 37.4858 14.7003 37.4837 14.931 37.6169C15.1122 37.704 15.3443 37.8238 15.4505 37.8486C15.5552 37.8869 16.004 38.0159 16.4421 38.1166C16.8788 38.2308 17.2992 38.3705 17.3622 38.4179C17.4252 38.4654 17.8216 38.5753 18.2194 38.6718C18.6172 38.7682 19.0121 38.8916 19.0751 38.939C19.1366 38.9999 19.6526 39.1361 20.1984 39.2482C20.7455 39.3469 21.3825 39.4958 21.5935 39.5589C21.8044 39.6221 22.4428 39.7575 22.9886 39.8697C23.5357 39.9683 24.5182 40.1946 25.1807 40.3599C25.8418 40.5386 27.1604 40.8004 28.1111 40.9417C29.0617 41.083 30.2353 41.3023 30.7124 41.4208C31.1908 41.5258 32.179 41.6982 32.9173 41.7899C33.6556 41.8816 37.1375 42.2633 40.6478 42.6345C44.158 43.0057 47.9819 43.3692 49.1293 43.4498L49.4312 43.4674C50.5226 43.5312 51.7924 43.6055 52.3742 43.6297C53.0106 43.6562 53.9174 43.6977 54.4044 43.722C54.8914 43.7463 56.0148 43.7971 56.9068 43.8506C57.8001 43.8906 58.7472 43.9364 59.007 43.9231C59.2654 43.9232 60.6323 43.9861 62.053 44.0548C63.4737 44.1234 64.8944 44.192 65.2349 44.1872C65.574 44.1959 66.3343 44.2083 66.9303 44.2305C67.5264 44.2527 68.3808 44.2751 68.8288 44.2817C69.2425 44.3002 69.9021 44.3098 70.3533 44.3163L70.457 44.3178C70.9037 44.3378 72.2494 44.3442 73.4443 44.3617C74.6392 44.3793 75.6472 44.3634 75.6904 44.3408C75.7336 44.3182 76.3311 44.327 77.0078 44.3577C77.698 44.3899 78.3103 44.3866 78.3669 44.3654C78.4385 44.3322 78.997 44.3233 79.6348 44.3363C80.2726 44.3494 80.9344 44.3921 81.1213 44.4255C81.3082 44.4589 81.825 44.4591 82.2759 44.4388C82.7283 44.405 83.6422 44.3793 84.3231 44.3697C85.0041 44.3601 85.9449 44.3372 86.4362 44.3211C86.9275 44.3051 87.8683 44.2821 88.5493 44.2726C89.2303 44.263 89.9977 44.2081 90.2603 44.1679C90.523 44.1277 91.0426 44.101 91.4234 44.1005C91.789 44.112 92.8324 44.1273 93.7279 44.1405L93.7311 44.1405C94.6273 44.1537 95.4889 44.1088 95.6453 44.0437C95.8004 43.9921 96.0885 43.9682 96.2874 44.0164C96.4863 44.0646 96.6611 44.0831 96.6654 44.0428C96.6697 44.0024 97.5475 43.9321 98.6136 43.8816C99.6946 43.8191 100.788 43.7715 101.047 43.7582C101.307 43.7448 101.797 43.7422 102.136 43.7509C102.474 43.773 103.105 43.7174 103.535 43.6404C103.978 43.5649 104.404 43.5283 104.467 43.5757C104.53 43.6232 104.68 43.6119 104.77 43.5398C104.871 43.4825 105.584 43.4219 106.361 43.4088C107.124 43.3943 107.756 43.3387 107.763 43.2715C107.768 43.2177 107.931 43.2213 108.13 43.2695C108.342 43.3192 108.713 43.2903 108.951 43.2204C109.205 43.1384 109.751 43.1146 110.155 43.1572C110.558 43.1999 111.008 43.193 111.136 43.1386C111.277 43.0855 111.68 43.0057 112.038 42.962C112.41 42.9197 112.996 42.9136 113.345 42.9506C113.695 42.9876 114.05 42.9708 114.126 42.8972C114.214 42.8385 114.641 42.7884 115.09 42.7815C115.54 42.7747 116.008 42.7154 116.126 42.6326C116.242 42.5633 116.961 42.449 117.715 42.3927C118.469 42.3365 119.665 42.2181 120.356 42.1143C121.06 42.012 121.789 41.9395 121.977 41.9594C122.165 41.9793 122.346 41.944 122.395 41.8675C122.444 41.7911 122.718 41.7658 123.001 41.7956C123.297 41.8269 123.628 41.7803 123.732 41.6962C123.838 41.5985 124.146 41.5088 124.406 41.4954C124.666 41.4821 125.161 41.4257 125.508 41.3671C125.852 41.322 126.383 41.1877 126.692 41.098C127.002 40.9948 127.529 40.9009 127.869 40.8961C128.211 40.8778 128.611 40.8249 128.766 40.7733C128.902 40.7395 129.226 40.6507 129.522 40.5694L129.634 40.5387C129.97 40.4518 130.329 40.3946 130.437 40.406C130.545 40.4174 130.807 40.3772 131.019 40.3043C131.243 40.2464 131.535 40.1821 131.684 40.1843C131.834 40.1865 132.177 40.1548 132.44 40.1146C132.703 40.0744 133.083 39.9514 133.284 39.8502C133.485 39.7491 133.891 39.6424 134.194 39.6064C134.498 39.557 135.151 39.4221 135.654 39.2985C136.157 39.1748 136.72 38.9897 136.923 38.8751C137.124 38.7739 137.404 38.6948 137.552 38.7104C137.7 38.7261 137.978 38.6738 138.177 38.5861C138.376 38.5119 138.778 38.4321 139.08 38.4096C139.38 38.4005 139.704 38.2987 139.781 38.2117C139.86 38.1112 140.217 37.945 140.569 37.8327C140.904 37.7382 141.446 37.554 141.814 37.4293L141.865 37.4121C142.243 37.3025 142.621 37.2064 142.701 37.215C142.794 37.2384 143.049 37.1429 143.268 37.0029C143.499 36.8777 143.713 36.778 143.767 36.7837C143.834 36.7908 144.128 36.713 144.44 36.5964C144.75 36.4932 145.183 36.2534 145.405 36.0865C145.64 35.9209 146.069 35.7215 146.375 35.6586C146.679 35.6092 146.934 35.5138 146.941 35.4465C146.947 35.3927 147.194 35.2421 147.48 35.1091C147.779 34.9776 148.15 34.8128 148.307 34.7478C148.463 34.6827 148.864 34.4939 149.195 34.3249C149.539 34.1573 149.879 34.03 149.946 34.0371C150.013 34.0442 150.1 33.999 150.12 33.9331C150.154 33.8687 150.477 33.6445 150.854 33.4259C151.216 33.2194 152.029 32.7342 152.669 32.3395C153.294 31.9568 154.429 31.1249 155.189 30.498C155.949 29.8712 156.581 29.2988 156.574 29.2301C156.583 29.1494 156.782 28.9393 157.008 28.732C157.247 28.5261 157.64 28.0237 157.875 27.5998C158.259 26.9331 158.344 26.6429 158.487 25.4205C158.569 24.6404 158.587 23.8263 158.531 23.5892C158.474 23.352 158.398 23.0447 158.346 22.8897C158.295 22.7346 158.128 22.2546 157.982 21.8312C157.805 21.3228 157.399 20.6544 156.762 19.8662C156.219 19.2105 155.579 18.4492 155.337 18.1652C155.082 17.8798 154.531 17.4272 154.11 17.1651C153.689 16.903 153.179 16.5771 152.961 16.4588C152.744 16.327 152.486 16.191 152.381 16.1527C152.276 16.1144 151.889 15.9238 151.544 15.7106C151.184 15.5094 150.693 15.267 150.445 15.1728C150.195 15.0919 149.659 14.8857 149.269 14.722C148.878 14.5583 148.342 14.352 148.094 14.2578C147.845 14.1635 147.401 13.9941 147.113 13.8821C146.826 13.7701 146.234 13.5851 145.795 13.4844C145.359 13.3702 144.648 13.1454 144.219 12.964C143.789 12.7826 143.343 12.6267 143.238 12.5884L142.07 12.3153C141.54 12.1912 141.118 12.0649 141.122 12.0246C141.126 11.9843 140.902 11.9197 140.636 11.8644C140.356 11.8076 139.731 11.6736 139.227 11.5523C138.738 11.4189 137.82 11.2267 137.165 11.1166C136.524 11.008 135.983 10.8556 135.948 10.7975C135.913 10.7394 135.115 10.5734 134.152 10.4172C133.188 10.2745 131.841 10.0233 131.149 9.88207C130.457 9.74087 128.745 9.46469 127.338 9.26157C125.932 9.05845 124.703 8.84691 124.601 8.78173C124.501 8.70311 123.783 8.54562 123.007 8.42279C122.232 8.29996 121.204 8.10975 120.7 7.98846C120.209 7.88204 119.812 7.77215 119.816 7.7318C119.821 7.69145 119.884 7.603 119.948 7.51455C120.027 7.41406 120.705 7.43137 122.211 7.59064L124.767 7.86085C124.975 7.89529 126.099 7.99245 127.373 8.10255L127.73 8.13337C129.227 8.25088 131.239 8.51799 132.559 8.76638C133.8 8.99278 135.428 9.28732 136.163 9.40589C136.897 9.5379 137.795 9.66008 138.172 9.6999C138.536 9.72485 138.909 9.80504 138.969 9.8794C139.029 9.95375 139.57 10.1062 140.158 10.2091C140.744 10.3255 141.517 10.4752 141.889 10.5554C142.248 10.6341 142.908 10.8263 143.34 10.9808C143.771 11.1488 144.418 11.3395 144.791 11.4062C145.152 11.4715 146.115 11.7502 146.903 12.0104C147.692 12.2705 148.666 12.5775 149.062 12.6874C149.446 12.7824 149.786 12.9136 149.807 12.9702C149.827 13.0403 149.944 13.0934 150.052 13.1048C150.159 13.1162 150.496 13.2742 150.805 13.4428C151.098 13.6235 151.58 13.8241 151.872 13.8957C152.163 13.9673 152.409 14.0885 152.427 14.172C152.434 14.2407 152.534 14.3193 152.642 14.3307C152.749 14.3421 153.059 14.4972 153.326 14.675C153.58 14.8514 153.876 15.0052 153.97 15.0151C154.051 15.0237 154.539 15.2929 155.023 15.6025C155.507 15.9121 155.909 16.2266 155.901 16.3073C155.894 16.3745 156.224 16.7222 156.637 17.0651C157.049 17.4079 157.747 18.1345 158.179 18.6833C158.609 19.2456 159.061 19.987 159.184 20.3671C159.309 20.7339 159.454 21.0348 159.521 21.0419C159.575 21.0476 159.648 21.3818 159.702 21.7683C159.742 22.1669 159.843 22.6263 159.921 22.7842C160 22.9421 160.018 23.284 159.964 23.5367C159.924 23.7908 159.922 24.0627 159.981 24.1505C160.041 24.2249 160.007 24.9285 159.885 25.7043C159.775 26.4815 159.586 27.3726 159.483 27.7018C159.367 28.0295 159.124 28.5206 158.932 28.7994C158.752 29.0797 158.597 29.3897 158.589 29.4703C158.579 29.5645 158.385 29.7209 158.145 29.8043C157.905 29.8877 157.711 30.0575 157.699 30.1651C157.688 30.2727 157.172 30.7757 156.563 31.2688C155.953 31.762 155.443 32.2112 155.437 32.265C155.43 32.3323 155.112 32.5162 154.697 32.7036C154.297 32.8924 153.826 33.101 153.669 33.166C153.498 33.2431 153.162 33.466 152.91 33.657C152.66 33.8345 152.08 34.1811 151.606 34.4166C151.132 34.6521 150.696 34.9188 150.632 35.0073C150.554 35.1077 150.384 35.1714 150.236 35.1557C150.088 35.1401 149.961 35.1811 149.953 35.2618C149.944 35.3425 149.8 35.5449 149.617 35.7295C149.447 35.9291 149.285 36.0479 149.275 36.0062C149.266 35.9644 148.974 36.0287 148.635 36.1425C148.297 36.2563 147.81 36.4904 147.559 36.6814C147.322 36.8604 147.022 36.9919 146.916 36.9671C146.81 36.9423 146.549 36.969 146.339 37.0284C146.114 37.0998 145.865 37.2639 145.782 37.4047C145.699 37.5456 145.525 37.6495 145.417 37.6382C145.31 37.6268 145.179 37.7081 145.127 37.8115C145.068 37.9412 144.859 37.9871 144.501 37.9492C144.097 37.9065 143.929 37.9567 143.8 38.1471C143.717 38.2879 143.572 38.3678 143.509 38.3204C143.446 38.2729 143.291 38.3245 143.199 38.4236C143.092 38.5347 142.907 38.6103 142.801 38.5855C142.694 38.5741 142.358 38.661 142.074 38.7805C141.775 38.8986 141.467 38.9884 141.399 38.9813C141.332 38.9741 140.742 39.1565 140.105 39.3884C139.454 39.6323 138.701 39.811 138.417 39.7946C138.133 39.7782 137.855 39.8305 137.794 39.892C137.732 39.967 137.404 40.1092 137.052 40.2216C136.701 40.3339 136.271 40.4109 136.096 40.3924C135.921 40.3739 135.738 40.4361 135.702 40.514C135.679 40.6067 135.522 40.6718 135.375 40.6561C135.227 40.6405 134.848 40.75 134.532 40.907C134.145 41.0972 133.77 41.1665 133.367 41.1238C133.017 41.0868 132.672 41.132 132.538 41.2402C132.419 41.3364 132.087 41.3964 131.777 41.3637C131.468 41.331 131.193 41.3564 131.145 41.4328C131.096 41.5092 130.733 41.5933 130.348 41.6342C129.949 41.6736 129.544 41.7803 129.468 41.8539C129.391 41.9409 129.039 42.0533 128.693 42.1119C128.345 42.184 127.991 42.1873 127.916 42.125C127.826 42.0747 127.617 42.1206 127.457 42.226C127.28 42.3569 127.086 42.3908 126.972 42.3107C126.856 42.2441 126.704 42.2688 126.597 42.3799C126.461 42.5151 126.184 42.5539 125.769 42.4963C125.339 42.4508 125.118 42.4819 125.106 42.5895C125.096 42.6836 124.824 42.818 124.503 42.8929C124.17 42.9529 123.537 43.022 123.087 43.0423C122.67 43.0486 121.923 43.0786 121.37 43.1008L121.244 43.1058C120.684 43.1282 120.142 43.2341 120.065 43.3212C119.973 43.4202 119.558 43.4851 119.098 43.4637C118.65 43.4571 118.078 43.4646 117.845 43.4808C117.599 43.4956 117.387 43.5684 117.378 43.6491C117.37 43.7298 117.102 43.8238 116.785 43.8583C116.454 43.9049 116.093 43.9755 115.978 44.0314C115.865 44.0738 115.369 44.1302 114.879 44.1328C114.39 44.1354 113.895 44.1784 113.782 44.2208C113.667 44.2766 113.202 44.309 112.752 44.3159C112.303 44.3227 111.759 44.3196 111.529 44.3089C111.299 44.2982 111.051 44.3264 110.98 44.3596C110.908 44.3928 110.563 44.438 110.221 44.4562C109.879 44.4745 109.388 44.4905 109.131 44.477C108.874 44.4634 108.316 44.4723 107.907 44.4835C107.497 44.4946 107.084 44.5461 107.011 44.5927C106.938 44.6394 106.58 44.6832 106.224 44.7C105.857 44.7019 105.538 44.7634 105.489 44.8398C105.44 44.9162 105.192 44.9444 104.937 44.9174C104.681 44.8904 104.324 44.9207 104.154 44.9843C103.97 45.0599 103.61 45.1171 103.352 45.117C103.093 45.1169 102.657 45.1252 102.399 45.125C102.139 45.1384 101.583 45.1204 101.177 45.1046C100.771 45.0889 100.348 45.0986 100.262 45.1438C100.162 45.1877 99.9481 45.1515 99.7938 45.0672C99.5871 44.9637 99.4498 44.9764 99.3429 45.0875C99.2657 45.1745 98.9195 45.2331 98.5804 45.2245C98.2427 45.2024 97.8839 45.1236 97.7848 45.0315C97.6589 44.9366 97.6225 44.9373 97.6758 45.0336C97.7211 45.12 97.5738 45.2268 97.3755 45.3011C97.1652 45.3604 96.6293 45.4126 96.1813 45.406C95.7317 45.4128 94.8773 45.3905 94.2827 45.3548C93.6881 45.3191 92.9562 45.2961 92.6574 45.2917C92.3587 45.2873 92.0437 45.3084 91.9707 45.3551C91.8992 45.3884 91.4617 45.4101 91.0122 45.417C90.5641 45.4104 90.1252 45.4456 90.0537 45.4788C89.9808 45.5255 89.5136 45.5713 89.0237 45.5739C88.5324 45.5899 87.8932 45.5903 87.5959 45.5725C87.2986 45.5547 86.9835 45.5758 86.9106 45.6224C86.8391 45.6557 86.4271 45.6937 86.0179 45.7048C85.6102 45.7025 85.2102 45.7554 85.121 45.8276C85.0466 45.8877 84.5164 45.8861 83.9381 45.8249C83.3598 45.7638 82.8579 45.7515 82.8253 45.8024C82.7778 45.8654 82.4954 45.8355 82.1783 45.7476C81.8209 45.6554 81.5356 45.6525 81.418 45.7352C81.2707 45.842 81.1497 45.8293 80.9218 45.6692C80.7166 45.5523 80.5701 45.5232 80.5212 45.5996C80.4723 45.676 79.9959 45.68 79.4565 45.6366C78.932 45.5811 78.2447 45.5221 77.9339 45.5028C77.6366 45.485 77.2769 45.5421 77.1474 45.61C77.0029 45.69 76.782 45.721 76.6384 45.665C76.4947 45.609 76.329 45.6323 76.2667 45.7073C76.1895 45.7944 75.9849 45.7999 75.7216 45.7177C75.4569 45.6489 75.2806 45.6438 75.2721 45.7245C75.2636 45.8052 74.7468 45.805 73.9802 45.7239C73.2808 45.65 72.5758 45.6298 72.4193 45.6949C72.2628 45.7599 71.6625 45.7781 71.0948 45.7452C70.5151 45.6975 69.97 45.7079 69.8985 45.7411C69.827 45.7743 69.1878 45.7748 68.511 45.744C67.7118 45.7139 67.2574 45.6387 67.2659 45.558C67.2745 45.4773 67.186 45.4135 67.0784 45.4021C66.9708 45.3908 66.7634 45.4232 66.6352 45.4777C66.4936 45.5307 65.7411 45.5735 64.9525 45.5717C64.1654 45.5565 63.0448 45.4788 62.4573 45.3759C61.8549 45.285 61.3141 45.255 61.2115 45.3257C61.1088 45.3965 60.9042 45.402 60.7605 45.3461C60.6168 45.2901 60.4929 45.3042 60.4844 45.3849C60.4759 45.4656 59.7977 45.4482 58.7218 45.3345C57.7534 45.2321 56.8884 45.1814 56.802 45.2267C56.7036 45.2571 56.1316 45.2646 55.537 45.2289C54.9424 45.1932 53.2152 45.065 51.6912 44.9446C50.1686 44.8108 47.4072 44.5596 45.5349 44.3889C43.1261 44.1478 42.0848 44.092 41.9509 44.2003C41.8468 44.2845 41.5736 44.2964 41.3612 44.2467C41.1503 44.1836 40.4864 44.0318 39.9017 43.902C39.3185 43.7587 38.3573 43.5891 37.7655 43.5265C37.1737 43.464 36.1756 43.3856 35.5407 43.3457C34.9057 43.3057 34.1872 43.2842 33.9529 43.3138C33.5827 43.3426 33.5048 43.3072 33.5261 43.1054C33.5423 42.953 33.5007 42.9169 33.4016 42.9971C33.3124 43.0692 32.9882 43.0486 32.5649 42.9358C32.1806 42.8408 31.5662 42.735 31.1882 42.7086C30.825 42.6702 30.4279 42.6962 30.3401 42.7549C30.2105 42.8228 30.0683 42.7534 29.9119 42.5601C29.7796 42.3965 29.6041 42.2556 29.5369 42.2484C29.4696 42.2413 29.3981 42.2746 29.3924 42.3284C29.3853 42.3956 28.9252 42.3741 28.3766 42.2889C27.7997 42.2143 27.2448 42.0605 27.0948 41.9358C26.8683 41.7623 26.6815 41.7289 26.2532 41.7924C25.8518 41.8588 25.369 41.7941 24.4404 41.5735C23.751 41.4054 22.9002 41.2203 22.5505 41.1833C22.1888 41.1314 21.912 41.0478 21.9206 40.9671C21.9291 40.8864 21.5447 40.7914 21.0337 40.7373C20.536 40.6847 20.0859 40.5691 20.0137 40.4799C19.9416 40.3906 19.4822 40.2333 18.9903 40.1268C18.3101 40.0005 18.08 39.9898 18.0672 40.1108C18.0572 40.205 17.9674 40.1547 17.862 39.9939C17.7464 39.8004 17.5018 39.6703 17.1281 39.6035C16.8202 39.5574 16.4613 39.4786 16.3282 39.451C16.2086 39.4247 16.0557 39.327 16.0091 39.254C15.9638 39.1677 15.5794 39.0726 15.1625 39.0285C14.6111 38.9702 14.3492 38.8745 14.2452 38.7003C14.1639 38.5693 13.8313 38.371 13.5022 38.2682C13.1745 38.1519 12.7031 37.9797 12.4561 37.872L12.4136 37.8558C12.1492 37.7555 11.6368 37.5612 11.2543 37.4049C10.8367 37.2383 10.3625 37.093 10.2011 37.0759C10.0263 37.0575 9.69858 36.9412 9.48274 36.796C9.25203 36.6628 9.02985 36.4489 8.98885 36.3222C8.92522 36.1522 8.79357 36.1111 8.4651 36.1308C8.19043 36.1562 8.01844 36.1108 8.02697 36.0301C8.0355 35.9494 7.77155 35.7447 7.43894 35.5463C7.09145 35.36 6.70789 35.129 6.56705 35.0461C6.42622 34.9632 6.08442 34.7231 5.80845 34.5035C5.53105 34.2974 5.10287 34.1025 4.87566 34.0649C4.53942 34.0293 4.36251 33.9018 4.11847 33.5088C3.9303 33.2305 3.67063 32.9855 3.52268 32.9698C3.37474 32.9542 3.17869 32.8791 3.09024 32.8153C3.01523 32.753 2.87375 32.5476 2.79951 32.3494C2.72528 32.1511 2.50737 31.8969 2.31559 31.7814C2.1238 31.6659 1.93421 31.4011 1.87769 31.1639C1.83462 30.9282 1.74267 30.7689 1.68603 30.7901C1.61451 30.8233 1.40437 30.6243 1.19991 30.3715C0.996866 30.1052 0.743644 29.6705 0.636172 29.4007C0.5287 29.1309 0.386568 28.8031 0.3038 28.6856C0.221032 28.568 0.13554 28.219 0.11303 27.9174C0.0905194 27.6159 0.0510632 27.2173 0.0171761 27.0233C-0.00326179 26.8308 0.0203916 26.2213 0.0786992 25.6699C0.163255 24.9988 0.343378 24.3243 0.63394 23.6342C0.883381 23.0758 1.16606 22.5889 1.26163 22.5854C1.34517 22.5671 1.44008 22.4411 1.4543 22.3066C1.48055 22.187 1.69237 21.8558 1.93885 21.5826C2.18532 21.3095 2.4658 20.972 2.53524 20.8297C2.61813 20.6889 2.89151 20.4186 3.15778 20.2156C3.41059 20.0111 3.62874 19.7486 3.64296 19.6141C3.65576 19.4931 3.73438 19.3926 3.80163 19.3997C3.88233 19.4082 4.63508 18.8486 5.49762 18.1511C6.36016 17.4535 7.13981 16.8967 7.23396 16.9067C7.31466 16.9152 7.57523 16.766 7.8146 16.5601C8.03909 16.3662 8.31453 16.205 8.42213 16.2164C8.52972 16.2277 8.84552 16.0707 9.11036 15.8811C9.36317 15.6767 9.65065 15.5303 9.71789 15.5374C9.78372 15.558 10.147 15.338 10.5145 15.0776C10.882 14.8173 11.3153 14.5775 11.493 14.5691C11.6587 14.5458 11.8031 14.4659 11.8102 14.3987C11.8188 14.318 11.8634 14.2819 11.9292 14.3024C11.9802 14.335 12.2245 14.2113 12.4624 14.0188C12.7272 13.8293 13.0522 13.714 13.2809 13.7382C13.4826 13.7595 13.7226 13.6761 13.8458 13.5395C13.9408 13.4136 14.4173 13.1512 14.8853 12.9695C15.3533 12.7878 15.8036 12.645 15.8708 12.6521C15.9381 12.6592 16.1257 12.5567 16.2759 12.4229C16.4125 12.2878 16.6986 12.1548 16.918 12.1372C17.1255 12.1048 17.4073 12.0122 17.5517 11.9322C17.6841 11.8375 17.8647 11.8022 17.9276 11.8496C17.9906 11.8971 18.089 11.8667 18.1365 11.8037C18.1854 11.7273 18.4296 11.6035 18.6831 11.5215C18.9246 11.4246 19.2424 11.3767 19.3769 11.3909C19.498 11.4037 19.6098 11.3747 19.6169 11.3074C19.6226 11.2536 19.8372 11.1539 20.0757 11.084C20.3292 11.002 20.6662 10.9016 20.8213 10.85C20.9777 10.785 21.3891 10.6245 21.7438 10.4852C22.1 10.3324 22.4653 10.2215 22.5594 10.2314C22.6401 10.24 22.7697 10.1721 22.8469 10.085C22.9121 9.98311 23.0848 9.89261 23.2371 9.86791C23.3893 9.8432 23.7935 9.74994 24.1425 9.66445C24.4902 9.59241 24.9347 9.50342 25.1542 9.48583C25.3602 9.46682 25.5047 9.38689 25.4714 9.31537C25.4396 9.23041 25.6407 9.12929 25.9033 9.08906C26.1674 9.03539 26.4003 9.0192 26.4258 9.03549C26.4498 9.06524 26.5808 8.9839 26.7161 8.86221C26.85 8.75397 27.1346 8.63446 27.354 8.61687C27.56 8.59785 28.0032 8.52233 28.3508 8.45029C28.6984 8.37825 29.046 8.30619 29.1161 8.2864C29.1848 8.28006 29.5069 8.19174 29.817 8.08853C30.1271 7.98533 30.4493 7.89699 30.5194 7.8772C30.5895 7.85742 30.7969 7.82494 30.976 7.80308C31.1417 7.7798 31.2875 7.68643 31.2946 7.61918C31.3032 7.53849 31.5418 7.46854 31.8285 7.45806C32.1031 7.4327 32.603 7.33595 32.94 7.23559C33.2649 7.12035 33.539 6.97253 33.5461 6.90529C33.5546 6.82459 33.6679 6.78217 33.7889 6.79497C33.9234 6.80919 34.5011 6.74787 35.0682 6.65823C35.6366 6.55515 36.3021 6.43514 36.5244 6.39065C36.7481 6.3327 37.4179 6.17233 37.9921 6.01545C38.5648 5.87202 39.236 5.69819 39.4583 5.6537C39.682 5.59575 40.3801 5.42479 40.9932 5.28563C41.6062 5.14646 42.2045 5.01931 42.3135 5.01724C42.4239 5.00172 42.7659 4.98346 43.066 4.9744C43.3676 4.95189 43.6614 4.87416 43.7237 4.79915C43.786 4.72415 43.9425 4.65911 44.077 4.67333C44.2129 4.6741 44.5605 4.60206 44.8558 4.51088C45.1376 4.41828 45.5241 4.36395 45.7124 4.38386C45.9007 4.40377 46.0826 4.35501 46.1301 4.29203C46.179 4.2156 46.3595 4.18029 46.5478 4.2002C46.7361 4.22011 47.0285 4.15584 47.2147 4.06674C47.3874 3.97621 47.8979 3.90778 48.3474 3.90092C48.7969 3.89405 49.3654 3.79097 49.5948 3.67923C49.8242 3.56749 50.1584 3.49402 50.3332 3.51251C50.4946 3.52958 50.9618 3.48379 51.3646 3.40398C51.754 3.32276 52.2121 3.23518 52.3671 3.18358C52.5208 3.14543 53.0475 3.05154 53.5459 2.96824C54.0428 2.89839 54.7189 2.80668 55.0608 2.78843C55.4042 2.75674 56.025 2.67281 56.4413 2.59443C56.8576 2.51605 57.55 2.39885 57.9634 2.34737C58.3783 2.28244 59.0961 2.18156 59.5527 2.10745C60.0079 2.04678 60.6274 1.97628 60.9261 1.98067C61.2263 1.97161 61.7862 1.94923 62.1564 1.92038C62.5416 1.8795 63.173 1.82387 63.5702 1.79787C63.9553 1.75699 64.5733 1.69994 64.9301 1.66966C65.3017 1.62737 65.8929 1.5675 66.278 1.52662C66.6497 1.48432 67.1884 1.4053 67.4525 1.35162C67.7165 1.29795 68.5214 1.27425 69.2279 1.28095C69.9344 1.28766 70.6989 1.25971 70.9361 1.20319C71.1718 1.16012 71.8868 1.08611 72.5438 1.04678C73.2156 0.99542 73.9921 0.982339 74.288 1.01363C74.5839 1.04491 75.4263 1.0524 76.1505 1.02017C76.8881 0.989376 77.8558 0.969298 78.3039 0.97588C78.7534 0.969014 79.3658 0.965782 79.6673 0.943272C79.9675 0.934212 80.5515 0.941555 80.9578 0.957321C81.3627 0.986536 83.1374 1.05179 84.8837 1.12765Z" fill="#EF8A51"/>
<path d="M84.8837 1.12765C86.6315 1.19006 88.6737 1.29723 89.4148 1.362C90.1574 1.41331 91.9475 1.58899 93.3852 1.7546C94.8228 1.92022 96.5401 2.14262 97.2068 2.26753C97.8736 2.39243 98.7676 2.55495 99.2072 2.64223C99.6482 2.71606 100.937 3.00195 102.063 3.28423C103.191 3.55305 104.26 3.85652 104.441 3.94368C104.623 4.03084 104.979 4.13648 105.233 4.17695C105.488 4.20397 105.839 4.36341 106.014 4.50436C106.188 4.65877 106.658 4.84447 107.056 4.94093C107.455 5.02395 107.871 5.20393 107.967 5.3229C108.062 5.45532 108.187 5.56369 108.242 5.55593C108.309 5.56304 108.614 5.89448 108.951 6.31087C109.42 6.89086 109.53 7.13371 109.474 7.4133C109.433 7.66742 109.325 7.79198 109.134 7.79896C108.956 7.80737 108.692 7.60265 108.379 7.216C108.115 6.88883 107.67 6.46105 107.39 6.28183C107.111 6.08915 106.442 5.73277 105.909 5.49962C105.377 5.25303 104.511 4.95741 104.008 4.82268C103.506 4.68794 102.392 4.42054 101.554 4.2368C100.719 4.03961 99.5507 3.76652 98.9674 3.62325C98.2915 3.45657 95.9004 3.17654 92.3186 2.8386C89.2479 2.5547 86.3371 2.30132 85.8487 2.29047C85.3603 2.27962 84.6538 2.27291 84.285 2.2883C83.9041 2.28883 82.7779 2.26494 81.7755 2.22695C80.7718 2.20241 79.5124 2.15085 78.9999 2.11026C78.486 2.08311 77.4107 2.09182 76.6179 2.13037C75.825 2.16893 74.9607 2.24073 74.698 2.28096C74.4354 2.32118 73.9306 2.33581 73.5675 2.29742C73.2178 2.26044 72.8221 2.27299 72.6805 2.32601C72.5523 2.38046 72.0044 2.41773 71.4905 2.39059C70.9751 2.3769 70.1582 2.38571 69.679 2.41663C69.2132 2.44897 68.7651 2.44239 68.7021 2.39493C68.6391 2.34747 68.4841 2.39907 68.3771 2.51016C68.285 2.60922 68.0465 2.67919 67.861 2.63238C67.6742 2.59902 67.2515 2.60873 66.9053 2.66733C66.5592 2.72592 65.7606 2.81826 65.1171 2.85902C64.4736 2.89977 63.7063 2.95464 63.4061 2.9637C63.1059 2.97276 62.7045 3.0391 62.5063 3.11333C62.3081 3.18757 62.1141 3.22147 62.0511 3.17401C62.0001 3.14143 61.7 3.15047 61.3672 3.21048C61.0494 3.25847 60.6671 3.27246 60.5206 3.24336C60.3741 3.21427 60.1504 3.27221 60.03 3.38187C59.8813 3.50214 59.5903 3.55298 59.1613 3.49402C58.8116 3.45705 58.3593 3.49082 58.1327 3.57567C57.9196 3.66193 57.2032 3.74935 56.5222 3.75894C55.8398 3.78198 55.1248 3.85597 54.8982 3.94081C54.6851 4.02707 54.3941 4.07791 54.2462 4.06227C54.0982 4.04663 53.6805 4.13844 53.3017 4.24798C52.935 4.3724 52.271 4.47898 51.8186 4.51274C51.3677 4.53306 50.7765 4.59296 50.5125 4.64663C50.2484 4.70031 49.9277 4.77519 49.8144 4.81762C49.7011 4.86004 49.2877 4.91152 48.9189 4.92692C48.5366 4.9409 48.1635 4.99663 48.0906 5.04332C48.0162 5.10345 47.6969 5.16489 47.3954 5.1874C47.0938 5.20991 46.691 5.28971 46.4913 5.37739C46.2931 5.45163 45.9483 5.49677 45.7331 5.47402C45.5179 5.45126 44.9466 5.58125 44.48 5.74951C44.012 5.93122 43.4421 6.04775 43.2135 6.02357C42.9983 6.00081 42.7505 6.02902 42.6627 6.08774C42.5883 6.14787 42.1303 6.23542 41.6362 6.27837C41.1434 6.30787 40.5495 6.39466 40.3243 6.46605C40.0992 6.53744 39.3657 6.78628 38.7009 7.02877C38.0375 7.25781 37.1291 7.48815 36.6782 7.50846C36.2258 7.54223 35.7827 7.61777 35.7083 7.67791C35.634 7.73804 35.2311 7.81784 34.834 7.84384C34.4206 7.89532 34.0836 7.99569 34.0304 8.11246C33.9773 8.22924 33.8505 8.27025 33.7083 8.20081C33.5915 8.14766 33.3841 8.18012 33.2623 8.30324C33.1419 8.4129 32.836 8.47577 32.5954 8.43672C32.3667 8.41254 32.1593 8.44499 32.1508 8.52569C32.1436 8.59294 31.9709 8.68346 31.7514 8.70106C31.5454 8.72007 31.0831 8.84799 30.7001 8.99788C30.3319 9.13575 30.0098 9.22408 29.9737 9.17946C29.9376 9.13485 29.6735 9.18851 29.3783 9.27969C29.0965 9.37229 28.8268 9.47978 28.7821 9.51586C28.7361 9.56539 28.5825 9.60355 28.4317 9.6148C28.2809 9.62606 28.0678 9.71231 27.9637 9.7965C27.8582 9.89414 27.6479 9.95352 27.4999 9.93787C27.3655 9.92365 27.027 10.0374 26.765 10.2001C26.5165 10.3643 26.2078 10.454 26.1059 10.3889C26.0026 10.3371 25.6578 10.3823 25.3463 10.4989C25.0362 10.6021 24.6291 10.7223 24.4365 10.7427C24.2425 10.7766 23.8864 10.9293 23.6513 11.0949C23.4162 11.2604 23.1181 11.3785 23.0105 11.3671C22.9029 11.3557 22.5822 11.4306 22.3125 11.5381C22.0441 11.6321 21.6582 11.8089 21.4557 11.9235C21.2546 12.0246 20.9877 12.1052 20.8532 12.091C20.7322 12.0782 20.1566 12.2485 19.5902 12.4606C19.0358 12.6876 18.4099 12.9478 18.2074 13.0624C18.0049 13.1769 17.7365 13.271 17.6035 13.2433C17.4824 13.2305 17.3691 13.2729 17.3606 13.3536C17.3535 13.4209 17.2657 13.4796 17.1716 13.4696C17.0909 13.4611 16.7121 13.5706 16.329 13.7205C15.9595 13.8718 15.6359 13.9736 15.6118 13.9439C15.5729 13.9261 15.044 14.1694 14.4259 14.4848C13.778 14.8243 13.0714 15.076 12.7564 15.0971C12.4548 15.1196 12.1327 15.2079 12.054 15.3084C11.9754 15.4089 11.8189 15.474 11.7234 15.4775C11.6427 15.4689 11.5563 15.5142 11.5478 15.5949C11.5407 15.6621 11.4394 15.7194 11.3318 15.708C11.2108 15.6952 10.8921 15.8791 10.5961 16.1062C10.3136 16.3348 10.0218 16.5215 9.95458 16.5144C9.87388 16.5058 9.7549 16.6021 9.67486 16.716C9.60684 16.8448 9.24359 17.0648 8.874 17.2161C8.50441 17.3674 7.85226 17.7473 7.40896 18.0812C6.96709 18.4016 5.95725 19.206 5.15562 19.842C4.35256 20.4915 3.4886 21.2025 3.24497 21.4488C3.00134 21.695 2.70883 22.0176 2.59762 22.1691C2.49986 22.3219 2.25261 22.731 2.0514 23.0905C1.83816 23.4351 1.55897 24.0176 1.41156 24.3828C1.21384 24.8379 1.11803 25.3582 1.09219 26.117C1.06001 26.8072 1.13051 27.4266 1.2641 27.8351C1.38994 28.1884 1.47401 28.5509 1.46548 28.6316C1.45552 28.7257 1.58213 28.9431 1.75478 29.111C1.92742 29.2788 2.0583 29.4559 2.05261 29.5097C2.0455 29.5769 2.27117 29.8864 2.54922 30.215C2.84071 30.545 3.21924 30.9522 3.39189 31.1201C3.56453 31.2879 4.03579 31.7185 4.42001 32.0719C4.80281 32.4388 5.13891 32.7328 5.17926 32.737C5.21961 32.7413 5.49701 32.9474 5.80906 33.2116C6.12112 33.4758 6.41196 33.6834 6.46576 33.689C6.533 33.6961 6.64694 33.7762 6.73113 33.8803C6.81532 33.9844 6.99365 34.0984 7.11327 34.1247C7.23289 34.1509 7.61931 34.355 7.9774 34.5697C8.32204 34.7829 8.82381 35.0535 9.07081 35.1613C9.31639 35.2824 9.65896 35.3867 9.82035 35.4037C9.9952 35.4222 10.1509 35.4931 10.1827 35.578C10.2145 35.663 10.4544 35.8379 10.712 35.974C10.9817 36.1249 11.4651 36.312 11.7942 36.4148C12.1233 36.5176 12.7922 36.7515 13.3039 36.928C13.8142 37.118 14.277 37.3709 14.3584 37.5019C14.4383 37.6464 14.5161 37.6818 14.553 37.5905C14.5913 37.4858 14.7003 37.4837 14.931 37.6169C15.1122 37.704 15.3443 37.8238 15.4505 37.8486C15.5552 37.8869 16.004 38.0159 16.4421 38.1166C16.8788 38.2308 17.2992 38.3705 17.3622 38.4179C17.4252 38.4654 17.8216 38.5753 18.2194 38.6718C18.6172 38.7682 19.0121 38.8916 19.0751 38.939C19.1366 38.9999 19.6526 39.1361 20.1984 39.2482C20.7455 39.3469 21.3825 39.4958 21.5935 39.5589C21.8044 39.6221 22.4428 39.7575 22.9886 39.8697C23.5357 39.9683 24.5182 40.1946 25.1807 40.3599C25.8418 40.5386 27.1604 40.8004 28.1111 40.9417C29.0617 41.083 30.2353 41.3023 30.7124 41.4208C31.1908 41.5258 32.179 41.6982 32.9173 41.7899C33.6556 41.8816 37.1375 42.2633 40.6478 42.6345C44.158 43.0057 47.9819 43.3692 49.1293 43.4498L49.4312 43.4674C50.5226 43.5312 51.7924 43.6055 52.3742 43.6297C53.0106 43.6562 53.9174 43.6977 54.4044 43.722C54.8914 43.7463 56.0148 43.7971 56.9068 43.8506C57.8001 43.8906 58.7472 43.9364 59.007 43.9231C59.2654 43.9232 60.6323 43.9861 62.053 44.0548C63.4737 44.1234 64.8944 44.192 65.2349 44.1872C65.574 44.1959 66.3343 44.2083 66.9303 44.2305C67.5264 44.2527 68.3808 44.2751 68.8288 44.2817C69.2425 44.3002 69.9021 44.3098 70.3533 44.3163L70.457 44.3178C70.9037 44.3378 72.2494 44.3442 73.4443 44.3617C74.6392 44.3793 75.6472 44.3634 75.6904 44.3408C75.7336 44.3182 76.3311 44.327 77.0078 44.3577C77.698 44.3899 78.3103 44.3866 78.3669 44.3654C78.4385 44.3322 78.997 44.3233 79.6348 44.3363C80.2726 44.3494 80.9344 44.3921 81.1213 44.4255C81.3082 44.4589 81.825 44.4591 82.2759 44.4388C82.7283 44.405 83.6422 44.3793 84.3231 44.3697C85.0041 44.3601 85.9449 44.3372 86.4362 44.3211C86.9275 44.3051 87.8683 44.2821 88.5493 44.2726C89.2303 44.263 89.9977 44.2081 90.2603 44.1679C90.523 44.1277 91.0426 44.101 91.4234 44.1005C91.789 44.112 92.8324 44.1273 93.7279 44.1405L93.7311 44.1405C94.6273 44.1537 95.4889 44.1088 95.6453 44.0437C95.8004 43.9921 96.0885 43.9682 96.2874 44.0164C96.4863 44.0646 96.6611 44.0831 96.6654 44.0428C96.6697 44.0024 97.5475 43.9321 98.6136 43.8816C99.6946 43.8191 100.788 43.7715 101.047 43.7582C101.307 43.7448 101.797 43.7422 102.136 43.7509C102.474 43.773 103.105 43.7174 103.535 43.6404C103.978 43.5649 104.404 43.5283 104.467 43.5757C104.53 43.6232 104.68 43.6119 104.77 43.5398C104.871 43.4825 105.584 43.4219 106.361 43.4088C107.124 43.3943 107.756 43.3387 107.763 43.2715C107.768 43.2177 107.931 43.2213 108.13 43.2695C108.342 43.3192 108.713 43.2903 108.951 43.2204C109.205 43.1384 109.751 43.1146 110.155 43.1572C110.558 43.1999 111.008 43.193 111.136 43.1386C111.277 43.0855 111.68 43.0057 112.038 42.962C112.41 42.9197 112.996 42.9136 113.345 42.9506C113.695 42.9876 114.05 42.9708 114.126 42.8972C114.214 42.8385 114.641 42.7884 115.09 42.7815C115.54 42.7747 116.008 42.7154 116.126 42.6326C116.242 42.5633 116.961 42.449 117.715 42.3927C118.469 42.3365 119.665 42.2181 120.356 42.1143C121.06 42.012 121.789 41.9395 121.977 41.9594C122.165 41.9793 122.346 41.944 122.395 41.8675C122.444 41.7911 122.718 41.7658 123.001 41.7956C123.297 41.8269 123.628 41.7803 123.732 41.6962C123.838 41.5985 124.146 41.5088 124.406 41.4954C124.666 41.4821 125.161 41.4257 125.508 41.3671C125.852 41.322 126.383 41.1877 126.692 41.098C127.002 40.9948 127.529 40.9009 127.869 40.8961C128.211 40.8778 128.611 40.8249 128.766 40.7733C128.902 40.7395 129.226 40.6507 129.522 40.5694L129.634 40.5387C129.97 40.4518 130.329 40.3946 130.437 40.406C130.545 40.4174 130.807 40.3772 131.019 40.3043C131.243 40.2464 131.535 40.1821 131.684 40.1843C131.834 40.1865 132.177 40.1548 132.44 40.1146C132.703 40.0744 133.083 39.9514 133.284 39.8502C133.485 39.7491 133.891 39.6424 134.194 39.6064C134.498 39.557 135.151 39.4221 135.654 39.2985C136.157 39.1748 136.72 38.9897 136.923 38.8751C137.124 38.7739 137.404 38.6948 137.552 38.7104C137.7 38.7261 137.978 38.6738 138.177 38.5861C138.376 38.5119 138.778 38.4321 139.08 38.4096C139.38 38.4005 139.704 38.2987 139.781 38.2117C139.86 38.1112 140.217 37.945 140.569 37.8327C140.904 37.7382 141.446 37.554 141.814 37.4293L141.865 37.4121C142.243 37.3025 142.621 37.2064 142.701 37.215C142.794 37.2384 143.049 37.1429 143.268 37.0029C143.499 36.8777 143.713 36.778 143.767 36.7837C143.834 36.7908 144.128 36.713 144.44 36.5964C144.75 36.4932 145.183 36.2534 145.405 36.0865C145.64 35.9209 146.069 35.7215 146.375 35.6586C146.679 35.6092 146.934 35.5138 146.941 35.4465C146.947 35.3927 147.194 35.2421 147.48 35.1091C147.779 34.9776 148.15 34.8128 148.307 34.7478C148.463 34.6827 148.864 34.4939 149.195 34.3249C149.539 34.1573 149.879 34.03 149.946 34.0371C150.013 34.0442 150.1 33.999 150.12 33.9331C150.154 33.8687 150.477 33.6445 150.854 33.4259C151.216 33.2194 152.029 32.7342 152.669 32.3395C153.294 31.9568 154.429 31.1249 155.189 30.498C155.949 29.8712 156.581 29.2988 156.574 29.2301C156.583 29.1494 156.782 28.9393 157.008 28.732C157.247 28.5261 157.64 28.0237 157.875 27.5998C158.259 26.9331 158.344 26.6429 158.487 25.4205C158.569 24.6404 158.587 23.8263 158.531 23.5892C158.474 23.352 158.398 23.0447 158.346 22.8897C158.295 22.7346 158.128 22.2546 157.982 21.8312C157.805 21.3228 157.399 20.6544 156.762 19.8662C156.219 19.2105 155.579 18.4492 155.337 18.1652C155.082 17.8798 154.531 17.4272 154.11 17.1651C153.689 16.903 153.179 16.5771 152.961 16.4588C152.744 16.327 152.486 16.191 152.381 16.1527C152.276 16.1144 151.889 15.9238 151.544 15.7106C151.184 15.5094 150.693 15.267 150.445 15.1728C150.195 15.0919 149.659 14.8857 149.269 14.722C148.878 14.5583 148.342 14.352 148.094 14.2578C147.845 14.1635 147.401 13.9941 147.113 13.8821C146.826 13.7701 146.234 13.5851 145.795 13.4844C145.359 13.3702 144.648 13.1454 144.219 12.964C143.789 12.7826 143.343 12.6267 143.238 12.5884L142.07 12.3153C141.54 12.1912 141.118 12.0649 141.122 12.0246C141.126 11.9843 140.902 11.9197 140.636 11.8644C140.356 11.8076 139.731 11.6736 139.227 11.5523C138.738 11.4189 137.82 11.2267 137.165 11.1166C136.524 11.008 135.983 10.8556 135.948 10.7975C135.913 10.7394 135.115 10.5734 134.152 10.4172C133.188 10.2745 131.841 10.0233 131.149 9.88207C130.457 9.74087 128.745 9.46469 127.338 9.26157C125.932 9.05845 124.703 8.84691 124.601 8.78173C124.501 8.70311 123.783 8.54562 123.007 8.42279C122.232 8.29996 121.204 8.10975 120.7 7.98846C120.209 7.88204 119.812 7.77215 119.816 7.7318C119.821 7.69145 119.884 7.603 119.948 7.51455C120.027 7.41406 120.705 7.43137 122.211 7.59064L124.767 7.86085C124.975 7.89529 126.099 7.99245 127.373 8.10255L127.73 8.13337C129.227 8.25088 131.239 8.51799 132.559 8.76638C133.8 8.99278 135.428 9.28732 136.163 9.40589C136.897 9.5379 137.795 9.66008 138.172 9.6999C138.536 9.72485 138.909 9.80504 138.969 9.8794C139.029 9.95375 139.57 10.1062 140.158 10.2091C140.744 10.3255 141.517 10.4752 141.889 10.5554C142.248 10.6341 142.908 10.8263 143.34 10.9808C143.771 11.1488 144.418 11.3395 144.791 11.4062C145.152 11.4715 146.115 11.7502 146.903 12.0104C147.692 12.2705 148.666 12.5775 149.062 12.6874C149.446 12.7824 149.786 12.9136 149.807 12.9702C149.827 13.0403 149.944 13.0934 150.052 13.1048C150.159 13.1162 150.496 13.2742 150.805 13.4428C151.098 13.6235 151.58 13.8241 151.872 13.8957C152.163 13.9673 152.409 14.0885 152.427 14.172C152.434 14.2407 152.534 14.3193 152.642 14.3307C152.749 14.3421 153.059 14.4972 153.326 14.675C153.58 14.8514 153.876 15.0052 153.97 15.0151C154.051 15.0237 154.539 15.2929 155.023 15.6025C155.507 15.9121 155.909 16.2266 155.901 16.3073C155.894 16.3745 156.224 16.7222 156.637 17.0651C157.049 17.4079 157.747 18.1345 158.179 18.6833C158.609 19.2456 159.061 19.987 159.184 20.3671C159.309 20.7339 159.454 21.0348 159.521 21.0419C159.575 21.0476 159.648 21.3818 159.702 21.7683C159.742 22.1669 159.843 22.6263 159.921 22.7842C160 22.9421 160.018 23.284 159.964 23.5367C159.924 23.7908 159.922 24.0627 159.981 24.1505C160.041 24.2249 160.007 24.9285 159.885 25.7043C159.775 26.4815 159.586 27.3726 159.483 27.7018C159.367 28.0295 159.124 28.5206 158.932 28.7994C158.752 29.0797 158.597 29.3897 158.589 29.4703C158.579 29.5645 158.385 29.7209 158.145 29.8043C157.905 29.8877 157.711 30.0575 157.699 30.1651C157.688 30.2727 157.172 30.7757 156.563 31.2688C155.953 31.762 155.443 32.2112 155.437 32.265C155.43 32.3323 155.112 32.5162 154.697 32.7036C154.297 32.8924 153.826 33.101 153.669 33.166C153.498 33.2431 153.162 33.466 152.91 33.657C152.66 33.8345 152.08 34.1811 151.606 34.4166C151.132 34.6521 150.696 34.9188 150.632 35.0073C150.554 35.1077 150.384 35.1714 150.236 35.1557C150.088 35.1401 149.961 35.1811 149.953 35.2618C149.944 35.3425 149.8 35.5449 149.617 35.7295C149.447 35.9291 149.285 36.0479 149.275 36.0062C149.266 35.9644 148.974 36.0287 148.635 36.1425C148.297 36.2563 147.81 36.4904 147.559 36.6814C147.322 36.8604 147.022 36.9919 146.916 36.9671C146.81 36.9423 146.549 36.969 146.339 37.0284C146.114 37.0998 145.865 37.2639 145.782 37.4047C145.699 37.5456 145.525 37.6495 145.417 37.6382C145.31 37.6268 145.179 37.7081 145.127 37.8115C145.068 37.9412 144.859 37.9871 144.501 37.9492C144.097 37.9065 143.929 37.9567 143.8 38.1471C143.717 38.2879 143.572 38.3678 143.509 38.3204C143.446 38.2729 143.291 38.3245 143.199 38.4236C143.092 38.5347 142.907 38.6103 142.801 38.5855C142.694 38.5741 142.358 38.661 142.074 38.7805C141.775 38.8986 141.467 38.9884 141.399 38.9813C141.332 38.9741 140.742 39.1565 140.105 39.3884C139.454 39.6323 138.701 39.811 138.417 39.7946C138.133 39.7782 137.855 39.8305 137.794 39.892C137.732 39.967 137.404 40.1092 137.052 40.2216C136.701 40.3339 136.271 40.4109 136.096 40.3924C135.921 40.3739 135.738 40.4361 135.702 40.514C135.679 40.6067 135.522 40.6718 135.375 40.6561C135.227 40.6405 134.848 40.75 134.532 40.907C134.145 41.0972 133.77 41.1665 133.367 41.1238C133.017 41.0868 132.672 41.132 132.538 41.2402C132.419 41.3364 132.087 41.3964 131.777 41.3637C131.468 41.331 131.193 41.3564 131.145 41.4328C131.096 41.5092 130.733 41.5933 130.348 41.6342C129.949 41.6736 129.544 41.7803 129.468 41.8539C129.391 41.9409 129.039 42.0533 128.693 42.1119C128.345 42.184 127.991 42.1873 127.916 42.125C127.826 42.0747 127.617 42.1206 127.457 42.226C127.28 42.3569 127.086 42.3908 126.972 42.3107C126.856 42.2441 126.704 42.2688 126.597 42.3799C126.461 42.5151 126.184 42.5539 125.769 42.4963C125.339 42.4508 125.118 42.4819 125.106 42.5895C125.096 42.6836 124.824 42.818 124.503 42.8929C124.17 42.9529 123.537 43.022 123.087 43.0423C122.67 43.0486 121.923 43.0786 121.37 43.1008L121.244 43.1058C120.684 43.1282 120.142 43.2341 120.065 43.3212C119.973 43.4202 119.558 43.4851 119.098 43.4637C118.65 43.4571 118.078 43.4646 117.845 43.4808C117.599 43.4956 117.387 43.5684 117.378 43.6491C117.37 43.7298 117.102 43.8238 116.785 43.8583C116.454 43.9049 116.093 43.9755 115.978 44.0314C115.865 44.0738 115.369 44.1302 114.879 44.1328C114.39 44.1354 113.895 44.1784 113.782 44.2208C113.667 44.2766 113.202 44.309 112.752 44.3159C112.303 44.3227 111.759 44.3196 111.529 44.3089C111.299 44.2982 111.051 44.3264 110.98 44.3596C110.908 44.3928 110.563 44.438 110.221 44.4562C109.879 44.4745 109.388 44.4905 109.131 44.477C108.874 44.4634 108.316 44.4723 107.907 44.4835C107.497 44.4946 107.084 44.5461 107.011 44.5927C106.938 44.6394 106.58 44.6832 106.224 44.7C105.857 44.7019 105.538 44.7634 105.489 44.8398C105.44 44.9162 105.192 44.9444 104.937 44.9174C104.681 44.8904 104.324 44.9207 104.154 44.9843C103.97 45.0599 103.61 45.1171 103.352 45.117C103.093 45.1169 102.657 45.1252 102.399 45.125C102.139 45.1384 101.583 45.1204 101.177 45.1046C100.771 45.0889 100.348 45.0986 100.262 45.1438C100.162 45.1877 99.9481 45.1515 99.7938 45.0672C99.5871 44.9637 99.4498 44.9764 99.3429 45.0875C99.2657 45.1745 98.9195 45.2331 98.5804 45.2245C98.2427 45.2024 97.8839 45.1236 97.7848 45.0315C97.6589 44.9366 97.6225 44.9373 97.6758 45.0336C97.7211 45.12 97.5738 45.2268 97.3755 45.3011C97.1652 45.3604 96.6293 45.4126 96.1813 45.406C95.7317 45.4128 94.8773 45.3905 94.2827 45.3548C93.6881 45.3191 92.9562 45.2961 92.6574 45.2917C92.3587 45.2873 92.0437 45.3084 91.9707 45.3551C91.8992 45.3884 91.4617 45.4101 91.0122 45.417C90.5641 45.4104 90.1252 45.4456 90.0537 45.4788C89.9808 45.5255 89.5136 45.5713 89.0237 45.5739C88.5324 45.5899 87.8932 45.5903 87.5959 45.5725C87.2986 45.5547 86.9835 45.5758 86.9106 45.6224C86.8391 45.6557 86.4271 45.6937 86.0179 45.7048C85.6102 45.7025 85.2102 45.7554 85.121 45.8276C85.0466 45.8877 84.5164 45.8861 83.9381 45.8249C83.3598 45.7638 82.8579 45.7515 82.8253 45.8024C82.7778 45.8654 82.4954 45.8355 82.1783 45.7476C81.8209 45.6554 81.5356 45.6525 81.418 45.7352C81.2707 45.842 81.1497 45.8293 80.9218 45.6692C80.7166 45.5523 80.5701 45.5232 80.5212 45.5996C80.4723 45.676 79.9959 45.68 79.4565 45.6366C78.932 45.5811 78.2447 45.5221 77.9339 45.5028C77.6366 45.485 77.2769 45.5421 77.1474 45.61C77.0029 45.69 76.782 45.721 76.6384 45.665C76.4947 45.609 76.329 45.6323 76.2667 45.7073C76.1895 45.7944 75.9849 45.7999 75.7216 45.7177C75.4569 45.6489 75.2806 45.6438 75.2721 45.7245C75.2636 45.8052 74.7468 45.805 73.9802 45.7239C73.2808 45.65 72.5758 45.6298 72.4193 45.6949C72.2628 45.7599 71.6625 45.7781 71.0948 45.7452C70.5151 45.6975 69.97 45.7079 69.8985 45.7411C69.827 45.7743 69.1878 45.7748 68.511 45.744C67.7118 45.7139 67.2574 45.6387 67.2659 45.558C67.2745 45.4773 67.186 45.4135 67.0784 45.4021C66.9708 45.3908 66.7634 45.4232 66.6352 45.4777C66.4936 45.5307 65.7411 45.5735 64.9525 45.5717C64.1654 45.5565 63.0448 45.4788 62.4573 45.3759C61.8549 45.285 61.3141 45.255 61.2115 45.3257C61.1088 45.3965 60.9042 45.402 60.7605 45.3461C60.6168 45.2901 60.4929 45.3042 60.4844 45.3849C60.4759 45.4656 59.7977 45.4482 58.7218 45.3345C57.7534 45.2321 56.8884 45.1814 56.802 45.2267C56.7036 45.2571 56.1316 45.2646 55.537 45.2289C54.9424 45.1932 53.2152 45.065 51.6912 44.9446C50.1686 44.8108 47.4072 44.5596 45.5349 44.3889C43.1261 44.1478 42.0848 44.092 41.9509 44.2003C41.8468 44.2845 41.5736 44.2964 41.3612 44.2467C41.1503 44.1836 40.4864 44.0318 39.9017 43.902C39.3185 43.7587 38.3573 43.5891 37.7655 43.5265C37.1737 43.464 36.1756 43.3856 35.5407 43.3457C34.9057 43.3057 34.1872 43.2842 33.9529 43.3138C33.5827 43.3426 33.5048 43.3072 33.5261 43.1054C33.5423 42.953 33.5007 42.9169 33.4016 42.9971C33.3124 43.0692 32.9882 43.0486 32.5649 42.9358C32.1806 42.8408 31.5662 42.735 31.1882 42.7086C30.825 42.6702 30.4279 42.6962 30.3401 42.7549C30.2105 42.8228 30.0683 42.7534 29.9119 42.5601C29.7796 42.3965 29.6041 42.2556 29.5369 42.2484C29.4696 42.2413 29.3981 42.2746 29.3924 42.3284C29.3853 42.3956 28.9252 42.3741 28.3766 42.2889C27.7997 42.2143 27.2448 42.0605 27.0948 41.9358C26.8683 41.7623 26.6815 41.7289 26.2532 41.7924C25.8518 41.8588 25.369 41.7941 24.4404 41.5735C23.751 41.4054 22.9002 41.2203 22.5505 41.1833C22.1888 41.1314 21.912 41.0478 21.9206 40.9671C21.9291 40.8864 21.5447 40.7914 21.0337 40.7373C20.536 40.6847 20.0859 40.5691 20.0137 40.4799C19.9416 40.3906 19.4822 40.2333 18.9903 40.1268C18.3101 40.0005 18.08 39.9898 18.0672 40.1108C18.0572 40.205 17.9674 40.1547 17.862 39.9939C17.7464 39.8004 17.5018 39.6703 17.1281 39.6035C16.8202 39.5574 16.4613 39.4786 16.3282 39.451C16.2086 39.4247 16.0557 39.327 16.0091 39.254C15.9638 39.1677 15.5794 39.0726 15.1625 39.0285C14.6111 38.9702 14.3492 38.8745 14.2452 38.7003C14.1639 38.5693 13.8313 38.371 13.5022 38.2682C13.1745 38.1519 12.7031 37.9797 12.4561 37.872L12.4136 37.8558C12.1492 37.7555 11.6368 37.5612 11.2543 37.4049C10.8367 37.2383 10.3625 37.093 10.2011 37.0759C10.0263 37.0575 9.69858 36.9412 9.48274 36.796C9.25203 36.6628 9.02985 36.4489 8.98885 36.3222C8.92522 36.1522 8.79357 36.1111 8.4651 36.1308C8.19043 36.1562 8.01844 36.1108 8.02697 36.0301C8.0355 35.9494 7.77155 35.7447 7.43894 35.5463C7.09145 35.36 6.70789 35.129 6.56705 35.0461C6.42622 34.9632 6.08442 34.7231 5.80845 34.5035C5.53105 34.2974 5.10287 34.1025 4.87566 34.0649C4.53942 34.0293 4.36251 33.9018 4.11847 33.5088C3.9303 33.2305 3.67063 32.9855 3.52268 32.9698C3.37474 32.9542 3.17869 32.8791 3.09024 32.8153C3.01523 32.753 2.87375 32.5476 2.79951 32.3494C2.72528 32.1511 2.50737 31.8969 2.31559 31.7814C2.1238 31.6659 1.93421 31.4011 1.87769 31.1639C1.83462 30.9282 1.74267 30.7689 1.68603 30.7901C1.61451 30.8233 1.40437 30.6243 1.19991 30.3715C0.996866 30.1052 0.743644 29.6705 0.636172 29.4007C0.5287 29.1309 0.386568 28.8031 0.3038 28.6856C0.221032 28.568 0.13554 28.219 0.11303 27.9174C0.0905194 27.6159 0.0510632 27.2173 0.0171761 27.0233C-0.00326179 26.8308 0.0203916 26.2213 0.0786992 25.6699C0.163255 24.9988 0.343378 24.3243 0.63394 23.6342C0.883381 23.0758 1.16606 22.5889 1.26163 22.5854C1.34517 22.5671 1.44008 22.4411 1.4543 22.3066C1.48055 22.187 1.69237 21.8558 1.93885 21.5826C2.18532 21.3095 2.4658 20.972 2.53524 20.8297C2.61813 20.6889 2.89151 20.4186 3.15778 20.2156C3.41059 20.0111 3.62874 19.7486 3.64296 19.6141C3.65576 19.4931 3.73438 19.3926 3.80163 19.3997C3.88233 19.4082 4.63508 18.8486 5.49762 18.1511C6.36016 17.4535 7.13981 16.8967 7.23396 16.9067C7.31466 16.9152 7.57523 16.766 7.8146 16.5601C8.03909 16.3662 8.31453 16.205 8.42213 16.2164C8.52972 16.2277 8.84552 16.0707 9.11036 15.8811C9.36317 15.6767 9.65065 15.5303 9.71789 15.5374C9.78372 15.558 10.147 15.338 10.5145 15.0776C10.882 14.8173 11.3153 14.5775 11.493 14.5691C11.6587 14.5458 11.8031 14.4659 11.8102 14.3987C11.8188 14.318 11.8634 14.2819 11.9292 14.3024C11.9802 14.335 12.2245 14.2113 12.4624 14.0188C12.7272 13.8293 13.0522 13.714 13.2809 13.7382C13.4826 13.7595 13.7226 13.6761 13.8458 13.5395C13.9408 13.4136 14.4173 13.1512 14.8853 12.9695C15.3533 12.7878 15.8036 12.645 15.8708 12.6521C15.9381 12.6592 16.1257 12.5567 16.2759 12.4229C16.4125 12.2878 16.6986 12.1548 16.918 12.1372C17.1255 12.1048 17.4073 12.0122 17.5517 11.9322C17.6841 11.8375 17.8647 11.8022 17.9276 11.8496C17.9906 11.8971 18.089 11.8667 18.1365 11.8037C18.1854 11.7273 18.4296 11.6035 18.6831 11.5215C18.9246 11.4246 19.2424 11.3767 19.3769 11.3909C19.498 11.4037 19.6098 11.3747 19.6169 11.3074C19.6226 11.2536 19.8372 11.1539 20.0757 11.084C20.3292 11.002 20.6662 10.9016 20.8213 10.85C20.9777 10.785 21.3891 10.6245 21.7438 10.4852C22.1 10.3324 22.4653 10.2215 22.5594 10.2314C22.6401 10.24 22.7697 10.1721 22.8469 10.085C22.9121 9.98311 23.0848 9.89261 23.2371 9.86791C23.3893 9.8432 23.7935 9.74994 24.1425 9.66445C24.4902 9.59241 24.9347 9.50342 25.1542 9.48583C25.3602 9.46682 25.5047 9.38689 25.4714 9.31537C25.4396 9.23041 25.6407 9.12929 25.9033 9.08906C26.1674 9.03539 26.4003 9.0192 26.4258 9.03549C26.4498 9.06524 26.5808 8.9839 26.7161 8.86221C26.85 8.75397 27.1346 8.63446 27.354 8.61687C27.56 8.59785 28.0032 8.52233 28.3508 8.45029C28.6984 8.37825 29.046 8.30619 29.1161 8.2864C29.1848 8.28006 29.5069 8.19174 29.817 8.08853C30.1271 7.98533 30.4493 7.89699 30.5194 7.8772C30.5895 7.85742 30.7969 7.82494 30.976 7.80308C31.1417 7.7798 31.2875 7.68643 31.2946 7.61918C31.3032 7.53849 31.5418 7.46854 31.8285 7.45806C32.1031 7.4327 32.603 7.33595 32.94 7.23559C33.2649 7.12035 33.539 6.97253 33.5461 6.90529C33.5546 6.82459 33.6679 6.78217 33.7889 6.79497C33.9234 6.80919 34.5011 6.74787 35.0682 6.65823C35.6366 6.55515 36.3021 6.43514 36.5244 6.39065C36.7481 6.3327 37.4179 6.17233 37.9921 6.01545C38.5648 5.87202 39.236 5.69819 39.4583 5.6537C39.682 5.59575 40.3801 5.42479 40.9932 5.28563C41.6062 5.14646 42.2045 5.01931 42.3135 5.01724C42.4239 5.00172 42.7659 4.98346 43.066 4.9744C43.3676 4.95189 43.6614 4.87416 43.7237 4.79915C43.786 4.72415 43.9425 4.65911 44.077 4.67333C44.2129 4.6741 44.5605 4.60206 44.8558 4.51088C45.1376 4.41828 45.5241 4.36395 45.7124 4.38386C45.9007 4.40377 46.0826 4.35501 46.1301 4.29203C46.179 4.2156 46.3595 4.18029 46.5478 4.2002C46.7361 4.22011 47.0285 4.15584 47.2147 4.06674C47.3874 3.97621 47.8979 3.90778 48.3474 3.90092C48.7969 3.89405 49.3654 3.79097 49.5948 3.67923C49.8242 3.56749 50.1584 3.49402 50.3332 3.51251C50.4946 3.52958 50.9618 3.48379 51.3646 3.40398C51.754 3.32276 52.2121 3.23518 52.3671 3.18358C52.5208 3.14543 53.0475 3.05154 53.5459 2.96824C54.0428 2.89839 54.7189 2.80668 55.0608 2.78843C55.4042 2.75674 56.025 2.67281 56.4413 2.59443C56.8576 2.51605 57.55 2.39885 57.9634 2.34737C58.3783 2.28244 59.0961 2.18156 59.5527 2.10745C60.0079 2.04678 60.6274 1.97628 60.9261 1.98067C61.2263 1.97161 61.7862 1.94923 62.1564 1.92038C62.5416 1.8795 63.173 1.82387 63.5702 1.79787C63.9553 1.75699 64.5733 1.69994 64.9301 1.66966C65.3017 1.62737 65.8929 1.5675 66.278 1.52662C66.6497 1.48432 67.1884 1.4053 67.4525 1.35162C67.7165 1.29795 68.5214 1.27425 69.2279 1.28095C69.9344 1.28766 70.6989 1.25971 70.9361 1.20319C71.1718 1.16012 71.8868 1.08611 72.5438 1.04678C73.2156 0.99542 73.9921 0.982339 74.288 1.01363C74.5839 1.04491 75.4263 1.0524 76.1505 1.02017C76.8881 0.989376 77.8558 0.969298 78.3039 0.97588C78.7534 0.969014 79.3658 0.965782 79.6673 0.943272C79.9675 0.934212 80.5515 0.941555 80.9578 0.957321C81.3627 0.986536 83.1374 1.05179 84.8837 1.12765Z" fill="#EF8A51"/>
</svg>
