<svg width="93" height="12" viewBox="0 0 93 12" fill="none" xmlns="http://www.w3.org/2000/svg">
<path d="M90.0522 0.229068C90.5401 0.198085 90.9648 0.14733 90.9894 0.12877C91.0262 0.100929 91.2865 0.126177 91.5869 0.17899C91.9951 0.246814 92.211 0.353786 92.4412 0.594658C92.6142 0.772617 92.7771 1.10304 92.824 1.3184C92.8602 1.53225 92.852 1.82783 92.7986 1.97427C92.7345 2.1192 92.6197 2.31204 92.5307 2.39856C92.3896 2.54377 92.3249 2.53477 92.0072 2.36964C91.7404 2.23358 91.4616 2.18377 90.9336 2.18719C90.5365 2.19784 89.9468 2.17067 89.6218 2.13642C89.2969 2.10217 88.9459 2.09727 88.8551 2.11761C88.7644 2.13794 88.0917 2.15418 87.3666 2.15214C86.6415 2.1501 85.6101 2.13834 85.0635 2.11719C84.5184 2.08526 83.9057 2.06592 83.6963 2.06974C83.487 2.07356 83.0898 2.0842 82.8113 2.11136C82.5343 2.12774 81.823 2.10563 81.224 2.0662C80.6265 2.01598 79.8784 2.02172 79.5768 2.05666C79.2737 2.10238 78.7211 2.12436 78.3608 2.10717C78.0005 2.08998 77.3647 2.07837 76.9367 2.07373C76.5072 2.07988 75.8268 2.07305 75.3988 2.06842C74.9708 2.06378 74.406 2.09505 74.1229 2.15455C73.8399 2.21406 73.1995 2.2348 72.6883 2.19659C72.1756 2.16916 71.4397 2.16563 71.0411 2.18706C70.6425 2.20848 69.9866 2.18309 69.5646 2.13532C69.1441 2.07678 68.6053 2.07871 68.3561 2.13194C68.1069 2.18516 67.8083 2.19855 67.6927 2.16048C67.5756 2.13319 67.4001 2.13072 67.3079 2.16183C67.2141 2.20373 66.6615 2.22569 66.0904 2.2231C65.5193 2.22051 64.7987 2.18615 64.5046 2.16718C64.1997 2.14671 63.9365 2.14301 63.9104 2.17235C63.8828 2.21248 63.7504 2.21605 63.6319 2.19954C63.5025 2.18152 63.244 2.22244 63.058 2.29545C62.8597 2.37774 62.2625 2.40452 61.6728 2.37737C61.1062 2.34243 60.609 2.36114 60.5691 2.41054C60.5278 2.47073 60.3199 2.46377 60.0965 2.41068C59.8839 2.3591 59.6761 2.35213 59.6347 2.41232C59.5934 2.4725 59.2963 2.4751 58.9728 2.43007C58.6494 2.38503 58.3107 2.37085 58.24 2.40496C58.16 2.4268 57.6997 2.41766 57.2223 2.37318C56.7449 2.32869 56.2738 2.31802 56.1831 2.33836C56.0923 2.35869 55.9491 2.36076 55.8737 2.35025C55.8105 2.33046 55.7428 2.343 55.7368 2.38613C55.7293 2.44003 55.4445 2.43335 55.101 2.37454C54.7667 2.328 54.3588 2.33715 54.1974 2.3916C54.0359 2.44606 53.7128 2.478 53.4711 2.47732C53.2309 2.46586 52.7136 2.47077 52.315 2.4922C51.9164 2.51363 51.5363 2.55963 51.4764 2.59525C51.4165 2.63087 51.1625 2.63946 50.9238 2.61722C50.6851 2.59498 50.4081 2.61137 50.3143 2.65327C50.2221 2.68438 49.8881 2.71481 49.591 2.7174C49.2846 2.70771 48.8273 2.67701 48.5578 2.63948C48.2898 2.59117 48.0004 2.61684 47.9052 2.66952C47.8084 2.73298 47.4822 2.78649 47.1729 2.79837C46.865 2.79946 46.2184 2.78634 45.7365 2.77419C45.2546 2.76205 44.6589 2.77803 44.4127 2.80969C44.168 2.83057 43.8694 2.84395 43.7508 2.82744C43.6322 2.81093 43.2581 2.81381 42.9257 2.83346C42.5933 2.85312 42.0976 2.86101 41.8221 2.86661C41.548 2.86143 41.1985 2.84574 41.0245 2.8325C40.8613 2.82077 40.7274 2.83511 40.7214 2.87824C40.7139 2.93215 40.6585 2.93542 40.6091 2.89557C40.5597 2.85572 40.315 2.87658 40.0751 2.94209C39.8459 3.0091 39.5704 3.0147 39.4671 2.96735C39.3746 2.92149 39.2868 2.92027 39.2778 2.98496C39.2688 3.04965 39.2319 3.07748 39.178 3.06998C39.1364 3.05319 39.081 3.05648 39.0472 3.06275C39.0133 3.06903 38.8378 3.06659 38.6623 3.06414C38.4931 3.05127 38.0635 3.04366 37.7073 3.03736L37.677 3.03682C37.3152 3.03041 36.895 3.04884 36.7365 3.08173C36.5766 3.1254 36.2334 3.14356 35.9608 3.1276C35.6883 3.11163 35.1756 3.0842 34.8153 3.06701C34.455 3.04981 33.8809 3.06881 33.5469 3.09925C33.2115 3.14047 32.7328 3.18373 32.4897 3.19383C32.2465 3.20393 31.9479 3.21729 31.8263 3.22234L31.8068 3.22315C31.6645 3.22911 31.2655 3.24582 30.8888 3.24569C30.4917 3.25634 30.0931 3.27776 30.0023 3.2981C29.9101 3.32922 29.63 3.36715 29.3868 3.37725C29.1421 3.39813 28.4679 3.42515 27.8938 3.44412C27.3212 3.45231 26.5655 3.51198 26.2286 3.56398C25.8916 3.61598 25.5361 3.64339 25.4529 3.60982C25.3696 3.57625 25.0695 3.60042 24.7895 3.63836C24.5079 3.68709 24.1264 3.74386 23.9478 3.76296C23.7693 3.78207 23.3875 3.76187 23.0979 3.71056C22.796 3.66853 22.4866 3.68041 22.3222 3.75643C22.1793 3.83545 22.0194 3.8791 21.9562 3.85931C21.8945 3.82874 21.5989 3.82057 21.3018 3.82317C20.9939 3.82426 20.6261 3.86096 20.4662 3.90463C20.3077 3.93753 19.963 3.96648 19.6889 3.96129C19.4164 3.94533 18.8039 4.00292 18.3208 4.07852C17.847 4.16642 17.413 4.20491 17.3528 4.16356C17.2926 4.12221 17.0264 4.14009 16.7448 4.18881C16.4633 4.23754 16.0862 4.26196 15.9137 4.23794C15.7412 4.21392 15.4519 4.23959 15.2674 4.30182C15.0952 4.35478 14.6597 4.40406 14.2979 4.39765C13.9361 4.39124 13.536 4.42343 13.4084 4.47161C13.2807 4.51979 13.1454 4.54489 13.093 4.5266C13.0513 4.50982 12.8498 4.53672 12.6452 4.58517C12.4499 4.6459 11.9836 4.67987 11.6218 4.67346C11.26 4.66704 10.5059 4.71592 9.95805 4.78253C9.41175 4.83835 8.65461 4.90877 8.28831 4.9347C7.92202 4.96063 7.57429 5.01113 7.5036 5.04525C7.4329 5.07937 7.18521 5.12178 6.94052 5.14267C6.69732 5.15277 6.42028 5.16915 6.33253 5.16792C6.24328 5.17747 5.77095 5.2546 5.28333 5.36256C4.64955 5.49412 4.40363 5.60275 4.38562 5.73213C4.37061 5.83994 4.28312 5.9157 4.19687 5.90369C4.11062 5.89168 4.02615 5.94585 4.01714 6.01054C4.00213 6.11836 3.98057 6.11536 3.88626 6.00332C3.78268 5.87899 3.80097 5.82657 3.94986 5.70442C4.11103 5.573 4.11403 5.55145 3.97238 5.54272C3.87534 5.5292 3.73696 5.57587 3.65249 5.63005C3.56651 5.69501 3.5096 5.70907 3.51861 5.64438C3.53839 5.58119 3.4722 5.58299 3.38622 5.64795C3.30025 5.71291 2.93396 5.73882 2.57367 5.72163C2.21338 5.70443 1.901 5.7379 1.87043 5.79959C1.85214 5.85199 1.70448 5.88636 1.53198 5.86234C1.37026 5.83982 1.13334 5.88379 1.00274 5.95352C0.870631 6.03404 0.678344 6.0732 0.570531 6.05819C0.473499 6.04468 0.366909 5.94193 0.349576 5.82961C0.319961 5.72658 0.379327 5.53701 0.463529 5.40586C0.546231 5.28549 0.749033 5.17083 0.915256 5.161C1.09376 5.14189 1.27527 5.10124 1.34596 5.06712C1.41665 5.03301 1.79045 4.95317 2.19209 4.91018C2.59523 4.85641 2.96902 4.77657 3.03972 4.74245C3.11041 4.70833 3.38418 4.63652 3.66572 4.5878C3.94876 4.5283 4.3504 4.48533 4.55824 4.49229C4.76759 4.48846 5.10154 4.45801 5.28155 4.42812C5.46156 4.39823 5.7476 4.31717 5.91205 4.24116C6.0765 4.16514 6.42573 4.10385 6.69827 4.11981C6.97231 4.125 7.38473 4.0835 7.61236 4.02727C7.85228 3.96176 8.17545 3.92986 8.33717 3.95238C8.51117 3.96561 8.84512 3.93515 9.09432 3.88192C9.34351 3.8287 9.87125 3.74834 10.2699 3.72691C10.67 3.6947 11.3194 3.60926 11.7255 3.53393C12.1316 3.45859 12.63 3.35211 12.8238 3.30216C13.0299 3.24293 13.3839 3.2263 13.5995 3.25632C13.8259 3.28785 14.3815 3.24432 14.823 3.15192C15.2753 3.06103 15.8524 3.02047 16.1004 3.05499C16.3592 3.09102 16.7946 3.04177 17.0807 2.9607C17.3667 2.87963 17.8361 2.82407 18.1409 2.84454C18.4365 2.85273 18.8891 2.83881 19.1353 2.80714C19.3815 2.77548 19.7355 2.75884 19.908 2.78285C20.082 2.79609 20.3944 2.76266 20.5774 2.71121C20.7604 2.65976 21.519 2.57853 22.2516 2.52667C22.9827 2.48558 23.9585 2.42362 24.411 2.4097C24.8651 2.385 25.3946 2.3708 25.5716 2.36248C25.7486 2.35415 26.1149 2.32819 26.3719 2.29803C26.6396 2.26937 27.0398 2.23718 27.2599 2.23486C27.4908 2.23404 27.8556 2.2189 28.0694 2.18273C28.2818 2.15734 28.6436 2.16376 28.8592 2.19378C29.0856 2.22531 29.2734 2.21847 29.2809 2.16456C29.2869 2.12144 29.6454 2.07244 30.0857 2.0678C30.5274 2.05238 31.1893 2.03461 31.5526 2.03024C31.9159 2.02587 32.3685 2.01195 32.5455 2.00363C32.724 1.98452 33.0594 1.94332 33.2733 1.90715C33.4871 1.87098 33.8181 1.86211 33.9891 1.89691C34.1616 1.92092 34.417 1.90153 34.5446 1.85336C34.6722 1.80518 35.0523 1.75922 35.3818 1.76113C35.7112 1.76304 36.2299 1.74732 36.5408 1.72466C36.8394 1.71129 37.4151 1.68152 37.8122 1.67087C38.2093 1.66022 39.0821 1.62788 39.7455 1.59936C40.4074 1.58161 41.2001 1.57108 41.5065 1.58077C41.8021 1.58896 42.1331 1.5801 42.2238 1.55977C42.3146 1.53943 42.473 1.50654 42.5623 1.49699C42.6515 1.48743 43.0702 1.47978 43.4997 1.47363C43.9277 1.47827 44.4233 1.47035 44.5973 1.48359C44.7728 1.48604 45.0637 1.44958 45.2344 1.40741C45.4159 1.36674 45.7469 1.35788 45.984 1.39091C46.2212 1.42393 46.5399 1.42434 46.6998 1.38067C46.8598 1.33699 47.2138 1.32034 47.5001 1.31625C47.7957 1.32443 48.1497 1.3078 48.3082 1.27491C48.4666 1.24202 49.03 1.22154 49.578 1.23191C50.1276 1.23149 50.691 1.21102 50.8509 1.16735C51.0109 1.12368 51.3541 1.10552 51.6266 1.12148C51.8992 1.13745 52.358 1.15735 52.6629 1.17782C52.957 1.19679 53.334 1.17236 53.4955 1.11791C53.6569 1.06345 54.0109 1.04679 54.2928 1.07504C54.5839 1.11557 54.8163 1.10397 54.8238 1.05007C54.8298 1.00694 54.8852 1.00368 54.9346 1.04353C54.984 1.08338 55.0625 1.07234 55.1038 1.01215C55.1452 0.951968 55.3884 0.941864 55.6579 0.979392C55.9274 1.01692 56.2814 1.00026 56.4552 0.936524C56.6382 0.885073 57.006 0.848351 57.2785 0.864316C57.5957 0.875504 57.7529 0.930391 57.7007 0.989075C57.6476 1.05495 57.68 1.05945 57.7978 1.00259C57.8915 0.960687 58.0578 0.950855 58.1533 0.975147C58.2596 1.00094 58.5381 0.973769 58.7673 0.90676C59.0072 0.841251 59.7937 0.796883 60.5158 0.820488C61.2393 0.833311 61.9306 0.841614 62.0522 0.836564C62.1753 0.820732 62.2969 0.815716 62.3307 0.809438C62.3646 0.803161 62.5047 0.822675 62.6542 0.854472C62.8036 0.886269 63.1238 0.875892 63.37 0.844229C63.6177 0.801784 63.9115 0.743766 64.016 0.703369C64.1313 0.664474 64.453 0.643338 64.7378 0.650024C65.0334 0.65821 65.4183 0.656852 65.5968 0.637744C65.7738 0.629418 66.0493 0.623798 66.2033 0.623251C66.3572 0.622704 66.7759 0.615049 67.1407 0.599898C67.5055 0.584746 68.0011 0.576838 68.2413 0.5883C68.4815 0.599762 68.7786 0.597153 68.9002 0.592102C69.0233 0.57627 69.419 0.576392 69.7793 0.593585C70.141 0.599996 70.6553 0.61667 70.9263 0.643417C71.1988 0.659382 71.796 0.632645 72.2516 0.597159C72.7071 0.561672 73.1995 0.498315 73.3364 0.462421C73.4841 0.428029 73.9321 0.446456 74.3418 0.503498C74.9132 0.583057 75.1456 0.571469 75.3068 0.440045C75.465 0.330183 75.6543 0.312568 76.007 0.383667C76.2751 0.431977 76.68 0.444398 76.8938 0.408232C77.1092 0.361284 77.8343 0.363341 78.4886 0.399502C79.143 0.435663 79.8298 0.476305 80.0161 0.480261C80.2023 0.484217 80.4671 0.477116 80.624 0.455007C80.7795 0.443679 81.0242 0.422793 81.1781 0.422246C81.3336 0.410918 81.6999 0.384987 82.0107 0.36233C82.3108 0.338173 82.8649 0.305431 83.2282 0.301061C83.5915 0.296691 84.0656 0.28576 84.2735 0.292719C84.4828 0.288897 85.151 0.305006 85.7514 0.333661C86.3534 0.351535 86.9446 0.367897 87.0662 0.362846C87.1878 0.357795 87.3663 0.338695 87.4571 0.31836C87.5478 0.298025 87.8464 0.284637 88.1205 0.289821C88.396 0.284223 88.7362 0.287629 88.8902 0.287083C89.0441 0.286536 89.5643 0.26005 90.0522 0.229068Z" fill="#EF8A51"/>
<path d="M68.7281 9.32745C69.8014 9.43293 70.0015 9.41685 70.1441 9.26086C70.2759 9.10337 70.399 9.08752 70.8135 9.18919C71.0908 9.24978 71.6008 9.37572 71.9506 9.46838C72.3959 9.58534 72.6735 9.72292 72.8729 9.94851C73.0351 10.125 73.2115 10.3583 73.2719 10.4766C73.3572 10.6534 73.3314 10.7597 73.1738 11.0235C73.0713 11.2071 72.8751 11.4325 72.7522 11.5253C72.5464 11.6615 72.3724 11.6483 71.3449 11.4502C70.7026 11.3278 69.9539 11.1796 69.6873 11.1205C69.4193 11.0722 69.1142 10.9748 69.0016 10.9152C68.889 10.8555 68.5994 10.8042 68.3547 10.8251C68.1115 10.8352 67.7174 10.8243 67.4787 10.802C67.24 10.7798 66.9752 10.7869 66.9045 10.821C66.8231 10.8536 66.4921 10.8625 66.1857 10.8528C65.8701 10.8308 65.3451 10.8127 65.0387 10.803C64.7215 10.7918 64.1639 10.6922 63.8048 10.5873C63.3919 10.4748 62.9283 10.4103 62.585 10.4284C62.2864 10.4418 61.7908 10.4497 61.4859 10.4292C61.1903 10.421 60.8593 10.4299 60.7686 10.4503C60.6778 10.4706 59.874 10.4026 58.9762 10.2996C58.0876 10.2088 57.1544 10.1229 56.9142 10.1114C56.6725 10.1108 56.2814 10.0783 56.0442 10.0452C55.8055 10.023 55.2343 10.0204 54.7803 10.0451C54.3263 10.0698 53.7782 10.0595 53.5748 10.0201C53.3715 9.98085 53.0774 9.96187 52.919 9.99477C52.762 10.0169 52.5173 10.0378 52.3619 10.0491C52.2079 10.0497 51.6736 10.0192 51.1624 9.98098C50.6512 9.94277 50.2139 9.92588 50.1786 9.94293C50.1417 9.97078 50.0384 9.92343 49.9489 9.85602C49.8193 9.76103 49.7207 9.75829 49.5856 9.86037C49.4628 9.95317 49.352 9.95972 49.2316 9.87702C49.1112 9.79432 48.9696 9.7856 48.8189 9.84156C48.6928 9.87895 48.2882 9.94348 47.9219 9.96941C47.5556 9.99535 47.1569 10.0168 47.0338 10.0326C46.9107 10.0485 46.3965 10.0318 45.8838 10.0044C45.3726 9.96618 44.8538 9.98186 44.7262 10.03C44.554 10.083 44.4585 10.0587 44.3564 9.9236C44.245 9.77621 44.1603 9.75341 43.9326 9.80964C43.7727 9.85331 43.448 9.89602 43.2033 9.9169C42.9601 9.927 42.5169 9.95323 42.206 9.97589C41.9074 9.98926 41.4147 9.97561 41.1099 9.95514C40.8173 9.92539 40.451 9.95131 40.3111 10.0088C40.1589 10.0755 39.9343 10.1102 39.8064 10.0814C39.6662 10.0619 39.3383 10.0492 39.0643 10.044C38.7887 10.0496 38.4901 10.063 38.3994 10.0833C38.3086 10.1036 37.9067 10.0696 37.5093 10.0033C36.9717 9.91749 36.7393 9.92913 36.6473 10.0372C36.5569 10.1345 36.3337 10.1584 35.9564 10.1059C35.6437 10.0623 35.3251 10.0619 35.2636 10.1083C35.2022 10.1547 34.9438 10.1957 34.7006 10.2058C34.4574 10.2159 34.0309 10.2005 33.7506 10.1614C33.458 10.1317 33.2256 10.1433 33.2196 10.1864C33.212 10.2403 32.9458 10.2582 32.6409 10.2377C32.3238 10.2265 31.7233 10.1979 31.2983 10.1717C30.8826 10.1578 30.3839 10.1872 30.1901 10.2372C30.0056 10.2994 29.5716 10.3379 29.2437 10.3252C28.9158 10.3125 28.3677 10.3022 28.0412 10.2787C27.7133 10.266 27.3377 10.2797 27.2116 10.317C27.0855 10.3544 26.4374 10.3521 25.7815 10.3267C25.0502 10.2908 24.5299 10.3173 24.4532 10.3946C24.3766 10.4718 24.1549 10.4849 23.9315 10.4318C23.7066 10.3895 23.4095 10.3921 23.2711 10.4388C23.1205 10.4947 22.8096 10.5174 22.5694 10.5059C22.3307 10.4837 21.9982 10.5034 21.8275 10.5455C21.646 10.5862 21.2935 10.5921 21.024 10.5546C20.7544 10.517 20.345 10.5369 20.1174 10.5932C19.8775 10.6587 19.5989 10.6859 19.5019 10.6723C19.3941 10.6573 19.2923 10.5992 19.2689 10.53C19.2456 10.4608 19.2711 10.2775 19.329 10.0987C19.4081 9.84599 19.531 9.75319 19.92 9.6425C20.1845 9.55843 20.5029 9.48185 20.626 9.46602C20.7491 9.45019 21.1016 9.44433 21.3972 9.45252C21.7036 9.46221 22.1052 9.41921 22.2897 9.35698C22.4835 9.30703 23.0268 9.27279 23.5057 9.3065C23.9861 9.32942 24.5602 9.31044 24.7756 9.26349C24.9909 9.21655 25.522 9.19156 25.9377 9.20548C26.3641 9.2209 26.7735 9.20097 26.8565 9.15757C26.9287 9.11267 27.1042 9.11511 27.2414 9.15619C27.3662 9.20655 27.5972 9.20574 27.7556 9.17285C27.9155 9.12918 28.1941 9.10201 28.3696 9.10446C28.5574 9.09764 28.9991 9.08221 29.3639 9.06706C29.7272 9.06269 30.246 9.04701 30.5185 9.06297C30.7925 9.06816 31.0911 9.0548 31.1819 9.03446C31.2726 9.01413 31.405 9.01054 31.4574 9.02883C31.5098 9.04711 31.8207 9.02446 32.1238 8.97874C32.4377 8.93452 33.0565 8.91077 33.5045 8.92919C33.951 8.95839 34.5467 8.94243 34.8268 8.90449C35.1083 8.85576 35.6531 8.81073 36.0503 8.80008C36.4489 8.77865 36.8952 8.73088 37.0551 8.68721C37.2151 8.64354 37.4936 8.6164 37.6691 8.61885C37.8539 8.63359 38.2941 8.62892 38.6589 8.61377C39.0237 8.59862 39.4271 8.62183 39.5613 8.68447C39.7077 8.73783 39.82 8.72049 39.8674 8.61718C39.927 8.50459 40.1055 8.48549 40.5368 8.54554C40.8602 8.59057 41.1573 8.58797 41.1987 8.52779C41.24 8.46761 41.4587 8.47605 41.6913 8.54142C41.924 8.60679 42.1858 8.62124 42.2688 8.57784C42.341 8.53294 42.5626 8.51985 42.7351 8.54387C42.9169 8.58017 43.1139 8.58564 43.1738 8.55002C43.2323 8.52518 43.6078 8.51154 44.0005 8.53323C44.3946 8.54415 44.7932 8.5227 44.8855 8.49158C44.9792 8.44969 45.5381 8.46154 46.1248 8.51026C46.7007 8.55748 47.3165 8.55531 47.498 8.51464C47.6687 8.47247 48.0551 8.46031 48.3492 8.47928C48.654 8.49975 49.1497 8.49184 49.4498 8.46768C49.7607 8.44503 50.224 8.43259 50.4951 8.45934C50.7676 8.47531 51.4019 8.49768 51.9161 8.51433C52.4319 8.52019 52.9677 8.53983 53.1186 8.56084C53.2695 8.58186 53.6113 8.5745 53.8913 8.53656C54.1699 8.50939 54.8042 8.53177 55.3124 8.59154C55.8206 8.65131 56.301 8.67424 56.384 8.63084C56.4547 8.59672 57.2184 8.63711 58.0746 8.72335C58.9201 8.8081 59.696 8.83923 59.7883 8.80811C59.882 8.76621 60.5703 8.79608 61.3187 8.86732C62.0671 8.93855 62.8108 8.96514 62.9908 8.93525C63.1615 8.89308 63.9452 8.94727 64.7323 9.05685C65.5085 9.16493 66.4525 9.2524 66.8173 9.23725C67.1821 9.2221 68.0443 9.26522 68.7281 9.32745Z" fill="#EF8A51"/>
</svg>
