<svg width="210" height="90" viewBox="0 0 210 90" fill="none" xmlns="http://www.w3.org/2000/svg">
<path d="M39.4489 2.05501C38.2986 1.80026 36.522 1.87087 31.0171 2.29168C27.1795 2.6216 23.5605 2.99207 22.9769 3.14598C22.3933 3.29989 20.9538 3.57099 19.7774 3.73912C18.601 3.90725 16.7335 4.23696 15.6414 4.45522C14.5492 4.67347 12.9736 4.92623 12.1677 4.98372C11.3619 5.04122 10.5634 5.21046 10.4382 5.35973C10.3131 5.50899 9.47012 5.82174 8.59471 6.0526C7.7193 6.28347 6.52338 6.56525 5.93978 6.71916C5.35433 6.84513 4.48446 7.1598 4.01566 7.41779C3.57372 7.67386 3.07437 7.87789 2.94006 7.88748C2.80575 7.89706 2.171 8.50371 1.54544 9.25004C0.91989 9.99636 0.38228 10.8487 0.348794 11.1598C0.34217 11.469 0.352114 12.0297 0.377872 12.4208C0.40363 12.8119 0.4636 13.3128 0.505181 13.5344C0.573624 13.7541 0.85512 13.9305 1.1506 13.9094C1.44608 13.8883 1.87221 13.8018 2.08158 13.7026C2.31782 13.6016 2.52094 12.9977 2.58055 12.2636C2.69315 11.1048 2.76638 10.9873 3.64363 10.7844C4.14849 10.6642 4.7998 10.309 5.07504 9.98059C5.34845 9.62427 5.92286 9.33068 6.38135 9.32604C6.81114 9.29538 7.49668 9.05 7.88489 8.79776C8.29997 8.5436 8.74741 8.37134 8.88724 8.44556C9.02707 8.51979 9.23461 8.39271 9.32918 8.18949C9.47379 7.92657 10.4335 7.74584 12.8779 7.57144C14.7314 7.4392 16.7387 7.18372 17.3742 6.99804C18.2996 6.70747 18.5701 6.71624 18.7802 7.03806C19.019 7.38591 19.1802 7.37441 19.9139 7.04138C20.3846 6.81133 21.0988 6.59196 21.5017 6.56322C21.9315 6.53255 22.2984 6.36605 22.3698 6.22062C22.4393 6.04725 22.744 6.16584 23.0597 6.45206C23.3754 6.73828 23.8218 6.95906 24.0367 6.94373C24.2516 6.92839 24.4841 6.77146 24.5555 6.62603C24.6269 6.4806 24.5334 6.29079 24.3936 6.21656C24.2269 6.14425 24.2391 5.91885 24.4105 5.654C24.582 5.38916 24.9989 5.16294 25.3231 5.16788C25.6723 5.14297 26.0344 5.31361 26.1566 5.52943C26.3704 5.90713 26.5853 5.8918 27.5876 5.53961C28.4594 5.25287 28.9429 5.21838 29.3874 5.41121C29.7476 5.55391 30.2672 5.65718 30.5627 5.6361C30.8582 5.61502 31.0889 5.43016 31.076 5.23461C31.0613 5.01111 31.4837 4.8687 32.4813 4.85367C33.5039 4.80878 33.9532 4.66445 34.146 4.31388C34.387 3.87567 34.4676 3.86991 34.773 4.40948C35.0498 4.92303 35.2989 5.01752 36.2354 4.89457C36.8782 4.82064 37.5821 4.85464 37.8044 4.95105C38.0535 5.04555 38.3972 4.93682 38.6493 4.66622C38.8745 4.39755 39.372 4.16558 39.748 4.13875C40.1778 4.10809 40.4575 4.25654 40.474 4.50797C40.4961 4.84321 40.8221 4.87608 42.0004 4.73589C42.8313 4.64854 43.5242 4.5149 43.5724 4.42726C43.6206 4.33962 44.8562 4.25146 46.3105 4.20385C48.25 4.14967 49.1744 4.25213 49.7911 4.60108C50.2393 4.84978 50.7913 5.03495 50.9524 5.02345C51.1405 5.01004 51.2888 4.80298 51.2741 4.57949C51.2557 4.30012 51.4113 4.20481 51.7141 4.29547C51.9883 4.36012 52.8033 4.44232 53.561 4.47247C54.2918 4.50454 55.1948 4.69271 55.53 4.86527C56.0893 5.16218 56.2237 5.15261 56.5166 4.68263C56.8363 4.21073 56.89 4.2069 57.403 4.61939C57.69 4.87959 58.1345 5.0724 58.3763 5.05516C58.6449 5.03599 58.8543 4.93685 58.8451 4.79717C58.8377 4.68542 59.1814 4.5767 59.5843 4.54795C60.1753 4.50579 60.3438 4.60604 60.2872 4.97497C60.2537 5.2861 60.4009 5.47208 60.6426 5.45483C60.8575 5.4395 61.0364 5.2864 61.0272 5.14671C61.018 5.00703 61.4654 4.83476 62.0027 4.79644C62.5668 4.75619 63.908 4.63244 64.9788 4.49991C66.5869 4.32905 67.049 4.38027 67.4258 4.7744C67.7416 5.06062 68.2917 5.21785 68.9901 5.16802C69.5811 5.12586 70.2905 5.24366 70.547 5.4499C70.9738 5.78433 71.1619 5.77092 71.7595 5.41954C72.2014 5.16347 72.76 5.03941 73.1703 5.12241C73.5537 5.20733 74.3614 5.17777 74.9755 5.07782C75.8583 4.95871 76.1306 4.99541 76.1527 5.33065C76.1674 5.55414 76.4313 5.87214 76.7359 5.99074C77.0406 6.10934 77.6121 6.18084 78.0113 6.09622C78.493 6.03379 78.7487 5.81906 78.7053 5.56955C78.6564 5.23623 78.9213 5.1612 80.0282 5.16644C80.8646 5.1629 81.5221 5.31245 81.7017 5.58032C81.9369 5.87229 82.3435 5.89941 83.6505 5.66582C85.065 5.42457 85.5253 5.44787 86.5005 5.91159C87.1672 6.20083 87.7552 6.52375 87.8432 6.62975C87.9293 6.70781 88.397 6.84286 88.861 6.92202C89.4056 6.99544 89.9105 6.87522 90.1912 6.63064C90.4219 6.44578 90.8407 6.2475 91.163 6.2245C91.4854 6.2015 92.03 6.27491 92.4171 6.4157C92.8042 6.55649 93.6443 6.60883 94.314 6.53299C94.9837 6.45714 95.9971 6.27256 96.5807 6.11865C97.4292 5.88971 97.7553 5.92258 98.1858 6.31288C98.5015 6.5991 99.009 6.92779 99.3173 7.10227C99.6507 7.24689 100.319 7.56407 100.791 7.75498C101.595 8.09051 101.783 8.0771 102.404 7.66793C103.027 7.28669 103.188 7.27519 103.559 7.58552C103.873 7.8438 104.305 7.84109 105.18 7.61023C105.844 7.45057 106.65 7.39306 106.982 7.50974C107.34 7.62451 108.528 7.62402 109.652 7.48765C111.208 7.34856 111.778 7.39212 112.04 7.68217C112.216 7.89417 112.781 8.27489 113.281 8.49182C113.756 8.73861 114.362 8.91993 114.576 8.9046C114.791 8.88927 114.966 8.68029 114.952 8.4568C114.933 8.17744 115.089 8.08213 115.394 8.20073C115.668 8.26538 115.98 8.49574 116.102 8.71156C116.251 8.92547 116.579 8.98629 116.921 8.84963C117.397 8.70338 117.648 8.82581 117.98 9.36346C118.28 9.81922 118.755 10.066 119.38 10.1337C119.898 10.209 120.516 10.1649 120.725 10.0658C120.935 9.96665 122.047 10.0557 123.169 10.2844C124.288 10.4852 125.589 10.5608 126.013 10.4464C126.545 10.3242 126.953 10.3793 127.24 10.6395C127.47 10.8477 128.271 11.1273 129.032 11.2133C130.039 11.338 130.762 11.2583 131.844 10.8724C132.635 10.5915 133.456 10.3644 133.618 10.3529C133.832 10.3376 133.958 10.6093 133.927 10.9484C133.906 11.455 134.05 11.5851 134.644 11.5989C135.078 11.6241 135.773 11.9393 136.231 12.3277C136.862 12.9002 137.247 13.013 137.94 12.8794C138.447 12.7871 139.077 12.5176 139.359 12.301C139.642 12.0843 140.066 11.9699 140.287 12.0383C140.507 12.1068 141.068 12.4317 141.547 12.7343C142.139 13.1131 142.633 13.2462 143.192 13.1222C143.723 12.9907 144.106 13.0664 144.34 13.349C144.602 13.6391 144.984 13.696 145.516 13.5739C146.126 13.4181 146.402 13.5107 146.671 13.9124C146.88 14.2063 147.219 14.4348 147.38 14.4233C147.568 14.4099 147.96 14.6345 148.222 14.9245C148.542 15.2666 149.065 15.4257 149.602 15.3874C150.086 15.3529 150.494 15.408 150.502 15.5197C150.511 15.6594 150.848 15.8599 151.264 16.0267C151.705 16.1637 152.629 16.2661 153.381 16.2125C154.429 16.1377 154.814 16.2506 155.085 16.6803C155.383 17.1081 155.767 17.1931 156.868 17.1145C157.889 17.0417 158.19 17.1044 157.907 17.321C157.573 17.5694 157.603 17.6234 157.979 17.5966C158.248 17.5774 158.635 17.7182 158.834 17.8724C159.035 18.0545 159.625 18.4054 160.155 18.6763C160.74 18.9433 161.367 19.0389 161.709 18.9023C162.113 18.7611 162.369 18.8271 162.477 19.1001C162.574 19.3457 162.962 19.4865 163.445 19.452C163.982 19.4137 164.353 19.5744 164.556 19.9341C164.801 20.3657 165.048 20.4323 165.927 20.2573C166.699 20.09 167.107 20.1451 167.342 20.437C167.547 20.675 168.043 20.8361 168.444 20.7794C168.955 20.743 169.401 20.9638 169.81 21.4398C170.34 22.1037 170.587 22.1703 171.737 22.0041C172.888 21.8658 173.108 21.9343 173.498 22.5239C173.767 22.9257 174.189 23.1764 174.538 23.1515C174.887 23.1265 175.428 23.1441 175.756 23.2049C176.111 23.2638 176.396 23.4961 176.411 23.7195C176.425 23.943 176.599 24.1271 176.76 24.1156C176.949 24.1022 177.408 24.5185 177.765 25.0263C178.149 25.5322 178.578 25.8946 178.707 25.8012C178.836 25.7078 179.174 25.9362 179.415 26.312C179.656 26.6878 180.052 26.9682 180.267 26.9529C180.482 26.9376 180.763 26.693 180.905 26.4021C181.12 25.9658 181.146 25.9639 181.318 26.5131C181.426 26.9264 181.682 27.1326 182.031 27.1077C182.354 27.0847 182.637 27.289 182.74 27.6185C182.841 27.9201 183.156 28.2063 183.457 28.269C183.758 28.3317 184.017 28.5659 184.031 28.7894C184.05 29.0688 184.328 29.1893 184.918 29.1471C185.4 29.0847 185.977 29.24 186.155 29.4799C186.358 29.69 186.662 29.8086 186.791 29.7152C186.92 29.6218 187.115 29.7202 187.207 29.882C187.273 30.0738 187.612 30.3022 187.915 30.3929C188.22 30.5115 188.455 30.8034 188.418 31.0587C188.394 31.5095 188.585 31.552 189.789 31.3819C191.047 31.236 191.212 31.2804 191.245 31.7832C191.271 32.1743 191.583 32.4047 192.352 32.6024C192.984 32.7818 193.406 33.0325 193.338 33.2338C193.297 33.4332 193.559 33.7232 193.944 33.8361C194.358 33.9749 194.59 34.211 194.495 34.4143C194.428 34.6156 194.505 34.5539 194.703 34.2872C194.873 33.9944 195.101 33.7816 195.207 33.746C195.341 33.7364 195.377 33.8742 195.306 34.0196C195.235 34.165 195.433 34.7123 195.706 35.1699C195.98 35.6556 196.479 36.2655 196.792 36.4959C197.132 36.7522 197.602 36.9152 197.845 36.9259C198.114 36.9067 198.397 37.1111 198.494 37.3567C198.593 37.6304 198.564 37.9974 198.412 38.1485C198.26 38.2997 198.167 38.5309 198.174 38.6426C198.184 38.7823 198.427 38.793 198.717 38.6881C199.086 38.5495 199.312 38.7018 199.501 39.1094C199.659 39.463 199.978 39.8051 200.227 39.8996C200.505 40.0201 200.713 40.314 200.73 40.5654C200.748 40.8448 201.132 41.3506 201.615 41.7092C202.097 42.0677 202.476 42.4898 202.485 42.6295C202.494 42.7691 202.823 43.2509 203.23 43.699C203.636 44.1191 203.97 44.6847 203.985 44.9082C203.999 45.1317 204.23 45.7609 204.533 46.2725C204.961 47.0279 205.097 47.8602 205.207 50.3504C205.321 52.5034 205.245 53.8 205.013 54.3779C204.828 54.8402 204.669 55.3006 204.675 55.3844L204.697 55.7197C204.733 55.8575 204.463 56.2696 204.139 56.6857C203.816 57.1017 203.482 57.7711 203.429 58.1959C203.351 58.6505 202.892 59.4691 202.417 60.0363C201.942 60.6035 201.457 61.0311 201.317 60.9568C201.206 60.9086 200.884 61.3526 200.626 61.9324C200.34 62.5141 199.588 63.3818 198.917 63.8507C198.275 64.3456 197.533 64.9599 197.284 65.2864C197.061 65.583 196.463 65.9343 195.987 66.0806C195.536 66.197 195.198 66.3895 195.286 66.4955C195.349 66.6314 194.86 67.003 194.182 67.3601C193.504 67.7173 192.706 68.3075 192.406 68.6657C192.108 69.0519 191.696 69.3619 191.508 69.3753C191.32 69.3887 190.982 69.5813 190.782 69.8201C190.58 70.031 189.642 70.5469 188.697 70.9512C187.754 71.3833 186.396 72.0697 185.693 72.4566C184.964 72.8735 184.014 73.1939 183.53 73.2284C183.072 73.233 182.492 73.4428 182.215 73.7432C181.963 74.0138 181.233 74.4028 180.572 74.6183C179.91 74.8059 179.069 75.1466 178.648 75.3169C178.256 75.5133 177.544 75.7606 177.066 75.8789C176.613 75.9673 175.739 76.2262 175.158 76.408C174.576 76.5899 173.385 76.9554 172.51 77.1863C171.635 77.4171 170.206 77.8559 169.334 78.1426C168.461 78.4014 166.019 79.0247 163.892 79.5133C161.765 80.0018 159.26 80.4893 158.295 80.5862C157.332 80.7111 155.704 80.9956 154.695 81.236C153.685 81.4765 151.363 81.8667 149.543 82.1087C147.726 82.3787 146.06 82.4976 145.836 82.3732C145.614 82.2768 145.002 82.4047 144.451 82.6405C143.692 83.0034 140.982 83.2528 131.928 83.8707C125.587 84.2951 119.347 84.6279 118.079 84.6342L117.729 84.6359C116.449 84.6422 114.589 84.6513 113.358 84.6622C112.01 84.6743 109.583 84.7071 107.964 84.7103C106.347 84.7415 104.804 84.6831 104.582 84.5867C104.36 84.4903 103.437 84.4158 102.547 84.4231C101.657 84.4305 100.364 84.4666 99.637 84.4904C98.9386 84.5402 98.369 84.4967 98.3598 84.357C98.3524 84.2453 97.1613 84.1899 95.7071 84.2375C94.2797 84.2832 92.4726 84.2999 91.7418 84.2678C90.986 84.2656 88.7918 84.1414 86.868 84.0261C84.9442 83.9107 83.203 83.6981 83.0595 83.568C82.916 83.4379 82.4788 83.3569 82.1028 83.3837C81.7267 83.4105 80.8866 83.3582 80.204 83.2385C79.5214 83.1188 78.359 83.0894 77.6319 83.1132C76.8797 83.1669 76.0342 83.0307 75.724 82.8283C75.3313 82.6037 74.8692 82.5525 74.2874 82.7344C73.625 82.922 73.4352 82.9074 73.4131 82.5722C73.3928 82.2649 73.0631 82.1761 72.1767 82.2394C71.5051 82.2873 70.8513 82.1936 70.7309 82.0057C70.6106 81.8178 69.6826 81.6595 68.6276 81.6225C66.8974 81.5775 66.6862 81.6487 66.2394 82.2419C65.966 82.5983 65.7202 83.3736 65.6764 83.9381C65.6028 84.8696 65.725 85.0854 66.9897 86.2583C68.1378 87.2991 68.586 87.5477 69.3113 87.496C69.7948 87.4615 70.3699 87.5889 70.569 87.7431C70.8273 87.9773 71.2858 87.9726 72.0288 87.7793C72.7717 87.5859 73.2589 87.6073 73.5154 87.8136C73.7431 87.9938 74.5174 88.2754 75.2824 88.4173C76.2928 88.5978 76.8588 88.5855 77.4887 88.316C77.9362 88.1437 78.405 87.8857 78.5032 87.7384C78.6033 87.619 79.0545 87.5026 79.5111 87.47C79.9678 87.4374 80.4568 87.4867 80.5716 87.5908C80.7133 87.693 80.9087 87.7913 80.9893 87.7856C81.0967 87.7779 81.5699 87.9968 82.0181 88.2455C82.7191 88.6445 83.0164 88.6514 83.9132 88.3348C84.7312 88.0519 85.1091 88.053 85.5304 88.3036C85.9045 88.5202 86.8962 88.5524 88.5055 88.4001C89.8449 88.2484 91.0732 88.0485 91.2288 87.9532C91.4614 87.7963 91.6068 87.9543 91.6594 88.3435C91.7768 88.8965 91.9166 88.9707 92.7169 88.8294C93.2255 88.765 93.7951 88.8086 93.9404 88.9667C94.1145 89.1507 94.736 89.1625 95.4826 89.025C96.4154 88.8462 96.7665 88.8492 96.783 89.1007C96.8014 89.38 97.1793 89.3812 98.3252 89.1591C99.258 88.9803 99.9851 88.9564 100.157 89.1125C100.303 89.2706 101.227 89.373 102.196 89.332C103.167 89.3189 104.682 89.3792 105.579 89.4836C106.91 89.6132 107.258 89.5603 107.533 89.2319C107.755 88.9074 108.716 88.7546 111.914 88.5544C114.173 88.4214 116.168 88.3913 116.31 88.4935C116.451 88.5956 117.565 88.7126 118.755 88.7401C119.944 88.7675 121.991 88.7056 123.332 88.5819C124.674 88.4581 126.283 88.3152 126.953 88.2394C127.625 88.1915 128.943 88.1255 129.915 88.1403C130.886 88.1272 131.835 88.1998 132.004 88.3C132.199 88.3984 133.32 88.2061 134.487 87.8983C135.655 87.5905 137.017 87.381 137.479 87.4322C138.131 87.498 138.554 87.3556 139.063 86.8982C139.471 86.5323 139.911 86.2483 140.046 86.2387C140.18 86.2291 140.272 86.391 140.202 86.5643C140.109 86.7955 140.339 87.0037 140.695 87.0905C141.052 87.1773 141.965 87.1122 142.764 86.9429C143.775 86.7304 144.246 86.5004 144.331 86.1575C144.417 85.8146 144.572 85.7193 144.8 85.8995C144.999 86.0537 145.096 86.2994 144.975 86.5045C144.857 86.7655 144.967 86.7858 145.466 86.5818C145.833 86.4153 146.66 86.272 147.333 86.2521C148.007 86.2321 148.857 86.0311 149.274 85.8049C149.664 85.5806 149.97 85.3061 149.961 85.1664C149.953 85.0547 150.163 84.9556 150.404 84.9383C150.673 84.9192 151.058 85.032 151.232 85.216C151.521 85.5042 151.734 85.4609 152.249 85.0874C152.79 84.6839 152.978 84.6705 153.51 84.9694C153.956 85.1901 154.471 85.2096 155.212 84.9883C155.795 84.8344 156.703 84.6854 157.217 84.7049C157.729 84.6964 158.42 84.5348 158.755 84.2864C159.245 83.9427 159.379 83.9331 159.706 84.387C160.033 84.8408 160.087 84.837 160.489 84.3873C160.714 84.1186 161.265 83.8828 161.722 83.8502C162.178 83.8176 162.549 83.707 162.54 83.5673C162.532 83.4556 162.748 83.0472 162.991 82.6369C163.406 81.9618 163.511 81.9262 163.967 82.2867C164.25 82.491 164.722 82.6819 165.019 82.6887C165.343 82.6937 166.076 82.7537 166.674 82.8233C167.489 82.9055 167.86 82.7948 168.133 82.4385C168.331 82.1717 168.72 81.9195 168.963 81.9302C169.232 81.911 169.514 81.6944 169.605 81.4353C169.746 81.1165 170.009 81.0135 170.473 81.0927C170.91 81.1738 171.308 81.0612 171.533 80.7925C171.733 80.5537 172.152 80.3554 172.451 80.3902C172.748 80.3971 174.134 80.1298 175.513 79.7508C176.893 79.3997 178.118 79.1439 178.229 79.1921C178.367 79.2384 178.972 78.9988 179.623 78.6436C180.274 78.2884 180.876 77.9929 180.983 77.9852C181.119 78.0036 181.375 77.7888 181.573 77.5221C181.798 77.2534 182.35 77.0176 182.889 77.0072C183.399 76.9708 184.167 76.7476 184.607 76.4636C185.049 76.2075 185.604 76.0276 185.878 76.0922C186.125 76.1588 186.414 76.026 186.535 75.8208C186.63 75.6176 187.009 75.2257 187.42 74.9156C187.806 74.6355 188.329 74.3737 188.597 74.3545C188.866 74.3353 189.181 74.2006 189.333 74.0494C189.46 73.9281 190.136 73.543 190.872 73.2379C191.607 72.9328 192.627 72.439 193.146 72.1213C193.849 71.7343 194.125 71.406 194.093 70.9311C194.057 70.3723 194.135 70.3387 195.087 70.4392C195.902 70.5214 196.219 70.4146 196.723 69.8734C197.075 69.4834 197.613 69.052 197.953 68.8874C198.318 68.693 198.438 68.4599 198.317 68.272C198.14 68.0321 198.218 67.9984 198.577 68.1132C198.826 68.2077 199.231 68.2069 199.44 68.1077C199.65 68.0086 199.821 67.7437 199.806 67.5202C199.792 67.2967 199.917 67.1475 200.056 67.2217C200.196 67.2959 200.509 67.1333 200.71 66.8944C200.91 66.6556 201.074 66.279 201.061 66.0835C201.05 65.9158 201.452 65.4661 201.969 65.1205C202.486 64.7749 202.992 64.2616 203.108 63.9727C203.226 63.7116 203.507 63.4671 203.722 63.4517C203.936 63.4364 204.11 63.1995 204.091 62.9202C204.075 62.6687 204.344 62.2565 204.708 62.0342C205.073 61.8397 205.344 61.4554 205.33 61.2319C205.315 61.0085 205.49 60.7995 205.705 60.7842C205.92 60.7688 206.315 60.2074 206.539 59.5177C206.792 58.8541 207.021 57.8273 207.063 57.2349C207.107 56.6704 207.318 56.1783 207.506 56.1648C207.669 56.1813 208.03 55.9309 208.253 55.6343C208.527 55.278 208.674 54.65 208.621 53.8398C208.575 53.1414 208.637 52.4353 208.762 52.2861C208.887 52.1368 208.996 50.9221 208.963 49.6053C208.936 47.5583 208.857 47.171 208.397 46.7546C208.085 46.5243 207.837 46.0368 207.813 45.6736C207.791 45.3384 207.584 44.6514 207.309 44.1658C207.063 43.7062 206.683 43.2562 206.516 43.1839C206.324 43.1415 205.87 42.388 205.519 41.571C205.168 40.754 204.8 40.0785 204.693 40.0862C204.558 40.0958 204.398 39.7143 204.288 39.273C204.176 38.8038 203.907 38.4021 203.687 38.3336C203.466 38.2651 203.144 38.2881 203.015 38.3815C202.886 38.4749 202.674 38.1251 202.561 37.628C202.443 37.075 201.996 36.4333 201.366 35.8888C200.825 35.4503 200.314 35.0657 200.233 35.0715C200.153 35.0772 199.839 34.8189 199.519 34.4768C199.229 34.1608 198.959 33.759 198.923 33.6212C198.914 33.4815 198.541 33.1433 198.066 32.8965C197.619 32.6757 197.219 32.3394 197.21 32.1997C197.201 32.06 196.706 31.5059 196.134 31.0135C195.535 30.5229 194.749 30.0737 194.369 30.0447C193.99 30.0156 193.262 29.6185 192.774 29.1761C192.259 28.7357 191.642 28.3867 191.428 28.4021C191.213 28.4174 190.843 28.135 190.656 27.7554C190.383 27.2977 190.102 27.1213 189.814 27.2542C189.497 27.361 189.33 27.2887 189.312 27.0093C189.297 26.7858 188.954 26.5015 188.542 26.3906C188.103 26.2815 187.402 25.8825 186.92 25.5239C186.436 25.1375 185.798 24.8743 185.475 24.8973C185.126 24.9222 184.678 24.6735 184.439 24.3256C184.198 23.9498 183.445 23.5825 182.295 23.3278C181.335 23.0875 180.392 22.7057 180.216 22.4937C180.038 22.2538 179.362 21.8249 178.748 21.5039C178.108 21.2127 177.337 20.987 177.042 21.0081C176.746 21.0292 176.438 20.8547 176.343 20.637C176.247 20.4192 175.516 19.9662 174.738 19.6287C173.933 19.2932 173.134 19.0415 172.999 19.051C172.865 19.0606 172.317 18.9313 171.844 18.7125C171.345 18.5235 170.867 18.2208 170.777 18.0869C170.687 17.953 170.329 17.8382 169.953 17.865C169.577 17.8919 169.218 17.7771 169.128 17.6432C169.039 17.5092 168.68 17.3945 168.304 17.4213C167.928 17.4481 167.57 17.3334 167.48 17.1994C167.39 17.0655 167.085 16.9469 166.79 16.968C166.494 16.989 166.186 16.8146 166.091 16.5968C165.995 16.3791 165.66 16.2065 165.338 16.2295C164.989 16.2544 164.161 15.9767 163.465 15.6614C162.77 15.3462 161.496 14.8476 160.643 14.5998C159.763 14.3538 158.985 14.0163 158.895 13.8824C158.805 13.7485 158.393 13.6375 157.936 13.6701C157.48 13.7027 156.853 13.6071 156.518 13.4345C156.156 13.2639 155.437 13.0064 154.914 12.8473C154.39 12.6881 153.439 12.5876 152.821 12.6317C152.177 12.6776 151.657 12.5744 151.648 12.4347C151.639 12.295 151.361 12.1745 151.039 12.1975C150.689 12.2224 150.222 12.0874 149.992 11.8792C149.764 11.699 149.015 11.3876 148.327 11.184C147.639 10.9805 146.356 10.7633 145.464 10.7427C144.57 10.6942 143.309 10.3913 142.667 10.0722C141.999 9.75499 141.26 9.61117 141.024 9.71223C140.761 9.8152 140.107 9.72151 139.58 9.5065C139.051 9.26354 138.175 9.07344 137.659 9.02604C137.145 9.00658 136.678 8.87155 136.642 8.73378C136.577 8.57 136.333 8.55929 136.097 8.66035C135.836 8.79126 134.524 8.54803 133.148 8.14099C131.774 7.76189 130.516 7.51481 130.36 7.61012C130.178 7.70735 129.744 7.68213 129.409 7.50957C129.049 7.36687 128.526 7.20773 128.228 7.20088C127.929 7.16608 126.763 7.08087 125.649 6.96389C124.536 6.87485 123.472 6.69816 123.329 6.56806C123.185 6.43796 122.533 6.3722 121.915 6.41628C121.271 6.46228 120.538 6.40226 120.287 6.27983C120.009 6.15931 118.859 5.90456 117.741 5.73171C116.621 5.53092 115.396 5.36573 115.018 5.36463C114.64 5.36352 113.961 5.29969 113.526 5.24654C113.089 5.16546 112.22 5.08709 111.625 5.07338C111.029 5.03173 110.156 4.8975 109.716 4.76055C109.275 4.62359 108.047 4.43047 106.989 4.33759C105.93 4.24471 104.657 4.16717 104.143 4.14771C103.63 4.15619 102.599 4.0614 101.837 3.97538C101.101 3.8595 100.399 3.85343 100.295 3.91697C100.164 3.98243 99.3762 3.89834 98.5287 3.73425C97.6526 3.54415 96.4541 3.37705 95.8595 3.36334C95.263 3.32169 93.7477 3.26139 92.4741 3.18385C91.2024 3.13424 89.739 3.04215 89.2249 3.02269C88.709 2.97529 87.6772 2.8805 86.9141 2.76654C86.1777 2.65067 84.3401 2.61337 82.8321 2.66482C80.8962 2.77487 79.9737 2.70034 79.6043 2.41795C79.3209 2.21362 79.0413 2.06518 78.9894 2.09695C78.9662 2.15474 78.0187 2.11006 76.9582 1.98924C75.8727 1.89828 74.9233 1.82569 74.8427 1.83144C74.764 1.86512 74.1748 1.93523 73.5033 1.98314C72.8336 2.05899 71.811 2.10387 71.2163 2.09016C70.6217 2.07644 69.9983 2.03671 69.8567 1.93454C69.7168 1.86031 69.0343 1.74061 68.3554 1.67678C67.6764 1.61294 66.6502 1.60197 66.061 1.67206C65.4701 1.71423 64.3882 1.67911 63.6287 1.62103C62.8943 1.53309 61.1891 1.45827 59.8405 1.47028C58.4918 1.48229 56.7885 1.43542 56.029 1.37733C55.0241 1.28062 54.5174 1.37291 54.2922 1.64159C54.0151 1.94204 53.8521 1.9256 53.5076 1.61336C53.2188 1.32522 52.6205 1.25563 51.6015 1.35639C50.7975 1.44182 48.1327 1.54775 45.6809 1.6104C42.4195 1.67467 41.1857 1.79075 41.0661 2.02382C40.9215 2.28675 40.5167 2.28757 39.4489 2.05501Z" fill="#EF8A51"/>
</svg>
