<svg width="263" height="75" viewBox="0 0 263 75" fill="none" xmlns="http://www.w3.org/2000/svg">
<g clip-path="url(#clip0_9_4)">
<path d="M160.129 0.0469834C160.876 0.0774745 161.655 0.184193 161.838 0.275667C162.097 0.428123 162.219 0.428121 162.372 0.29091C162.478 0.199437 162.89 0.0774613 163.287 0.0317246C163.714 -0.0292577 164.05 0.00124048 164.096 0.092714C164.126 0.168942 164.035 0.41286 163.867 0.626299C163.699 0.839737 163.592 1.06842 163.638 1.1599C163.669 1.23613 163.775 1.31236 163.867 1.31236C163.943 1.31236 164.02 1.2209 164.004 1.11418C164.004 1.00746 164.126 0.778774 164.279 0.595827C164.431 0.41288 164.767 0.184187 165.042 0.092714C165.5 -0.0444963 165.545 -0.0292559 165.545 0.245165C165.545 0.473848 165.637 0.550081 165.927 0.550081C166.125 0.550081 166.339 0.611058 166.384 0.702531C166.415 0.778759 166.674 0.854982 166.949 0.854982C167.407 0.839736 167.437 0.80926 167.3 0.0622269L168.902 0.107957C169.772 0.123203 170.901 0.107966 171.374 0.0469834C171.892 -0.013999 172.381 0.00124048 172.564 0.092714C172.747 0.184187 173.128 0.199431 173.586 0.107957C173.983 0.0317296 174.41 0.0164902 174.517 0.0622269C174.623 0.123209 174.685 0.229924 174.654 0.321397C174.624 0.397625 174.395 0.519588 174.151 0.565324C173.906 0.626307 173.8 0.687286 173.937 0.702531C174.059 0.717777 174.227 0.717777 174.318 0.702531C174.395 0.67204 174.913 0.565324 175.463 0.458604C175.997 0.351885 176.576 0.245165 176.714 0.245165C176.882 0.245165 176.988 0.351888 176.988 0.550081C176.988 0.717782 177.049 0.854982 177.141 0.854982C177.217 0.854982 177.324 0.656801 177.37 0.428117C177.431 0.0927146 177.492 0.0469761 177.645 0.214677C177.736 0.321397 177.812 0.611053 177.782 0.854982C177.767 1.11416 177.812 1.31236 177.904 1.31236C177.98 1.31236 178.133 1.11416 178.392 0.473848L181.077 0.50435C183.091 0.519596 183.809 0.580578 183.931 0.733034C184.022 0.854998 184.419 0.931215 185.014 0.931215C185.517 0.931215 186.036 0.854994 186.158 0.763521C186.311 0.626311 186.784 0.626313 187.974 0.748277C188.844 0.839751 189.606 0.961709 189.652 1.02269C189.683 1.09892 190.034 1.1294 190.415 1.09891C190.781 1.08366 191.269 1.11416 191.483 1.17514C191.681 1.23612 192.17 1.3276 192.551 1.37334C192.917 1.40383 193.482 1.49532 193.802 1.57155C194.107 1.63253 194.336 1.72399 194.306 1.76973C194.29 1.81547 194.565 1.76973 194.931 1.6935C195.465 1.57153 195.633 1.58679 195.725 1.73924C195.786 1.87645 196.015 1.90693 196.396 1.84595C196.808 1.78497 196.991 1.83072 197.052 1.98317C197.128 2.16612 197.235 2.16612 197.891 1.98317C198.303 1.86121 198.791 1.80021 198.959 1.84595C199.127 1.89169 199.234 1.96793 199.203 2.02892C199.158 2.0899 199.692 2.19659 200.378 2.24233C201.065 2.30331 201.782 2.28808 201.965 2.21185C202.194 2.12038 202.453 2.13562 202.728 2.27283C202.957 2.39479 203.704 2.57775 204.376 2.66922C205.047 2.77594 205.657 2.91314 205.749 2.98937C205.825 3.05035 206.542 3.14182 207.351 3.20281C208.144 3.26379 208.983 3.41625 209.212 3.53821C209.441 3.64493 209.731 3.70593 209.868 3.6297C210.006 3.56872 210.204 3.6297 210.357 3.78215C210.57 3.99559 210.814 4.04132 211.577 3.98033C212.142 3.9346 212.569 3.96509 212.615 4.05657C212.645 4.13279 212.828 4.20902 212.996 4.20902C213.164 4.20902 213.515 4.30049 213.79 4.40721C214.064 4.52918 214.659 4.72737 215.132 4.86458C215.59 5.00179 216.246 5.12375 216.582 5.12375C216.917 5.12375 217.345 5.23047 217.528 5.35243C217.741 5.48964 218.138 5.56588 218.519 5.53539C218.992 5.52014 219.252 5.58112 219.481 5.79456C219.694 5.99275 219.908 6.05372 220.244 5.97749C220.518 5.93176 220.778 5.96227 220.884 6.08423C221.037 6.22144 221.006 6.31291 220.396 6.80077H220.732C220.945 6.80077 221.113 6.6788 221.159 6.49585C221.189 6.32815 221.357 6.19095 221.495 6.17571C221.647 6.17571 221.846 6.26718 221.937 6.3739C222.029 6.48062 222.532 6.64832 223.051 6.75504C223.554 6.86176 223.982 6.99897 223.982 7.05995C223.966 7.12094 224.195 7.25815 224.47 7.36487C224.744 7.47159 225.095 7.56305 225.233 7.56305C225.385 7.56305 225.507 7.66977 225.507 7.79173C225.507 7.95944 225.614 7.98992 225.996 7.92894C226.301 7.86796 226.682 7.91371 226.957 8.05092C227.201 8.17289 227.811 8.37106 228.299 8.49303C228.803 8.59975 229.23 8.75221 229.261 8.81319C229.291 8.87417 229.444 8.93515 229.581 8.91991C229.734 8.91991 229.947 9.02663 230.085 9.16384C230.207 9.30105 230.436 9.40776 230.573 9.39252C230.725 9.39252 231.031 9.52972 231.259 9.69742C231.488 9.86512 231.855 10.0176 232.068 10.0023C232.266 10.0023 232.785 10.1243 233.212 10.2615C233.624 10.3987 234.143 10.5817 234.357 10.6731C234.555 10.7646 234.799 10.9323 234.891 11.039C234.967 11.1458 235.211 11.2677 235.425 11.2982C235.623 11.3287 236.127 11.4202 236.523 11.4812C236.935 11.5422 237.256 11.6489 237.256 11.7099C237.256 11.7708 237.378 11.8318 237.515 11.8318C237.668 11.8318 237.988 11.9843 238.232 12.1672C238.476 12.3654 238.781 12.6246 238.919 12.7465C239.056 12.8837 239.376 12.9905 239.636 12.9752C239.895 12.9752 240.216 13.0819 240.368 13.2039C240.506 13.3259 240.612 13.5546 240.612 13.6918C240.612 13.9205 240.704 13.9509 241.177 13.8747C241.68 13.7832 241.985 13.9052 243.496 14.6675C244.457 15.1553 245.449 15.7652 245.708 15.9939C245.968 16.2378 246.471 16.5579 246.822 16.7256C247.31 16.9391 247.509 17.122 247.585 17.4727C247.677 17.8233 247.799 17.9453 248.089 17.9453C248.287 17.9605 248.607 17.9453 248.775 17.9453C248.943 17.93 249.416 18.2197 249.843 18.6161C250.255 18.982 250.698 19.3326 250.835 19.3784C250.957 19.4089 251.277 19.7138 251.552 20.0492C251.827 20.3998 252.132 20.6742 252.239 20.6742C252.345 20.659 252.651 20.9029 252.925 21.2078C253.2 21.4975 253.52 21.7414 253.658 21.7414C253.78 21.7414 253.947 21.8786 254.039 22.0463C254.115 22.214 254.283 22.3513 254.42 22.3513C254.542 22.3513 254.649 22.4122 254.649 22.5037C254.649 22.5799 255.092 23.0831 255.641 23.6014C256.175 24.135 256.633 24.6381 256.633 24.7448C256.633 24.8515 256.785 25.126 256.984 25.3546C257.182 25.5833 257.396 25.934 257.441 26.1169C257.518 26.3609 257.67 26.4828 257.96 26.4981C258.265 26.5286 258.387 26.6353 258.418 26.8792C258.448 27.0774 258.525 27.2298 258.616 27.2298C258.692 27.2298 258.876 27.4433 258.998 27.7177C259.12 27.9921 259.227 28.297 259.227 28.4038C259.227 28.5105 259.364 28.6324 259.532 28.6782C259.7 28.7239 259.791 28.8154 259.761 28.9068C259.715 28.9831 259.852 29.166 260.066 29.288C260.264 29.4099 260.447 29.5929 260.432 29.6996C260.432 29.8064 260.539 30.0045 260.676 30.1265C260.844 30.279 260.92 30.5229 260.874 30.8431C260.844 31.148 260.905 31.3766 261.012 31.4224C261.118 31.4681 261.317 31.712 261.439 31.9865C261.576 32.2609 261.652 32.6268 261.591 32.7945C261.53 32.9927 261.607 33.2061 261.82 33.4043C262.024 33.6076 262.125 33.8972 262.125 34.2733C262.125 34.6087 262.049 34.8221 261.973 34.7764C261.881 34.7307 261.836 34.7764 261.866 34.8831C261.897 34.9899 261.973 35.2033 262.019 35.3405C262.08 35.493 262.156 35.7216 262.202 35.8436C262.232 35.9655 262.202 36.24 262.125 36.4534C262.034 36.6669 262.019 36.8345 262.08 36.8345C262.141 36.8345 262.278 37.0175 262.385 37.2462C262.522 37.5511 262.522 37.8865 262.415 38.4658C262.324 39.0299 262.141 39.4111 261.82 39.7312C261.515 40.0361 261.378 40.3004 261.408 40.524C261.439 40.7222 261.576 41.1338 261.714 41.4387C261.942 41.9571 261.942 42.0638 261.744 42.5059C261.607 42.7804 261.5 43.0853 261.515 43.192C261.515 43.2987 261.408 43.5121 261.271 43.6493C261.134 43.8018 261.073 44 261.118 44.1067C261.179 44.2287 261.057 44.3354 260.829 44.3811C260.615 44.4269 260.447 44.5183 260.447 44.6098C260.447 44.686 260.508 44.7927 260.6 44.8385C260.691 44.8842 260.661 45.1282 260.508 45.4788C260.371 45.799 260.172 46.2716 260.05 46.546C259.928 46.8204 259.761 47.0491 259.684 47.0491C259.593 47.0491 259.532 47.2626 259.532 47.537C259.532 47.8724 259.41 48.162 259.15 48.4212C258.937 48.6346 258.754 48.8633 258.769 48.9548C258.769 49.031 258.57 49.2749 258.326 49.4884C258.097 49.7018 257.823 50.1287 257.716 50.4336C257.594 50.8452 257.457 51.013 257.243 51.013C257.075 51.013 256.862 51.1349 256.785 51.2721C256.694 51.4398 256.404 51.577 255.992 51.6228C255.336 51.699 255.336 51.699 255.26 52.3851C255.183 53.0254 255.138 53.0711 254.649 53.1778C254.344 53.2388 253.719 53.3303 253.23 53.376C252.757 53.4218 252.361 53.5132 252.361 53.6047C252.361 53.6809 252.498 53.7267 252.666 53.6809C252.834 53.6352 252.971 53.6657 252.971 53.7572C252.971 53.8334 252.62 54.0621 252.193 54.245C251.72 54.4584 251.46 54.6719 251.506 54.7786C251.552 54.8853 251.445 55.2207 251.247 55.5104C251.033 55.8458 250.804 56.0287 250.606 55.9982C250.453 55.983 250.301 55.8763 250.27 55.7696C250.24 55.6629 250.301 55.5866 250.408 55.5866C250.514 55.5866 250.621 55.4494 250.637 55.2817C250.667 55.114 250.606 54.9768 250.53 54.9768C250.438 54.9768 250.255 55.1445 250.103 55.3579C249.965 55.5866 249.721 55.7848 249.568 55.8153C249.431 55.861 249.309 55.9983 249.309 56.1202C249.309 56.2422 249.157 56.3642 248.958 56.3794C248.734 56.4099 248.607 56.5369 248.577 56.7605C248.546 57.0197 248.302 57.2179 247.585 57.5533C247.066 57.7972 246.578 58.1022 246.517 58.2394C246.456 58.3766 246.227 58.4833 245.983 58.468C245.754 58.468 245.388 58.6052 244.808 59.0626L245.22 59.0016C245.449 58.9711 245.647 58.9864 245.647 59.0474C245.647 59.1084 245.449 59.276 245.22 59.4133C244.961 59.581 244.717 59.6115 244.579 59.5352C244.442 59.459 244.259 59.398 244.152 59.398C244.045 59.398 243.893 59.5657 243.816 59.7792C243.725 59.9926 243.557 60.1603 243.435 60.1603C243.298 60.1603 243.176 60.0688 243.145 59.9621C243.115 59.8097 243.054 59.8097 242.84 59.9621C242.672 60.0993 242.626 60.2518 242.703 60.4805C242.809 60.8006 242.794 60.8158 242.138 60.7091C241.757 60.6481 241.375 60.5414 241.299 60.4652C241.192 60.3737 241.055 60.389 240.872 60.5414C240.704 60.6786 240.658 60.8616 240.719 60.9988C240.795 61.136 240.719 61.3342 240.536 61.5324C240.307 61.7611 240.033 61.8526 239.468 61.8526C239.041 61.8526 238.43 61.8983 238.095 61.9593C237.713 62.0203 237.469 62.1575 237.454 62.2947C237.454 62.4166 237.439 62.5996 237.424 62.7063C237.408 62.813 237.21 62.9502 236.981 62.996C236.752 63.0569 236.416 63.1179 236.218 63.1484C236.035 63.1789 235.791 63.1027 235.684 62.9655C235.577 62.8435 235.379 62.7368 235.226 62.7368C235.089 62.752 234.921 62.813 234.891 62.9045C234.845 62.9807 234.937 63.1484 235.074 63.2704C235.333 63.4686 235.333 63.4991 235.043 63.804C234.876 63.9869 234.631 64.1241 234.509 64.1241C234.372 64.1241 234.067 64.2156 233.823 64.3528C233.563 64.4748 233.029 64.5815 232.633 64.5815C232.129 64.5815 231.885 64.5053 231.839 64.3528C231.793 64.2309 231.61 64.1241 231.412 64.1089C231.229 64.1089 230.97 64.2156 230.848 64.3528C230.71 64.49 230.481 64.6425 230.313 64.6882C230.146 64.7492 229.886 64.9169 229.734 65.0694C229.596 65.2218 229.474 65.4505 229.474 65.5725C229.474 65.7097 229.337 65.8012 229.123 65.8012C228.94 65.8012 228.574 65.9079 228.33 66.0451C228.071 66.1823 227.521 66.3195 227.109 66.35C226.682 66.3805 226.163 66.5177 225.965 66.6549C225.751 66.7921 225.416 66.8836 225.233 66.8531C225.034 66.8226 224.836 66.8379 224.806 66.8988C224.775 66.9598 224.409 67.0056 224.012 67.0056C223.615 66.9903 223.02 67.097 222.685 67.2342C222.349 67.3714 221.937 67.5544 221.769 67.6459C221.586 67.7373 221.067 67.7678 220.503 67.7221C219.679 67.6459 219.542 67.6611 219.481 67.8898C219.404 68.1185 219.298 68.149 218.641 68.0423C218.214 67.9813 217.772 67.966 217.65 68.0118C217.512 68.0575 217.421 68.149 217.421 68.2404C217.421 68.3319 216.978 68.3929 216.383 68.3929C215.59 68.3777 215.27 68.4539 214.934 68.6978C214.705 68.8655 214.446 69.0027 214.369 69.0027C214.278 69.0027 214.171 68.896 214.141 68.774C214.095 68.6521 213.957 68.5454 213.835 68.5454C213.698 68.5454 213.454 68.7131 213.256 68.9265C213.072 69.1399 212.813 69.3076 212.691 69.2924C212.554 69.2619 212.126 69.3076 211.73 69.3534C211.242 69.4296 211.028 69.5211 211.089 69.6431C211.15 69.765 210.982 69.9175 210.677 70.0242C210.341 70.1461 210.113 70.1614 210.021 70.0699C209.929 69.9785 209.624 69.8717 209.334 69.826C208.877 69.765 208.755 69.8107 208.495 70.1461C208.19 70.5425 208.129 70.5578 206.512 70.6035C205.367 70.6492 204.681 70.7407 204.376 70.8932C204.055 71.0609 203.475 71.1371 202.499 71.1371C201.294 71.1371 201.08 71.1676 201.004 71.3963C200.912 71.6402 200.897 71.625 200.775 71.3201C200.699 71.1371 200.561 71.0151 200.485 71.0609C200.393 71.1066 200.363 71.1981 200.409 71.2896C200.439 71.3658 200.378 71.4725 200.256 71.5182C200.119 71.564 199.905 71.4268 199.432 70.756L199.081 71.1066C198.883 71.3048 198.471 71.4877 198.151 71.5182C197.845 71.564 197.464 71.5335 197.311 71.4573C197.113 71.3505 197.006 71.381 196.884 71.564C196.777 71.7164 196.289 71.9146 195.664 72.0366C195.084 72.1586 193.817 72.25 192.856 72.25C191.88 72.25 190.827 72.1738 190.491 72.0671C189.927 71.8841 189.851 71.8994 189.606 72.1891C189.469 72.372 189.255 72.5092 189.149 72.5092C189.042 72.5092 188.828 72.4177 188.66 72.2805C188.493 72.1586 188.294 72.0519 188.233 72.0519C188.172 72.0519 188.142 72.2043 188.157 72.3873C188.203 72.7227 188.142 72.7379 187.089 72.7684C186.479 72.7989 185.517 72.8294 184.953 72.8446C184.388 72.8751 183.839 72.9361 183.732 72.9971C183.625 73.0581 183.503 73.0428 183.473 72.9666C183.427 72.8751 183.137 72.8446 182.817 72.8904C182.512 72.9361 181.932 73.0123 181.566 73.0581C181.184 73.1038 180.467 73.1495 179.964 73.1647C179.46 73.1647 178.514 73.1343 177.858 73.0733C177.11 72.9971 176.683 73.0123 176.683 73.1191C176.683 73.1953 176.546 73.2715 176.378 73.2715C176.175 73.2715 176.098 73.1953 176.149 73.0428C176.18 72.9209 176.149 72.8141 176.073 72.8141C175.981 72.8141 175.92 72.9209 175.92 73.0428C175.92 73.1953 175.753 73.2715 175.386 73.2715C175.005 73.2715 174.852 73.1953 174.852 73.0428C174.852 72.9209 174.807 72.8141 174.776 72.8141C174.73 72.8141 174.578 72.7684 174.425 72.7226C174.212 72.6464 174.196 72.6617 174.395 72.7989C174.547 72.9005 174.573 73.0022 174.471 73.1038C174.369 73.2054 174.125 73.2105 173.739 73.1191C173.266 72.9819 173.098 73.0123 172.747 73.2715C172.457 73.4849 172.06 73.5764 171.419 73.5916C170.916 73.6069 169.894 73.5917 169.146 73.5612C168.185 73.5154 167.758 73.5459 167.666 73.6831C167.559 73.8203 167.086 73.8661 165.957 73.8203C165.103 73.7898 164.309 73.7288 164.203 73.6679C164.096 73.6221 163.974 73.6374 163.943 73.7289C163.897 73.8051 163.714 73.7441 163.516 73.5612C163.272 73.3325 163.135 73.2867 163.028 73.4087C162.951 73.5002 162.631 73.5764 162.311 73.5764C161.99 73.5764 161.731 73.6374 161.731 73.7289C161.731 73.8051 161.624 73.8813 161.502 73.8813C161.365 73.8813 161.273 73.7746 161.273 73.6526C161.273 73.5307 161.212 73.424 161.151 73.424C161.09 73.4087 160.846 73.5459 160.617 73.7289C160.297 73.9576 160.129 74.0033 159.9 73.8813C159.732 73.7899 159.259 73.7441 158.862 73.7746C158.466 73.8051 158.069 73.8661 157.993 73.9118C157.901 73.9576 157.581 73.9575 157.26 73.927C156.884 73.8966 156.696 73.8051 156.696 73.6526C156.696 73.5307 156.635 73.424 156.574 73.4087C156.513 73.4087 156.36 73.5154 156.238 73.6526C156.101 73.7898 155.811 73.8966 155.582 73.8813C155.353 73.8813 155.14 73.9271 155.109 73.9881C155.063 74.049 153.446 74.0795 151.478 74.0643C149.525 74.0338 147.19 74.0033 146.321 73.9881C145.436 73.9881 144.475 74.0185 144.185 74.0795C143.681 74.171 143.651 74.1405 143.681 73.7898C143.712 73.5916 143.666 73.424 143.605 73.424C143.544 73.424 143.407 73.6222 143.3 73.8813C143.147 74.2472 143.025 74.3387 142.659 74.3387C142.278 74.3387 142.201 74.2777 142.201 73.9881C142.217 73.6831 142.186 73.6679 141.957 73.8813C141.789 74.0185 141.316 74.1252 140.721 74.1405C139.882 74.1862 139.73 74.1405 139.607 73.8813C139.516 73.6984 139.302 73.5764 139.073 73.5764C138.86 73.5764 138.6 73.7136 138.494 73.8661C138.326 74.1252 138.143 74.171 137.12 74.1405C136.48 74.1252 135.946 74.0795 135.946 74.0338C135.946 73.9881 135.747 73.9728 135.518 73.9728C135.29 73.988 134.923 74.0642 134.725 74.1557C134.511 74.2319 134.115 74.2777 133.84 74.2472C133.565 74.2167 133.352 74.1253 133.352 74.0643C133.352 74.0033 133.23 73.9576 133.077 73.9576C132.94 73.9728 132.635 74.0643 132.436 74.171C132.177 74.3082 131.811 74.3387 131.368 74.2777C130.989 74.2322 130.307 74.1413 129.849 74.0803L129.843 74.0795C129.37 74.0337 128.82 73.9881 128.622 73.9881C128.408 73.9881 128.012 74.0337 127.737 74.0795C127.371 74.1557 127.218 74.1253 127.173 73.9576C127.127 73.8356 127.02 73.7594 126.944 73.8051C126.852 73.8508 126.791 73.8203 126.791 73.7594C126.791 73.6984 126.379 73.6526 125.891 73.6526C125.387 73.6526 125.006 73.6984 125.052 73.7594C125.082 73.8203 124.792 73.8813 124.426 73.8813C124.045 73.8813 123.694 73.8051 123.663 73.7289C123.618 73.6374 123.496 73.5764 123.389 73.5764C123.267 73.5764 123.282 73.6221 123.434 73.7136C123.557 73.7898 123.587 73.8661 123.511 73.9118C123.419 73.9423 123.16 73.988 122.931 74.0033C122.641 74.0185 122.55 73.9728 122.611 73.8356C122.687 73.6831 122.672 73.6831 122.504 73.8356C122.397 73.9423 122.092 74.0338 121.832 74.0338C121.573 74.0338 121.298 73.9575 121.222 73.8661C121.1 73.7441 120.963 73.7594 120.688 73.8966C120.475 73.988 119.986 74.11 119.62 74.1405C119.056 74.2015 118.903 74.1557 118.811 73.927C118.689 73.6679 118.659 73.6679 118.506 73.9118C118.323 74.1557 118.262 74.1558 117.408 73.8813C116.706 73.6679 116.447 73.6374 116.279 73.7746C116.111 73.9118 116.05 73.9118 116.004 73.7594C115.974 73.6526 115.851 73.5764 115.729 73.5764C115.592 73.5764 115.501 73.6374 115.501 73.7289C115.501 73.8051 115.302 73.8813 115.073 73.8813C114.829 73.8813 114.585 73.7594 114.463 73.5764C114.341 73.3732 114.214 73.3172 114.082 73.4087C113.975 73.4849 113.654 73.5612 113.365 73.5764C113.059 73.6069 112.693 73.5612 112.525 73.5002C112.312 73.424 112.037 73.5154 111.076 74.1862L110.694 73.8051C110.344 73.4545 110.298 73.4392 110.176 73.6831C110.084 73.8661 109.957 73.9169 109.794 73.8356C109.657 73.7746 109.581 73.6527 109.626 73.5764C109.657 73.485 109.596 73.424 109.474 73.424C109.337 73.424 109.184 73.5307 109.123 73.6679C109.031 73.8813 108.955 73.8813 108.635 73.7289C108.421 73.6221 108.101 73.5611 107.933 73.5916C107.719 73.6374 107.628 73.5764 107.658 73.4545C107.689 73.3477 107.857 73.2715 108.024 73.2715C108.269 73.2715 108.299 73.1953 108.146 72.5855L107.933 72.9209C107.811 73.119 107.612 73.2715 107.49 73.2715C107.353 73.2715 107.216 73.3782 107.185 73.5002C107.124 73.6527 106.956 73.7136 106.605 73.6679C106.331 73.6221 105.843 73.5459 105.507 73.4849C105.049 73.4087 104.79 73.4392 104.515 73.6221C104.149 73.866 104.073 73.866 103.295 73.5916C102.638 73.3629 102.41 73.3325 102.242 73.4697C102.104 73.5764 102.013 73.5917 101.967 73.5002C101.937 73.4087 101.845 73.241 101.769 73.1191C101.662 72.9361 101.586 72.9209 101.433 73.0733C101.265 73.2258 101.189 73.2105 101.067 72.9971C100.914 72.7684 100.884 72.7989 100.792 73.2258C100.716 73.5916 100.609 73.7289 100.396 73.7289C100.228 73.7289 100.045 73.6527 100.014 73.5764C99.9684 73.485 99.6633 73.4545 99.3276 73.5002C98.8546 73.5612 98.7173 73.5307 98.7173 73.3477C98.7173 73.2258 98.641 73.1191 98.5647 73.1191C98.4732 73.1191 98.3053 73.2715 98.1833 73.4545C97.9849 73.7594 97.9086 73.7898 97.573 73.6069C97.3594 73.5002 97.1 73.4697 96.9932 73.5459C96.8864 73.6069 96.4592 73.6831 96.0472 73.6983C95.62 73.7288 94.9487 73.6374 94.552 73.5002C94.1095 73.363 93.606 73.302 93.2551 73.363C92.9499 73.4087 92.3549 73.4849 91.9582 73.5154C91.3174 73.5612 91.2258 73.5307 90.9817 72.8904L90.6918 73.2258C90.4172 73.5307 90.3104 73.5459 89.2881 73.4545C88.6778 73.3935 88.1896 73.2715 88.1896 73.1953C88.1896 73.1038 88.0523 72.9513 87.8844 72.8446C87.6098 72.6769 87.564 72.6922 87.5335 72.9971C87.503 73.3325 87.442 73.3477 86.0078 73.3477C85.1991 73.3477 84.5278 73.2867 84.5278 73.2258C84.5278 73.1648 84.6193 73.0886 84.7566 73.0428C84.8787 72.9971 84.9855 72.8904 84.9855 72.8141C84.9855 72.7227 84.7872 72.6312 84.5583 72.5855C84.2989 72.5245 84.0548 72.5854 83.9175 72.7379C83.7496 72.9056 83.536 72.9513 83.1546 72.8751C82.8189 72.8141 82.5748 72.8446 82.4985 72.9513C82.4375 73.0428 82.0255 73.1495 81.5831 73.1953C81.1406 73.241 79.9963 73.1648 79.0351 73.0428C78.0586 72.9056 76.96 72.7531 76.5939 72.6922C76.2124 72.6312 75.9073 72.5092 75.9225 72.433C75.9378 72.3415 75.77 72.2958 75.5411 72.3262C75.3122 72.3567 75.0986 72.2957 75.0376 72.1738C74.9461 72.0213 74.885 72.0061 74.7325 72.1586C74.6256 72.2653 74.3815 72.3568 74.1984 72.3568C74.0001 72.3568 73.8017 72.2806 73.7712 72.2043C73.7255 72.1129 72.9931 72.0671 71.9251 72.0824C70.5061 72.1128 70.1399 72.0823 70.0331 71.8994C69.9111 71.7165 69.8195 71.7012 69.6212 71.8384C69.4686 71.9299 69.1177 72.0518 68.843 72.0976C68.5175 72.1687 68.2378 72.1281 68.0039 71.9756C67.8208 71.8537 67.4241 71.7469 67.1342 71.7469C66.829 71.7469 66.5239 71.686 66.4476 71.6097C66.3561 71.5335 66.0662 71.442 65.7915 71.381C65.5169 71.3353 65.2728 71.3506 65.227 71.442C65.1812 71.5183 64.9676 71.5945 64.7693 71.5945C64.5557 71.5945 64.2963 71.4725 64.1895 71.3201C64.0827 71.1828 63.8843 71.0456 63.7318 71.0152C63.5792 70.9999 63.4724 71.0761 63.4724 71.2133C63.4724 71.3353 63.3503 71.4725 63.1977 71.5182C63.0604 71.564 62.74 71.5335 62.5112 71.442C62.2518 71.3506 62.0687 71.1371 62.0229 70.9084C61.9771 70.695 61.9009 70.5273 61.8703 70.5273C61.8246 70.5273 61.672 70.5883 61.5194 70.6645C61.3821 70.7407 61.0159 70.8474 60.726 70.9084C60.4209 70.9542 60.1462 71.0609 60.1157 71.1371C60.07 71.1981 59.8564 71.3048 59.658 71.3658C59.3376 71.442 59.2613 71.3963 59.2003 71.0761C59.1545 70.8322 59.2155 70.5883 59.3528 70.4663C59.5207 70.2986 59.5359 70.2376 59.3834 70.1614C59.2766 70.1157 59.0782 70.2376 58.9256 70.4663C58.6968 70.8017 58.6968 70.8779 58.8951 70.9847C59.0782 71.0914 59.0782 71.1524 58.9256 71.3201C58.7731 71.4725 58.6358 71.4573 58.2085 71.2133C57.7966 70.9694 57.644 70.9389 57.4914 71.0914C57.3389 71.2286 57.0947 71.2438 56.6065 71.1524C56.1793 71.0761 55.7979 71.0761 55.6148 71.1676C55.4469 71.2591 54.9892 71.2743 54.623 71.2286C54.2416 71.1829 53.7381 70.9999 53.5092 70.8322C53.2804 70.6645 52.8989 70.5273 52.67 70.5273C52.4412 70.5273 51.9682 70.3901 51.602 70.2224C51.2511 70.0547 50.8544 69.9175 50.7323 69.9175C50.595 69.9175 50.4577 70.0242 50.4272 70.1461C50.3814 70.2681 50.1678 70.3748 49.9695 70.3748C49.6948 70.3748 49.5423 70.2529 49.4202 69.948C49.2676 69.5516 49.2524 69.5516 49.0845 69.8412C48.993 70.0089 48.8252 70.2224 48.7336 70.3291C48.6268 70.4358 48.5047 70.5273 48.4437 70.5273C48.3979 70.5273 48.3979 70.4206 48.4437 70.2986C48.4742 70.1766 48.4437 70.0394 48.3674 69.9937C48.2759 69.948 48.0775 70.0394 47.8945 70.1767C47.6046 70.4358 47.5893 70.4358 47.5893 70.1767C47.6046 69.9785 47.513 69.9327 47.2536 69.9937C47.0248 70.0547 46.7349 69.9479 46.384 69.6888C46.0788 69.4753 45.7279 69.3076 45.5753 69.3076C45.438 69.3076 45.3159 69.3839 45.3159 69.4906C45.3159 69.5973 45.2854 69.6583 45.2396 69.6126C45.1939 69.5668 45.1176 69.2924 45.1023 69.0027C45.0718 68.7131 44.9803 68.4996 44.9192 68.5454C44.8429 68.5911 44.7972 68.7283 44.8277 68.8503C44.8429 69.0027 44.7209 69.0789 44.3547 69.0942C44.0801 69.1094 43.7749 69.0485 43.6681 68.9875C43.5613 68.9112 43.2562 68.9113 42.951 69.0027C42.595 69.1044 42.3916 69.1044 42.3407 69.0027C42.2949 68.9113 42.3102 68.7283 42.3712 68.5911C42.478 68.3624 42.4323 68.3472 42.1118 68.4539C41.8982 68.5149 41.5778 68.5758 41.3795 68.5606C41.1964 68.5453 41.0438 68.6064 41.0438 68.6978C41.0438 68.7741 40.8607 68.8503 40.6624 68.8503C40.3877 68.8503 40.2962 68.7893 40.3572 68.6216C40.403 68.4691 40.2809 68.3319 40.0063 68.2404C39.6706 68.1032 39.6249 68.0423 39.7774 67.8898C39.8842 67.7831 39.9758 67.6459 39.9758 67.5849C39.9758 67.5239 39.8995 67.5087 39.8232 67.5544C39.7317 67.6001 39.6706 67.5697 39.6706 67.5087C39.6706 67.4477 39.3197 67.4019 38.9078 67.4019C38.4805 67.4019 38.1449 67.4477 38.1449 67.5087C38.1449 67.5697 38.0381 67.6306 37.916 67.6306C37.7787 67.6306 37.6872 67.5544 37.6872 67.4782C37.6872 67.3867 37.5498 67.3562 37.382 67.4019C37.2142 67.4477 36.8633 67.3715 36.6191 67.2495C36.3598 67.1275 36.0393 66.8683 35.9173 66.6702C35.7189 66.411 35.6579 66.3805 35.5969 66.5634C35.5358 66.7464 35.4748 66.7159 35.307 66.4415C35.1544 66.2128 34.9866 66.1366 34.7882 66.1823C34.6204 66.228 34.4831 66.1976 34.4678 66.1366C34.4678 66.0908 34.6051 65.8926 34.8035 65.6487C34.7425 65.6639 34.6814 65.6487 34.6357 65.6335C34.5441 65.5877 34.5594 65.4353 34.6814 65.2523C34.8645 64.9779 34.8645 64.9474 34.6051 64.9474C34.4526 64.9474 34.3305 64.8407 34.3305 64.7187C34.3305 64.5968 34.361 64.49 34.4068 64.49C34.4526 64.49 34.6509 64.551 34.8645 64.6425C35.0781 64.7187 35.2154 64.8559 35.1697 64.9474C35.1239 65.0236 35.1697 65.0999 35.2459 65.0999C35.2765 65.0999 35.2968 65.11 35.307 65.1304C35.4901 64.9779 35.6426 64.8864 35.7342 64.8864C35.8868 64.8864 36.1461 65.0389 36.3292 65.2218C36.6039 65.5115 36.6191 65.6335 36.4818 65.9079C36.3292 66.228 36.3292 66.2433 36.6191 66.1061C36.787 66.0146 37.0463 65.9841 37.1837 66.0298C37.3362 66.0756 37.5956 65.9994 37.7634 65.8774C37.9313 65.7554 38.2059 65.6487 38.3737 65.6487C38.5416 65.6487 38.7247 65.6944 38.8009 65.7554C38.8772 65.8164 39.2892 65.8926 39.7164 65.9079C40.1436 65.9231 40.6929 65.9384 40.9218 65.9384C41.2422 65.9536 41.4253 66.0908 41.6541 66.4872C41.8219 66.7769 41.9135 67.0818 41.883 67.1733C41.8372 67.2495 41.8677 67.3257 41.9593 67.3257C42.0355 67.3257 42.0966 67.2038 42.0661 67.0513C42.0508 66.9141 42.0813 66.7007 42.1424 66.5939C42.2034 66.4872 42.4323 66.411 42.6459 66.411C42.9358 66.411 43.0273 66.4872 43.0273 66.7464C43.0273 67.0208 43.0578 67.0513 43.1646 66.8683C43.3019 66.6701 43.3477 66.6702 43.5155 66.8988C43.6223 67.0361 43.8054 67.1732 43.9427 67.1885C44.0648 67.2037 44.37 67.1428 44.6293 67.0361C44.9955 66.8988 45.1023 66.8989 45.1786 67.0513C45.2549 67.1885 45.5906 67.2342 46.2466 67.2038C46.7806 67.1885 47.8334 67.2647 48.5963 67.4019C49.3439 67.5239 50.3357 67.6611 50.8086 67.7069C51.2664 67.7526 51.8156 67.8136 52.0292 67.8593C52.2276 67.8898 52.5022 68.027 52.6395 68.1642C52.8226 68.3624 52.8837 68.3624 52.9599 68.21C53.0515 68.0423 53.1888 68.0423 53.7228 68.2252C54.089 68.3472 54.7298 68.4387 55.157 68.4234C55.569 68.4082 56.3319 68.3777 56.8354 68.3472C57.3389 68.3167 58.4221 68.3624 59.2613 68.4539C60.2225 68.5606 60.7871 68.6826 60.8176 68.8046C60.8481 68.9113 60.9701 69.0027 61.1075 69.0027C61.2295 69.0027 61.3363 68.9265 61.3363 68.8503C61.3363 68.7588 61.4126 68.7283 61.5194 68.7588C61.6262 68.7893 62.1297 68.774 62.6485 68.7131C63.1672 68.6673 63.5639 68.6673 63.5334 68.7283C63.4876 68.7893 63.5029 69.0027 63.6402 69.5363L63.9301 69.1857C64.2048 68.8808 64.3268 68.8503 65.3338 68.9265C65.9594 68.9722 66.4934 69.0942 66.5544 69.2009C66.6307 69.3381 66.9359 69.3534 67.653 69.2619C68.4463 69.1704 68.7057 69.2009 68.8888 69.3839C69.0109 69.5058 69.1482 69.6126 69.194 69.6126C69.2245 69.6126 69.2702 69.5058 69.2702 69.3839C69.2702 69.2619 69.3618 69.1552 69.4991 69.1552C69.6212 69.1552 69.9111 69.2772 70.1399 69.4144C70.3688 69.5668 70.7655 69.6888 71.0401 69.6888C71.2995 69.6888 71.4978 69.6278 71.4673 69.5668C71.4368 69.5058 71.5283 69.4601 71.6657 69.4448C71.8182 69.4448 72.6269 69.4449 73.4661 69.4601C74.5036 69.4753 75.0529 69.5363 75.2207 69.6888C75.4038 69.8565 75.6479 69.8565 76.5481 69.7193C77.4483 69.5668 77.6924 69.5668 77.845 69.7345C77.9975 69.9022 78.2112 69.9022 78.8367 69.7803C79.4623 69.643 79.8437 69.6583 80.5913 69.8412C81.1253 69.9632 82.5748 70.1157 83.8107 70.1767C85.7484 70.2834 86.0993 70.3291 86.2214 70.5578C86.3434 70.817 86.3587 70.817 86.5723 70.5578C86.7554 70.3291 87.0453 70.2986 88.8151 70.3291C90.7223 70.3749 90.8749 70.3901 91.1496 70.7103C91.4394 71.0457 91.4547 71.0456 91.5462 70.756C91.6073 70.5883 91.7751 70.3901 91.9429 70.3291C92.0955 70.2681 92.2939 70.2834 92.3854 70.3748C92.4617 70.4511 92.9499 70.5273 93.4534 70.5425C93.9569 70.5425 94.552 70.573 94.7808 70.6188C95.0707 70.6645 95.1775 70.7407 95.1318 70.9084C95.086 71.0456 95.147 71.1371 95.2843 71.1371C95.4064 71.1371 95.5132 71.0456 95.5132 70.9389C95.4979 70.8322 95.8641 70.6645 96.3524 70.5578C96.8101 70.4511 97.3136 70.4206 97.4509 70.4816C97.6035 70.5425 99.4649 70.5883 101.616 70.6035C103.752 70.6187 105.782 70.634 106.117 70.634C106.453 70.6188 106.956 70.634 107.262 70.6492C107.551 70.6645 109.031 70.6797 110.542 70.6797C112.129 70.6797 113.365 70.7407 113.471 70.8322C113.578 70.9084 113.746 70.9389 113.853 70.8779C113.96 70.817 115.211 70.7712 116.63 70.756C118.338 70.756 119.269 70.8169 119.376 70.9237C119.498 71.0456 119.605 71.0456 119.803 70.9237C120.002 70.8017 120.154 70.8017 120.383 70.9389C120.551 71.0609 120.688 71.0761 120.688 70.9847C120.688 70.8932 121.085 70.8322 121.604 70.8322C122.107 70.8322 122.519 70.8932 122.519 70.9847C122.519 71.0609 122.855 71.1371 123.282 71.1371C123.724 71.1371 124.06 71.0609 124.075 70.9694C124.106 70.8322 124.304 70.8322 124.838 70.9694C125.326 71.0761 125.586 71.0761 125.647 70.9847C125.693 70.8932 126.074 70.8627 126.593 70.9237C127.081 70.9694 127.615 70.9999 127.783 70.9999C127.951 70.9999 133.504 70.9542 140.141 70.9084C146.763 70.8627 153.721 70.8017 155.597 70.7865C157.749 70.7712 159.046 70.817 159.091 70.9084C159.137 70.9999 159.229 70.9542 159.305 70.8322C159.412 70.634 159.931 70.6035 162.463 70.6035C164.325 70.6035 165.469 70.5425 165.408 70.4663C165.347 70.3748 165.438 70.3596 165.622 70.4206C165.789 70.4816 167.163 70.4663 168.673 70.3748C170.184 70.2834 172.335 70.1766 173.479 70.1461C174.608 70.1004 176.256 70.0394 177.141 69.9784C178.011 69.9327 178.774 69.8717 178.819 69.8412C178.85 69.8107 180.543 69.7345 182.557 69.6888C184.571 69.6278 186.311 69.5211 186.448 69.4601C186.57 69.3839 187.318 69.3382 188.126 69.3382C188.92 69.3534 189.667 69.2924 189.805 69.2314C189.927 69.1552 190.781 69.079 191.712 69.0485C192.627 69.0332 193.833 68.9875 194.382 68.9417C194.916 68.9112 195.786 68.7893 196.289 68.6978C196.793 68.6064 197.678 68.4996 198.273 68.4691C198.852 68.4386 199.951 68.3472 200.714 68.271C201.461 68.1947 202.179 68.1185 202.316 68.1185C202.438 68.1185 202.957 68.0423 203.46 67.9508C203.964 67.8593 204.818 67.7221 205.367 67.6306C205.901 67.5544 206.908 67.3867 207.58 67.2495C208.251 67.1275 209.67 66.9141 210.738 66.7921C211.806 66.6702 212.752 66.5939 212.844 66.6397C212.92 66.6854 213.011 66.6244 213.042 66.5177C213.072 66.411 213.53 66.2585 214.079 66.1518C214.614 66.0603 215.559 65.8774 216.2 65.7402C216.826 65.6029 217.65 65.4353 218.031 65.359C218.397 65.2676 218.947 65.2066 219.221 65.1913C219.496 65.1913 219.832 65.0846 219.938 64.9627C220.06 64.8407 220.244 64.7797 220.35 64.8254C220.457 64.8712 220.717 64.8255 220.93 64.7187C221.128 64.612 221.815 64.4291 222.456 64.3223C223.081 64.2004 223.875 64.0632 224.21 64.0174C224.546 63.9717 224.882 63.8802 224.958 63.804C225.034 63.7278 225.217 63.6668 225.34 63.6668C225.477 63.6668 225.874 63.5296 226.224 63.3619C226.591 63.1942 226.926 63.0875 226.987 63.1332C227.048 63.1637 227.231 63.1332 227.369 63.057C227.521 62.9655 227.872 62.874 228.177 62.8283C228.467 62.7825 228.895 62.6606 229.123 62.5386C229.352 62.4166 229.993 62.2032 230.542 62.066C231.076 61.9288 231.595 61.7458 231.671 61.6696C231.748 61.5934 231.977 61.5324 232.175 61.5324C232.358 61.5324 232.984 61.3189 233.548 61.0598C234.113 60.8006 234.86 60.5414 235.196 60.4805C235.532 60.4195 236.142 60.1756 236.569 59.9621C236.981 59.7334 237.454 59.5505 237.591 59.5505C237.744 59.5505 238.125 59.4133 238.43 59.2456C238.751 59.0779 239.239 58.8949 239.544 58.8492C239.834 58.7882 240.216 58.6205 240.383 58.468C240.551 58.3156 241.604 57.721 242.748 57.1417C243.877 56.5776 245.037 55.9525 245.342 55.7848C245.632 55.6171 246.776 54.9158 247.89 54.2298C249.004 53.5437 250.041 52.8729 250.194 52.7205C250.347 52.5833 250.667 52.3241 250.911 52.1564C251.155 51.9887 251.628 51.6228 251.964 51.3331C252.3 51.0587 252.879 50.5556 253.23 50.2354C253.596 49.9 253.886 49.5646 253.886 49.4884C253.886 49.3969 253.932 49.3359 253.993 49.3359C254.054 49.3359 254.527 48.9548 255.031 48.4974C255.534 48.0248 256.175 47.4607 256.45 47.232C256.724 47.0034 256.938 46.7137 256.938 46.5917C256.938 46.4698 257.274 45.9362 257.685 45.4026C258.113 44.8842 258.464 44.3811 258.464 44.3049C258.464 44.2134 258.586 43.9543 258.738 43.7256C258.891 43.4969 259.074 43.1005 259.135 42.8566C259.196 42.5974 259.333 42.2925 259.44 42.1705C259.562 42.0486 259.684 41.5912 259.745 41.1796C259.791 40.7527 259.837 40.1733 259.837 39.8837C259.837 39.594 259.928 39.2129 260.05 39.0452C260.203 38.8165 260.249 38.4201 260.188 37.5206C260.142 36.8498 260.035 36.1637 259.959 35.996C259.867 35.8283 259.837 35.3405 259.898 34.8831C259.944 34.3953 259.928 34.0903 259.837 34.0903C259.745 34.0903 259.684 33.8769 259.684 33.633C259.684 33.3738 259.562 33.0994 259.41 32.9774C259.257 32.8707 259.12 32.5505 259.089 32.1846C259.059 31.7883 258.83 31.2547 258.448 30.6601C258.113 30.157 257.838 29.6539 257.838 29.5472C257.853 29.4404 257.747 29.3337 257.624 29.288C257.487 29.2422 257.396 29.1203 257.396 29.0136C257.396 28.9069 257.197 28.7696 256.938 28.7087C256.679 28.6477 256.434 28.48 256.373 28.3275C256.312 28.1903 256.221 28.0379 256.175 27.9921C256.114 27.9464 256.007 27.672 255.931 27.3823C255.824 27.0012 255.641 26.7877 255.29 26.62C255.015 26.498 254.71 26.1931 254.603 25.9492C254.497 25.7053 254.207 25.4309 253.963 25.3241C253.703 25.2174 253.337 24.9735 253.154 24.7753C252.956 24.5771 252.452 24.0283 252.01 23.5709C251.567 23.1135 251.125 22.4732 251.018 22.1531C250.85 21.65 250.789 21.589 250.347 21.6195C250.057 21.65 249.843 21.589 249.813 21.467C249.782 21.3603 249.66 21.2841 249.538 21.2841C249.401 21.2841 249.141 21.0859 248.943 20.8572C248.638 20.5218 248.439 20.4456 247.829 20.4456C247.417 20.4303 246.883 20.3388 246.639 20.2169C246.334 20.0644 246.151 19.8357 246.105 19.5308C246.044 19.2107 245.937 19.0887 245.754 19.104C245.581 19.1345 245.495 19.048 245.495 18.8448C245.495 18.6415 245.368 18.5145 245.113 18.4636C244.859 18.4128 244.706 18.2604 244.656 18.0063C244.61 17.7928 244.442 17.5946 244.274 17.5489C244.106 17.5032 243.847 17.5032 243.694 17.5489C243.527 17.6099 243.343 17.5032 243.16 17.244C242.947 16.9238 242.748 16.8476 241.07 16.7104L241.299 16.3293C241.467 16.0396 241.482 15.9481 241.329 15.9329C241.223 15.9176 240.887 15.9176 240.567 15.9329C240.155 15.9481 240.002 15.8871 240.002 15.7194C240.002 15.5517 239.88 15.506 239.621 15.567C239.366 15.6178 239.214 15.567 239.163 15.4145C239.102 15.2468 238.934 15.2011 238.553 15.2621C238.125 15.323 237.942 15.2621 237.637 14.9572C237.424 14.7437 237.164 14.576 237.057 14.5912C236.951 14.6065 236.783 14.6065 236.676 14.5912C236.569 14.576 236.493 14.4693 236.493 14.3473C236.493 14.1796 236.386 14.1491 236.142 14.1949C235.959 14.2559 235.593 14.1796 235.348 14.0577C235.089 13.9205 234.769 13.8137 234.616 13.8137C234.418 13.8137 234.357 13.6918 234.357 13.3564C234.357 13.0515 234.265 12.8685 234.082 12.8075C233.853 12.7465 233.853 12.7161 234.052 12.6093C234.235 12.5026 234.204 12.4569 233.93 12.3806C233.746 12.3349 233.594 12.3502 233.594 12.4416C233.594 12.5179 233.411 12.6551 233.212 12.7465C232.892 12.8685 232.755 12.838 232.389 12.4721C231.992 12.091 231.885 12.0605 231.137 12.152C230.573 12.2129 230.237 12.1825 230.085 12.0605C229.947 11.9538 229.612 11.7556 229.322 11.6184C228.986 11.4659 228.589 11.4049 228.284 11.4507C227.872 11.5117 227.72 11.4507 227.369 11.0695C227.14 10.8103 226.835 10.6122 226.682 10.6122C226.545 10.6122 226.301 10.5055 226.148 10.3682C225.95 10.1853 225.721 10.1395 225.279 10.2158C224.943 10.2768 224.47 10.2463 224.241 10.1548C223.966 10.0633 223.844 9.92611 223.905 9.77365C223.936 9.65169 223.875 9.51447 223.753 9.46874C223.615 9.423 223.402 9.43824 223.249 9.48398C223.112 9.54496 222.807 9.48399 222.608 9.37728C222.395 9.25531 222.181 9.1181 222.151 9.05712C222.105 8.99613 221.205 8.91991 220.167 8.88942C218.397 8.82844 218.245 8.79794 218.031 8.49303C217.894 8.31008 217.68 8.15763 217.528 8.15763C217.375 8.17287 217.161 7.97468 217.039 7.7155C216.902 7.45633 216.719 7.25814 216.612 7.24289C216.505 7.24289 216.338 7.12093 216.246 6.98372C216.078 6.73979 216.048 6.73978 215.819 7.02945C215.682 7.19715 215.529 7.25813 215.498 7.1819C215.468 7.09043 215.102 7.02945 214.705 7.04469C214.308 7.05994 213.835 7.10568 213.637 7.16666C213.408 7.22764 213.256 7.18191 213.149 6.98372C213.072 6.84651 212.996 6.77029 212.996 6.83127C212.996 6.89225 212.889 6.8465 212.767 6.72453C212.6 6.55683 212.34 6.5111 211.852 6.57208C211.47 6.61782 211.089 6.6788 211.013 6.72453C210.921 6.77027 210.723 6.66355 210.555 6.49585C210.341 6.29766 210.021 6.19095 209.594 6.17571C209.243 6.16046 208.755 6.16046 208.526 6.17571C208.236 6.19095 208.068 6.09947 207.992 5.87079C207.915 5.64211 207.793 5.58112 207.534 5.64211C207.351 5.68784 207.168 5.6726 207.137 5.61162C207.092 5.55064 206.115 5.50488 204.955 5.52013C203.796 5.53537 202.713 5.48965 202.545 5.42867C202.331 5.35244 202.301 5.29147 202.423 5.23049C202.53 5.1695 202.621 4.98654 202.621 4.81883C202.621 4.65113 202.514 4.51393 202.392 4.51393C202.255 4.51393 202.163 4.57491 202.163 4.66638C202.163 4.75786 201.828 4.78835 201.278 4.72737C200.805 4.66639 200.287 4.52918 200.134 4.42246C199.966 4.28525 199.844 4.26999 199.798 4.36147C199.753 4.43769 199.615 4.51393 199.493 4.51393C199.356 4.51393 199.203 4.36147 199.142 4.19377C199.036 3.90411 199.005 3.88886 198.837 4.11754C198.685 4.31573 198.563 4.33098 198.196 4.20902C197.891 4.10738 197.637 4.10738 197.434 4.20902C197.266 4.28524 196.991 4.36147 196.823 4.36147C196.655 4.36147 196.518 4.28524 196.518 4.20902C196.518 4.11754 196.396 4.05657 196.243 4.05657C196.091 4.05657 195.893 4.11755 195.816 4.17853C195.74 4.25476 195.389 4.28525 195.023 4.25476C194.458 4.20903 194.382 4.16328 194.458 3.9041C194.489 3.7364 194.458 3.5992 194.382 3.5992C194.29 3.5992 194.214 3.75166 194.184 3.9346C194.153 4.25476 194.077 4.28526 193.421 4.23952C193.009 4.22427 192.46 4.05658 192.124 3.85838C191.819 3.67544 191.605 3.5992 191.666 3.70592C191.758 3.85837 191.605 3.9041 191.102 3.9041C190.72 3.9041 190.415 3.84313 190.415 3.78215C190.415 3.72117 190.079 3.66019 189.683 3.64494C189.286 3.61445 188.889 3.5382 188.813 3.46198C188.721 3.38575 188.401 3.29429 188.096 3.2638C187.776 3.2333 187.44 3.2943 187.333 3.40102C187.211 3.50774 187.058 3.5382 186.982 3.46198C186.891 3.38575 186.494 3.29428 186.097 3.23329C185.7 3.18756 185.35 3.18757 185.319 3.24855C185.273 3.30953 185.014 3.35528 184.739 3.32478C184.465 3.29429 184.159 3.2638 184.053 3.24855C183.961 3.23331 183.9 3.15708 183.946 3.0961C183.976 3.03512 183.885 2.97412 183.732 2.97412C183.595 2.95888 183.107 2.95888 182.664 2.97412C182.115 2.98937 181.871 2.9284 181.871 2.79119C181.886 2.65397 181.84 2.65397 181.688 2.80643C181.566 2.92839 181.062 3.00461 180.421 3.00461C179.826 3.01986 179.109 3.11133 178.819 3.20281C178.392 3.35526 177.965 3.35526 176.836 3.20281C176.027 3.09609 175.066 3.00461 174.7 2.98937C174.288 2.98937 173.8 2.86741 173.51 2.68447C173.235 2.51676 172.808 2.37955 172.564 2.37955C172.304 2.37955 172.06 2.44053 172.03 2.532C171.984 2.60823 171.847 2.65397 171.725 2.60823C171.587 2.5625 171.16 2.59299 170.763 2.68447C170.367 2.77594 169.909 2.86741 169.741 2.89791C169.573 2.94364 169.283 3.00462 169.085 3.05036C168.902 3.09609 168.749 3.08085 168.749 3.01987C168.749 2.95889 168.871 2.82167 169.024 2.7302C169.161 2.62348 169.405 2.532 169.543 2.532C169.695 2.532 169.817 2.45578 169.817 2.37955C169.817 2.28808 169.711 2.1966 169.589 2.15087C169.451 2.10513 168.963 2.27282 168.475 2.532C167.681 2.94363 167.468 2.98937 166.308 2.97412C165.591 2.95888 164.599 3.00462 164.096 3.0656C163.592 3.12658 163.135 3.15708 163.104 3.12659C163.058 3.0961 163.043 3.00463 163.058 2.94365C163.089 2.88267 162.997 2.83692 162.875 2.83692C162.738 2.83692 162.646 2.95889 162.646 3.0961C162.646 3.32479 162.555 3.35527 161.99 3.2638C161.639 3.18757 161.334 3.12659 161.319 3.11135C161.304 3.08085 161.273 2.92838 161.243 2.76068C161.227 2.59298 161.258 2.44054 161.349 2.42529C161.426 2.41005 161.548 2.31858 161.609 2.19661C161.7 2.02891 161.746 2.02891 161.914 2.19661C162.067 2.33382 162.067 2.37955 161.914 2.37955C161.807 2.37955 161.761 2.44053 161.807 2.532C161.838 2.60823 162.051 2.68447 162.265 2.68447C162.463 2.68447 162.646 2.593 162.646 2.48628C162.646 2.37956 162.509 2.16612 162.341 1.99841C162.067 1.73924 161.975 1.724 161.685 1.87645C161.502 1.98317 161.166 2.07464 160.968 2.10513C160.648 2.13563 160.587 2.2271 160.617 2.5625C160.648 2.85217 160.587 2.98937 160.434 2.98937C160.297 2.98937 160.159 2.82167 160.129 2.60823C160.068 2.28808 159.976 2.24234 159.625 2.28807C159.396 2.33381 159.03 2.41003 158.832 2.47101C158.618 2.53199 158.359 2.63871 158.252 2.69969C158.145 2.77592 157.917 2.80642 157.718 2.77593C157.535 2.73019 157.184 2.77593 156.955 2.85216C156.635 2.95888 156.528 2.94363 156.467 2.76068C156.421 2.63872 156.284 2.5625 156.162 2.60823C156.025 2.65397 155.933 2.79118 155.933 2.91315C155.933 3.08085 155.826 3.11134 155.582 3.03511C155.399 2.98938 155.033 2.85216 154.789 2.76068C154.362 2.57774 154.3 2.59299 154.056 2.92839C153.843 3.21806 153.705 3.27905 153.37 3.18758C153.141 3.14184 152.866 3.08084 152.759 3.08084C152.653 3.0656 152.576 3.00463 152.576 2.94365C152.576 2.88267 152.485 2.88267 152.378 2.94365C152.271 3.00463 151.981 3.03511 151.737 3.01987C151.478 2.98938 151.127 3.06562 150.944 3.17233C150.669 3.32479 150.562 3.32479 150.364 3.17233C150.242 3.06562 149.952 3.01986 149.754 3.0656C149.449 3.12658 149.357 3.08085 149.327 2.79119C149.265 2.47103 149.265 2.47103 149.098 2.86742C148.93 3.23331 148.808 3.29429 148.213 3.32478C147.724 3.35528 147.465 3.29429 147.374 3.14183C147.251 2.94364 147.206 2.94365 147.038 3.17233C146.901 3.38577 146.626 3.44673 145.863 3.44673C145.314 3.44673 144.826 3.41625 144.795 3.37052C144.749 3.32478 144.856 3.18756 145.329 2.85216H145.024C144.856 2.85216 144.581 2.94363 144.414 3.0656C144.246 3.20281 143.986 3.29428 143.834 3.29428C143.696 3.29428 143.529 3.401 143.498 3.52297C143.437 3.67542 143.315 3.72116 143.071 3.66017C142.888 3.59919 142.72 3.49247 142.689 3.43149C142.674 3.35526 142.445 3.29428 142.201 3.29428C141.927 3.29428 141.713 3.38576 141.667 3.52297C141.621 3.64493 141.484 3.75165 141.362 3.75165C141.225 3.75165 141.026 3.64493 140.904 3.52297C140.767 3.401 140.721 3.26379 140.782 3.21805C140.843 3.17231 140.981 3.20281 141.087 3.29428C141.22 3.39592 141.311 3.39592 141.362 3.29428C141.393 3.20281 141.347 3.06559 141.24 2.98937C141.118 2.89789 140.859 2.94364 140.447 3.14183C139.974 3.38576 139.913 3.44673 140.172 3.44673C140.37 3.44673 140.523 3.49249 140.523 3.55347C140.523 3.61445 140.203 3.67542 139.836 3.67542C139.272 3.67542 139.119 3.61444 139.043 3.37052C138.951 3.08085 138.936 3.08084 138.631 3.44673C138.448 3.66017 138.112 3.84314 137.883 3.85838C137.578 3.88888 137.441 3.81264 137.349 3.58396C137.258 3.32478 137.136 3.27905 136.541 3.32478C136.144 3.35528 135.732 3.47725 135.579 3.6297C135.427 3.78216 135.244 3.9041 135.168 3.9041C135.091 3.9041 134.908 3.94985 134.771 4.01084C134.572 4.10231 134.527 4.0718 134.588 3.9041C134.634 3.78214 134.756 3.67542 134.878 3.67542C134.984 3.67542 135.106 3.58395 135.122 3.47724C135.168 3.35527 134.969 3.29428 134.496 3.29428C133.916 3.29428 133.81 3.34003 133.886 3.55347C133.932 3.73642 133.825 3.88886 133.611 3.98033C133.367 4.1023 133.169 4.08706 132.894 3.94985C132.558 3.78214 132.497 3.79739 132.391 4.05657C132.299 4.3005 132.147 4.36147 131.475 4.34622C131.033 4.34622 130.346 4.40722 129.949 4.49869C129.553 4.59016 128.942 4.65114 128.576 4.6359C128.225 4.6359 127.859 4.55967 127.783 4.48345C127.691 4.42246 127.31 4.42246 126.898 4.51393C126.501 4.59016 126.089 4.62064 125.982 4.57491C125.876 4.52917 125.693 4.60541 125.571 4.74262C125.433 4.87983 125.25 4.98655 125.143 4.9713C125.037 4.9713 124.945 4.81885 124.914 4.62065C124.884 4.31574 124.792 4.28525 124.075 4.28525C123.526 4.28525 123.221 4.20902 123.129 4.05657C123.007 3.85837 122.962 3.85837 122.717 4.07181C122.565 4.19377 122.183 4.45295 121.863 4.6359C121.558 4.81884 121.222 4.9408 121.146 4.89507C121.054 4.84933 121.024 4.74261 121.07 4.66638C121.1 4.57491 121.039 4.54441 120.917 4.59015C120.78 4.63589 120.688 4.8036 120.688 4.9713C120.688 5.139 120.581 5.2762 120.459 5.2762C120.322 5.2762 120.23 5.19998 120.23 5.12375C120.23 5.03228 120.276 4.9408 120.337 4.91031C120.398 4.87982 120.505 4.71212 120.566 4.52918C120.658 4.30049 120.627 4.22427 120.49 4.27001C120.383 4.31574 120.246 4.45294 120.185 4.57491C120.124 4.71212 119.849 4.92555 119.574 5.06276C119.223 5.23046 119.132 5.24572 119.269 5.10851C119.376 4.98654 119.468 4.8341 119.468 4.77312C119.468 4.71214 119.391 4.66638 119.315 4.66638C119.223 4.66638 119.04 4.8036 118.888 4.9713C118.75 5.139 118.567 5.2762 118.506 5.2762C118.445 5.2762 118.232 5.19998 118.033 5.12375C117.743 5.00179 117.713 4.91032 117.85 4.72737C117.972 4.55967 117.972 4.45296 117.82 4.31575C117.667 4.1633 117.606 4.23951 117.484 4.62065C117.392 4.89507 117.194 5.18473 117.026 5.2762C116.858 5.35243 116.324 5.45915 115.836 5.50488C115.241 5.55062 114.921 5.52015 114.844 5.38294C114.773 5.25081 114.738 5.27622 114.738 5.45917C114.738 5.61162 114.646 5.73357 114.539 5.73357C114.433 5.73357 114.265 5.65735 114.158 5.55063C114.051 5.44391 113.96 5.39819 113.975 5.45917C113.975 5.52015 113.746 5.5049 113.471 5.41342C113.197 5.3372 112.861 5.23048 112.708 5.18474C112.571 5.15425 112.449 5.1695 112.449 5.23049C112.449 5.29147 112.235 5.47441 111.991 5.61162C111.671 5.79457 111.442 5.84028 111.259 5.74881C111.122 5.67258 110.389 5.62686 109.657 5.62686C108.757 5.64211 108.299 5.71834 108.253 5.8403C108.207 5.94702 108.024 6.09948 107.826 6.17571C107.643 6.25193 107.414 6.26717 107.338 6.22144C107.246 6.1757 106.773 6.14522 106.27 6.16046C105.766 6.17571 105.278 6.25193 105.202 6.32816C105.11 6.41963 104.988 6.45011 104.927 6.41962C104.866 6.37388 104.668 6.40438 104.485 6.48061C104.302 6.57208 103.935 6.57208 103.615 6.49585C103.31 6.41962 103.005 6.38912 102.944 6.43486C102.883 6.46535 102.898 6.5721 102.989 6.67882C103.066 6.78554 103.081 6.92274 103.02 6.98372C102.959 7.0447 102.837 6.99896 102.761 6.877C102.669 6.75504 102.41 6.61782 102.181 6.57208C101.83 6.5111 101.754 6.55685 101.723 6.83127C101.692 7.12094 101.601 7.18191 101.235 7.15141C100.975 7.13617 100.441 7.09043 100.045 7.04469C99.4496 6.96847 99.2818 6.99896 99.0529 7.24289C98.9156 7.41059 98.7325 7.54781 98.6715 7.54781C98.6105 7.56305 98.5647 7.42584 98.5647 7.25813C98.5647 7.09043 98.4579 6.89225 98.3358 6.83127C98.1985 6.77029 98.0459 6.77029 97.9849 6.84651C97.9239 6.9075 98.0002 7.07519 98.1375 7.22765C98.3969 7.47158 98.3816 7.50207 97.9086 7.68501C97.634 7.79173 97.3594 7.86795 97.2983 7.86795C97.2373 7.86795 97.1763 7.63929 97.1763 7.36487C97.1763 6.96848 97.1458 6.93797 97.0542 7.1819C96.9779 7.3496 96.7491 7.51731 96.5202 7.56305C96.2761 7.60879 96.032 7.5478 95.8946 7.41058C95.6963 7.22764 95.6047 7.21241 95.3606 7.36487C95.1928 7.47159 94.9029 7.56305 94.7045 7.56305C94.5215 7.56305 94.1705 7.63928 93.9417 7.746C93.7128 7.85272 93.5602 8.02042 93.606 8.12714C93.6365 8.23386 93.545 8.38631 93.3772 8.47779C93.2093 8.55401 92.7974 8.63024 92.4617 8.63024C92.0955 8.63024 91.8209 8.55402 91.7904 8.43205C91.7598 8.29484 91.6988 8.29484 91.531 8.43205C91.4089 8.52353 91.1038 8.59975 90.8596 8.58451C90.6003 8.56926 90.2036 8.69122 89.9747 8.82843C89.7459 8.96564 89.4102 9.0876 89.2118 9.0876C89.0287 9.10285 88.7694 8.99613 88.6473 8.85892C88.51 8.72171 88.2964 8.61499 88.1438 8.61499C88.0065 8.63024 87.8844 8.69121 87.8844 8.78269C87.8844 8.85891 87.7776 8.93515 87.6556 8.93515C87.5183 8.93515 87.3809 9.04187 87.3504 9.16384C87.3046 9.2858 87.1368 9.39252 86.969 9.39252C86.8011 9.39252 86.5418 9.33152 86.3892 9.2553C86.2214 9.16382 85.8704 9.16382 85.4432 9.2553C84.9703 9.36202 84.7414 9.36202 84.7109 9.24005C84.6956 9.16383 84.6041 9.0876 84.5278 9.0876C84.4362 9.0876 84.3752 9.19432 84.3752 9.31629C84.3752 9.43825 84.2684 9.54497 84.1463 9.54497C84.009 9.54497 83.8107 9.59072 83.6734 9.6517C83.5055 9.74318 83.414 9.6822 83.3682 9.42302C83.3072 9.13336 83.2614 9.10284 82.9868 9.24005C82.8189 9.33153 82.529 9.39252 82.3459 9.36203C82.1018 9.33154 82.0103 9.39252 82.0103 9.60596C82.0103 9.75841 81.9035 9.94135 81.7814 10.0023C81.6441 10.0633 81.4152 10.17 81.2474 10.2463C81.0796 10.3377 80.8202 10.3835 80.6676 10.353C80.5303 10.3225 80.4388 10.231 80.4845 10.1548C80.515 10.0633 80.4235 10.0176 80.2557 10.0328C80.0878 10.0633 79.9505 10.1243 79.9505 10.1853C79.9505 10.2463 80.0268 10.3378 80.1336 10.3682C80.2404 10.3987 80.1489 10.4445 79.9505 10.4445C79.7369 10.4445 79.4318 10.353 79.2639 10.2158C79.0961 10.0938 78.6841 10.0023 78.3485 10.0023C77.8755 10.0023 77.6161 10.1091 77.2347 10.4597C76.96 10.7036 76.6091 10.9171 76.4413 10.9171C76.2735 10.9171 75.9988 10.8408 75.831 10.7646C75.6275 10.663 75.5258 10.663 75.5258 10.7646C75.5258 10.8408 75.4343 10.9018 75.3275 10.9018C75.2207 10.8866 75.0528 10.8866 74.946 10.9018C74.8392 10.9018 74.7935 10.978 74.8392 11.0695C74.8698 11.1457 74.7935 11.2525 74.6409 11.283C74.5036 11.3135 74.29 11.2677 74.1832 11.1763C74.0764 11.0695 74.0001 11.0543 74.0001 11.1458C74.0001 11.222 73.7712 11.3745 73.4966 11.4812C73.2219 11.5726 72.7795 11.6946 72.5048 11.7403C72.2149 11.7861 72.0166 11.7708 72.0166 11.6794C72.0166 11.5879 71.803 11.5117 71.5589 11.4812C71.2537 11.4659 71.0859 11.5269 71.0249 11.7099C70.9791 11.8623 70.8265 11.9843 70.6739 11.9843C70.5214 11.9843 70.323 12.0605 70.2467 12.1367C70.1704 12.2282 69.8653 12.3197 69.5754 12.3349C69.2702 12.3654 68.9193 12.3197 68.7667 12.2587C68.6294 12.1825 68.5074 12.1825 68.5074 12.2435C68.5074 12.3044 68.1412 12.4416 67.6987 12.5484C67.2562 12.6551 66.7833 12.7465 66.6307 12.7465C66.4934 12.7465 66.3713 12.8075 66.3713 12.899C66.3713 12.9752 66.173 13.082 65.9441 13.1277C65.6542 13.1887 65.4864 13.1429 65.4101 12.9752C65.3389 12.8228 65.2372 12.7923 65.1049 12.8838C64.9981 12.96 64.5099 13.0667 64.0064 13.1124C63.5029 13.1582 62.9994 13.2802 62.8926 13.3869C62.7248 13.5393 62.6943 13.5241 62.6943 13.3106C62.7095 13.1124 62.5569 13.0362 62.0992 13.0057C61.6415 12.9752 61.4736 13.0362 61.4126 13.2344C61.3668 13.3869 61.2143 13.5088 61.0617 13.5088C60.9244 13.5088 60.604 13.7223 60.3751 13.9662C60.1462 14.2254 59.8869 14.4236 59.8106 14.4236C59.719 14.4236 59.658 14.3168 59.658 14.1949C59.658 14.0729 59.5512 13.9662 59.4291 13.9662C59.2918 13.9662 59.0935 13.9357 58.9714 13.89C58.8036 13.829 58.7426 13.9205 58.7426 14.1949C58.7426 14.454 58.651 14.576 58.4679 14.576C58.3306 14.5608 58.0865 14.4845 57.9492 14.3778C57.7966 14.2711 57.6745 14.1034 57.6745 13.9967C57.6745 13.89 57.5982 13.8595 57.5067 13.9205C57.4152 13.9814 57.3694 14.1644 57.4304 14.3016C57.5067 14.5303 57.3999 14.5913 56.7133 14.6675C56.2708 14.7285 55.7826 14.8657 55.6148 14.9724C55.4469 15.0944 55.2028 15.1858 55.0807 15.1858C54.9434 15.1858 54.5467 15.3383 54.1805 15.5365C53.555 15.8414 53.5092 15.8566 53.3719 15.5975C53.3109 15.4603 53.1125 15.3383 52.9447 15.3383C52.7769 15.3383 52.5938 15.3993 52.5632 15.4907C52.5175 15.567 52.4107 15.6127 52.3344 15.567C52.2428 15.5212 51.8309 15.4755 51.4189 15.445C50.9154 15.4298 50.6255 15.4755 50.5798 15.5975C50.534 15.7042 50.3967 15.7652 50.2746 15.7194C50.1373 15.6737 49.9542 15.7957 49.8169 16.0243C49.6796 16.2378 49.5117 16.4055 49.4355 16.4055C49.3439 16.4055 49.2371 16.2683 49.2066 16.1006C49.1608 15.9329 49.054 15.8262 48.9777 15.8719C48.8862 15.9176 48.8251 16.1158 48.8251 16.3293C48.8251 16.5884 48.7489 16.7104 48.5505 16.6951C48.4132 16.6799 48.1386 16.6799 47.9402 16.6951C47.7419 16.6951 47.6046 16.8019 47.6046 16.9391C47.6046 17.061 47.452 17.183 47.2536 17.1983C47.0705 17.2135 46.567 17.2287 46.1551 17.244C45.7279 17.2592 45.0108 17.3202 44.553 17.3812C44.0801 17.4269 43.6071 17.5794 43.485 17.6861C43.3477 17.8081 42.9052 18.0215 42.4933 18.1587C42.0661 18.2959 41.6236 18.3722 41.5015 18.3112C41.3642 18.2654 41.1964 18.3569 41.0743 18.5399C40.9523 18.7381 40.7234 18.8448 40.4335 18.8448C40.1284 18.8448 39.9758 18.7685 39.9758 18.6161C39.9758 18.4941 39.8537 18.3874 39.7012 18.3874C39.5638 18.3722 39.3045 18.5094 39.1366 18.6771C38.9688 18.8448 38.6484 19.0125 38.45 19.0582C38.2364 19.0887 37.916 19.1649 37.7177 19.2107C37.4735 19.2716 37.382 19.2412 37.382 19.0735C37.382 18.9515 37.2752 18.8448 37.1531 18.8448C37.0158 18.8448 36.9243 18.9058 36.9243 18.9972C36.9243 19.0735 36.6954 19.2564 36.4208 19.3784C36.1461 19.5003 35.8563 19.6071 35.78 19.6071C35.6884 19.5918 35.4901 19.7443 35.3222 19.912C35.0476 20.2016 34.9103 20.2321 34.0254 20.1406C33.4761 20.0949 32.881 20.0187 32.6827 19.9882C32.3775 19.912 32.347 19.9425 32.4538 20.3998C32.5301 20.8115 32.5149 20.8877 32.3318 20.7962C32.2097 20.7352 32.0419 20.7505 31.9656 20.8267C31.874 20.9029 31.4316 21.0401 30.9738 21.1316C30.5009 21.2231 29.8906 21.3298 29.6007 21.3755C29.2955 21.406 28.9904 21.528 28.9141 21.6347C28.8225 21.7414 28.0749 21.9244 27.2358 22.0311C26.3966 22.1378 25.5574 22.3208 25.3591 22.4427C25.176 22.5647 24.7793 22.6562 24.4894 22.6562C24.0012 22.6562 23.9554 22.6867 24.0317 23.0373C24.0774 23.2812 24.0317 23.4184 23.9096 23.4184C23.8028 23.4337 23.635 23.327 23.5282 23.1898C23.4214 23.0678 23.2078 22.9763 23.0399 22.9916C22.8721 23.0221 22.7043 23.1135 22.6585 23.2203C22.6127 23.327 22.3991 23.4184 22.2008 23.4184C21.9872 23.4184 21.7583 23.5404 21.682 23.6776C21.6057 23.8301 21.4837 23.9063 21.3769 23.8301C21.2853 23.7691 21.209 23.6166 21.209 23.4947C21.209 23.3727 21.1022 23.266 20.9802 23.266C20.8276 23.266 20.7513 23.4184 20.7513 23.7234C20.7513 23.9673 20.6445 24.2874 20.5072 24.4094C20.3699 24.5314 20.08 24.6534 19.8664 24.6686C19.6375 24.6838 19.2408 24.7143 18.9967 24.7296C18.7373 24.7601 18.2491 24.7753 17.8829 24.7753C17.4099 24.7905 17.2421 24.8515 17.2421 25.0192C17.2421 25.1564 17.0437 25.2784 16.7843 25.3241C16.525 25.3699 16.2503 25.5224 16.174 25.6596C16.052 25.8882 15.9909 25.9035 15.7163 25.7358C15.4569 25.5833 15.3806 25.5986 15.1823 25.8577C15.045 26.0254 14.7703 26.1626 14.572 26.1626C14.3584 26.1626 14.1448 26.2694 14.1143 26.3913C14.0685 26.5133 13.8854 26.62 13.6871 26.62C13.504 26.62 13.031 26.803 12.6648 27.0164C12.2834 27.2451 11.5968 27.5043 11.1391 27.611C10.6661 27.7177 10.2083 27.7787 10.1015 27.7482C9.99474 27.7177 9.91845 27.7939 9.91845 27.9159C9.91845 28.0379 9.78113 28.1446 9.6133 28.1446C9.44547 28.1446 9.27763 28.2208 9.24712 28.3275C9.2166 28.4343 8.98774 28.541 8.74362 28.5562C8.51476 28.5715 8.1791 28.7087 8.01126 28.8764C7.84343 29.0288 7.58405 29.2118 7.43147 29.2575C7.2789 29.3185 7.18736 29.288 7.20262 29.1965C7.23313 29.0898 7.15684 28.9983 7.05004 28.9679C6.94323 28.9221 6.86695 29.0441 6.86695 29.2118C6.86695 29.3947 6.72963 29.5624 6.51602 29.6234C6.33293 29.6844 6.11933 29.7149 6.0583 29.6996C5.99727 29.6844 5.95149 29.7758 5.95149 29.8978C5.95149 30.0503 5.81418 30.1113 5.52429 30.096C5.29542 30.0808 5.02078 30.1113 4.91398 30.1723C4.80718 30.2332 4.65461 30.2485 4.57832 30.2027C4.48677 30.157 4.42574 30.2485 4.42574 30.3857C4.42574 30.5382 4.25791 30.7363 4.04431 30.8431C3.8307 30.9498 3.69338 31.1022 3.73915 31.1937C3.76967 31.2699 3.52555 31.4224 3.17462 31.5291C2.65587 31.6968 2.51855 31.8188 2.33546 32.2914C2.22866 32.6116 2.06082 32.8707 1.98454 32.8707C1.89299 32.8707 1.83196 32.9927 1.83196 33.1299C1.83196 33.2824 1.69464 33.5263 1.52681 33.6635C1.35898 33.816 1.11486 33.9379 0.9928 33.9379C0.855482 33.9379 0.763933 33.9989 0.763933 34.0903C0.763933 34.1666 0.840221 34.2276 0.947023 34.1971C1.05383 34.1818 1.14537 34.2276 1.14537 34.319C1.14537 34.3953 0.962281 34.4715 0.763933 34.4563C0.550328 34.4563 0.397754 34.4105 0.413011 34.3495C0.443527 34.2886 0.336723 34.1514 0.214662 34.0446C0.0163146 33.8922 -0.0294591 33.6177 0.0163135 32.6268C0.0620861 31.6511 0.153627 31.3004 0.428263 30.8736C0.626611 30.5839 0.977538 30.2637 1.22166 30.157C1.51155 30.0503 1.67938 29.8521 1.67938 29.6691C1.67938 29.5014 1.8167 29.288 1.98454 29.2118C2.15237 29.1203 2.35072 29.0898 2.44226 29.1355C2.51855 29.1813 2.65587 29.0745 2.74742 28.9068C2.8237 28.7391 3.18988 28.4647 3.5408 28.297C3.90698 28.1293 4.27317 27.8549 4.37997 27.6872C4.50203 27.489 4.71564 27.3976 4.95976 27.4128C5.17336 27.4433 5.43273 27.3671 5.53954 27.2603C5.63108 27.1536 5.85995 27.1079 6.02778 27.1536C6.19561 27.2146 6.51602 27.1689 6.76014 27.0469C6.989 26.9402 7.1721 26.7877 7.1721 26.7267C7.1721 26.6658 7.32467 26.4828 7.50776 26.3151C7.70611 26.1474 8.07229 25.9797 8.34693 25.934C8.62156 25.8882 8.88094 25.751 8.92671 25.6291C8.95723 25.5071 9.09455 25.4004 9.23187 25.4004C9.35393 25.4004 9.70485 25.2784 10.01 25.126C10.4982 24.8973 10.5898 24.8973 10.7271 25.0955C10.8339 25.2174 11.0628 25.3241 11.2459 25.3241C11.4289 25.3241 11.5968 25.2632 11.5968 25.2022C11.5968 25.1412 11.49 25.0955 11.3679 25.0955C11.2153 25.0955 11.1543 24.9735 11.1696 24.7448C11.2001 24.4247 11.2916 24.3789 11.8562 24.3942C12.2834 24.4094 12.5122 24.3484 12.5122 24.2112C12.5122 24.1045 12.6496 24.0283 12.8174 24.0283C12.9852 24.0283 13.1683 23.952 13.2293 23.8606C13.3056 23.7386 13.5803 23.7234 13.9922 23.7843C14.3889 23.8301 14.6483 23.8148 14.6483 23.7234C14.6483 23.6319 14.7398 23.6014 14.8772 23.6471C15.0297 23.6929 15.106 23.6167 15.106 23.3727C15.0908 23.0983 15.2281 23.0068 15.8994 22.8239C16.3419 22.7172 16.7996 22.6409 16.9369 22.6562C17.059 22.6714 17.4252 22.6866 17.7303 22.6714C18.2338 22.6562 18.3101 22.6104 18.3101 22.275C18.3101 21.9854 18.4016 21.8786 18.722 21.8024C18.9509 21.7567 19.3629 21.711 19.6375 21.6957C19.9121 21.6805 20.1563 21.589 20.1868 21.5127C20.2173 21.4213 20.5072 21.2993 20.8428 21.2383C21.1633 21.1621 21.5294 21.0096 21.6667 20.9029C21.7888 20.7962 22.2008 20.6742 22.5822 20.6285C22.9484 20.5828 23.696 20.4303 24.23 20.2779C25.0692 20.0187 25.2065 20.0187 25.3133 20.2169C25.4201 20.3998 25.4659 20.3541 25.5269 20.0644C25.6032 19.729 25.6795 19.6985 26.0762 19.7595C26.3915 19.8103 26.5492 19.7697 26.5492 19.6376C26.5492 19.5308 26.6865 19.3784 26.8543 19.3021C27.0221 19.2107 27.4341 19.1802 27.7698 19.2259C28.2275 19.2869 28.3953 19.2412 28.4564 19.0735C28.4869 18.9515 28.6242 18.8448 28.7615 18.8448C28.8836 18.8448 29.1735 18.7686 29.4023 18.6618C29.6312 18.5704 30.1042 18.4789 30.4398 18.4484C30.7755 18.4179 31.218 18.3722 31.4316 18.3417C31.6299 18.3112 31.9961 18.2045 32.225 18.113C32.4538 18.0063 32.7132 17.9605 32.8047 18.0063C32.881 18.052 33.2625 17.991 33.6287 17.8843C34.1779 17.7471 34.361 17.7319 34.5136 17.8843C34.6662 18.0368 34.7577 17.9758 34.9408 17.5946C35.0629 17.3355 35.307 17.0915 35.4748 17.0611C35.6426 17.0153 35.9478 16.9696 36.1614 16.9543C36.3598 16.9238 36.7107 16.8019 36.9243 16.6647C37.1226 16.5274 37.7787 16.3445 38.3737 16.2378C38.9535 16.1463 39.6249 16.1006 39.8537 16.1616C40.1741 16.2225 40.3115 16.1768 40.4335 15.9481C40.5098 15.7652 40.6776 15.6737 40.815 15.7194C40.937 15.7652 41.0743 15.7194 41.1201 15.6432C41.1506 15.5517 41.3947 15.4907 41.6541 15.4907C41.8982 15.4907 42.1424 15.4145 42.1881 15.3383C42.2186 15.2468 42.6459 15.1249 43.1188 15.0639C43.5918 15.0029 44.0496 14.8657 44.1411 14.759C44.2479 14.6523 44.492 14.5608 44.7056 14.5608C44.9192 14.576 45.1634 14.4998 45.2396 14.4083C45.3464 14.2863 45.5143 14.3016 45.8499 14.4541C46.2314 14.6218 46.3077 14.7437 46.3077 15.1858C46.3077 15.5517 46.3687 15.7194 46.5365 15.7194C46.6738 15.7194 46.7654 15.567 46.7654 15.3383C46.7806 15.1249 46.7044 14.8657 46.6128 14.759C46.506 14.6218 46.506 14.5608 46.6433 14.5608C46.7501 14.576 46.8417 14.4693 46.8417 14.3473C46.8417 14.1644 46.979 14.1339 47.5588 14.2101C48.1386 14.2863 48.3064 14.2559 48.3979 14.0577C48.4742 13.9052 48.6878 13.8137 48.932 13.829C49.1608 13.8442 49.4507 13.8442 49.588 13.829C49.7101 13.829 49.9847 13.6765 50.1983 13.4936C50.473 13.2496 50.6866 13.1887 50.9917 13.2497C51.2206 13.3106 51.4342 13.2954 51.48 13.2344C51.5105 13.1734 51.8614 13.0667 52.2733 12.9905C52.6853 12.9142 53.0973 12.8533 53.2041 12.8685C53.3109 12.8838 53.4024 12.8228 53.4024 12.7465C53.4024 12.6551 53.5855 12.6246 53.7991 12.6551C54.028 12.7008 54.4857 12.5941 54.8214 12.4264C55.1723 12.2587 55.7368 12.1215 56.0725 12.1215C56.4081 12.1062 56.9574 12.0148 57.2931 11.908C57.6288 11.8013 58.239 11.7251 58.6663 11.7556C59.0782 11.7708 59.5054 11.8318 59.6122 11.8776C59.7343 11.9538 59.8258 11.8623 59.8411 11.6336C59.8716 11.3897 59.9632 11.3135 60.192 11.344C60.3598 11.3744 60.787 11.2525 61.138 11.0695C61.5042 10.9018 61.8856 10.7646 62.0229 10.7646C62.145 10.7646 62.2518 10.8256 62.2518 10.9171C62.2518 10.9933 62.3128 11.0695 62.4044 11.0695C62.4806 11.0695 62.5112 10.9933 62.4807 10.9171C62.4349 10.8256 62.5417 10.7646 62.7095 10.7646C62.8773 10.7646 63.0299 10.8866 63.0604 11.0238C63.1062 11.2372 63.152 11.2067 63.2893 10.8713C63.4419 10.5054 63.5487 10.4597 64.159 10.4597C64.5252 10.4597 64.8608 10.3987 64.9066 10.3378C64.9371 10.2768 65.4711 10.1243 66.0814 10.0023C66.707 9.89562 67.2562 9.80415 67.3173 9.8194C67.3783 9.83464 67.6529 9.75841 67.9276 9.63645C68.2022 9.51448 68.721 9.45349 69.0719 9.48398C69.4533 9.51447 69.728 9.48399 69.728 9.39252C69.728 9.30105 70.0026 9.17909 70.3383 9.1181C70.6739 9.05712 70.9486 8.98089 70.9486 8.93515C70.9486 8.88942 71.4216 8.76746 72.0166 8.66074C72.749 8.53877 73.1762 8.52352 73.3898 8.63024C73.5932 8.73187 73.7966 8.73187 74.0001 8.63024C74.1679 8.53876 74.5646 8.46255 74.885 8.43205C75.2054 8.41681 75.6021 8.29483 75.7547 8.17287C75.9073 8.0509 76.3803 7.92895 76.8075 7.89845C77.2347 7.88321 77.8907 7.85273 78.2722 7.82224C78.6384 7.80699 79.0503 7.70027 79.1571 7.59355C79.2639 7.48683 79.5996 7.41058 79.8742 7.41058C80.1641 7.41058 80.5456 7.33436 80.7134 7.25813C80.8812 7.16666 81.7051 7.07519 82.5443 7.02945C83.3835 6.98371 84.1311 6.92274 84.2226 6.877C84.2989 6.83126 84.6956 6.77027 85.0923 6.72453C85.55 6.69404 85.8704 6.72455 85.9315 6.84651C86.023 6.96848 86.1146 6.93797 86.2824 6.72453C86.496 6.45011 86.6943 6.41962 88.1133 6.41962C89.3339 6.41962 89.7001 6.46538 89.6391 6.60259C89.5933 6.70931 89.6238 6.80077 89.7001 6.80077C89.7916 6.80077 90.0357 6.61783 90.2799 6.38915C90.524 6.14522 90.9054 5.94702 91.1953 5.93178C91.4699 5.90129 91.6988 5.94701 91.6988 6.03848C91.6988 6.11471 91.6073 6.22143 91.5005 6.25192C91.3937 6.28242 91.47 6.32816 91.653 6.32816C91.8667 6.3434 92.004 6.25193 92.004 6.11472C92.004 5.99275 92.1413 5.8098 92.3091 5.73357C92.4769 5.64209 92.6143 5.61161 92.6143 5.65735C92.6143 5.70309 92.7821 5.62685 92.9957 5.50488C93.1941 5.38292 93.5602 5.29146 93.7891 5.3067C94.018 5.32195 94.2926 5.29147 94.3994 5.23049C94.5062 5.1695 94.7351 5.15425 94.9029 5.19998C95.086 5.24572 95.2081 5.19998 95.2081 5.07802C95.1928 4.92556 95.2386 4.92556 95.3911 5.09326C95.4979 5.19998 95.7115 5.2762 95.8489 5.2762C96.0014 5.2762 96.1388 5.18474 96.1693 5.07802C96.2151 4.94081 96.2913 4.9408 96.5202 5.06276C96.7185 5.18473 96.9016 5.19998 97.1152 5.09326C97.2831 5.00179 97.5424 4.97131 97.6798 5.03229C97.8323 5.07803 97.9849 5.04753 98.0307 4.9713C98.0612 4.87983 98.3053 4.81883 98.5647 4.81883C98.8088 4.81883 99.2818 4.71212 99.587 4.59015C99.9074 4.45294 100.197 4.40722 100.243 4.4682C100.274 4.52918 100.655 4.60539 101.082 4.60539C101.494 4.62064 101.86 4.71213 101.876 4.80361C101.906 4.89508 101.998 4.9713 102.104 4.9713C102.211 4.9713 102.379 4.81884 102.471 4.6359C102.577 4.40721 102.761 4.28525 103.005 4.30049C103.203 4.31574 103.493 4.33098 103.63 4.34622C103.783 4.34622 103.966 4.51394 104.042 4.69689C104.179 5.01704 104.179 5.01704 104.195 4.74262C104.195 4.57491 104.302 4.30048 104.408 4.13278C104.607 3.85836 104.652 3.84313 104.881 4.05657C105.049 4.19378 105.11 4.4072 105.064 4.59015C104.988 4.83408 105.003 4.84934 105.156 4.69689C105.248 4.59017 105.431 4.51393 105.537 4.51393C105.644 4.51393 105.873 4.34622 106.041 4.13278C106.209 3.91935 106.483 3.75165 106.651 3.75165C106.819 3.75165 106.987 3.81263 107.033 3.9041C107.063 3.98033 107.292 4.05657 107.521 4.05657C107.75 4.05657 108.207 3.96509 108.513 3.82788C108.833 3.70592 109.291 3.5992 109.55 3.5992C109.81 3.5992 110.038 3.50773 110.084 3.37052C110.115 3.24855 110.221 3.17231 110.313 3.21805C110.389 3.26379 110.42 3.401 110.389 3.52297C110.344 3.64493 110.374 3.75165 110.466 3.75165C110.542 3.75165 110.618 3.69068 110.618 3.6297C110.618 3.56872 110.832 3.41625 111.106 3.27904C111.473 3.11134 111.671 3.08084 111.885 3.20281C112.083 3.32477 112.174 3.30953 112.266 3.15708C112.327 3.03511 112.495 2.98937 112.708 3.05036C112.907 3.09609 113.288 3.05037 113.578 2.94365C113.99 2.7912 114.143 2.7912 114.341 2.94365C114.539 3.09611 114.616 3.09609 114.768 2.92839C114.89 2.80643 115.241 2.73019 115.729 2.76068C116.141 2.77593 116.721 2.7302 117.026 2.66922C117.408 2.57775 117.621 2.60822 117.789 2.77593C117.911 2.89789 118.14 2.95889 118.277 2.91315C118.43 2.86741 118.552 2.77595 118.552 2.71497C118.552 2.65399 119.071 2.48627 119.727 2.34906C120.383 2.21185 121.054 2.08988 121.222 2.08988C121.39 2.08988 122.214 2.04415 123.053 1.98317C123.892 1.93743 125.021 1.87644 125.571 1.86119C126.288 1.84595 126.547 1.89171 126.516 2.02892C126.501 2.13564 126.562 2.33382 126.669 2.45578C126.776 2.59299 126.928 2.69969 127.02 2.69969C127.096 2.69969 127.081 2.59299 126.974 2.45578C126.867 2.33382 126.822 2.15086 126.867 2.07463C126.898 1.98316 127.066 1.92218 127.203 1.93743C127.356 1.95267 127.6 1.92217 127.737 1.86119C127.89 1.81546 128.012 1.81547 128.012 1.87645C127.996 1.93743 127.951 2.07464 127.89 2.16611C127.829 2.25758 127.661 2.36431 127.508 2.42529C127.371 2.48628 127.249 2.59299 127.249 2.68447C127.249 2.76069 127.34 2.83692 127.478 2.83692C127.6 2.83692 127.752 2.7302 127.813 2.60823C127.874 2.47102 128.058 2.34906 128.195 2.33382C128.347 2.31857 128.531 2.1966 128.607 2.07463C128.683 1.95267 128.805 1.8917 128.912 1.95268C129.003 2.01367 129.019 2.15088 128.958 2.2576C128.887 2.38973 128.912 2.41513 129.034 2.33382C129.141 2.27284 129.232 2.12038 129.232 1.99841C129.232 1.87645 129.278 1.73923 129.339 1.70874C129.4 1.66301 129.705 1.67826 130.01 1.73924C130.468 1.83072 130.59 1.80021 130.621 1.60202C130.667 1.38858 130.819 1.3581 131.445 1.43433C131.857 1.48006 132.299 1.61728 132.436 1.73924C132.62 1.92219 132.665 1.93743 132.711 1.75449C132.742 1.63252 132.879 1.44959 133.016 1.34287C133.154 1.23615 133.459 1.1599 133.688 1.1599C133.993 1.1599 134.115 1.23614 134.115 1.41908C134.115 1.57154 134.023 1.78498 133.916 1.89169C133.764 2.0594 133.825 2.08988 134.267 2.04415C134.649 2.01365 134.817 1.90694 134.862 1.6935C134.903 1.49022 134.862 1.42417 134.74 1.49532C134.649 1.57155 134.542 1.51055 134.496 1.38858C134.45 1.26662 134.542 1.09893 134.679 1.03795C134.832 0.961722 135.549 0.931226 136.281 0.961717C137.349 0.992208 137.624 1.05318 137.624 1.23613C137.624 1.3581 137.7 1.46481 137.807 1.48006C137.914 1.4953 138.173 1.48006 138.387 1.46481C138.585 1.44957 138.829 1.37335 138.921 1.31236C138.997 1.25138 139.272 1.14466 139.531 1.08368C139.775 1.0227 140.05 0.915982 140.141 0.839754C140.218 0.763526 141.118 0.672035 142.125 0.626299C143.132 0.580562 144.032 0.534835 144.139 0.550081H145.024C145.39 0.550081 145.741 0.611058 145.787 0.702531C145.817 0.778759 146.016 0.854999 146.199 0.839754C146.397 0.839754 146.611 0.748263 146.702 0.626299C146.794 0.489088 147.343 0.382382 148.381 0.306154C149.906 0.21468 149.906 0.214685 150.166 0.61107C150.318 0.824508 150.532 1.00745 150.669 1.00745C150.791 1.00745 150.898 0.946467 150.898 0.885484C150.898 0.824502 150.806 0.702546 150.7 0.595827C150.562 0.458617 150.669 0.397625 151.203 0.321397C151.569 0.260415 153.324 0.184177 155.094 0.168932C156.848 0.13844 158.374 0.18418 158.481 0.260408C158.603 0.351882 158.695 0.321399 158.71 0.199434C158.74 0.0469781 159.091 0.0164922 160.129 0.0469834Z" fill="#EF8A51"/>
<path d="M216.963 7.70026C216.963 7.62403 216.765 7.53255 216.505 7.50206C216.17 7.47157 216.048 7.50206 216.093 7.65451C216.124 7.76123 216.338 7.85271 216.551 7.85271C216.78 7.85271 216.963 7.77649 216.963 7.70026Z" fill="#EF8A51"/>
</g>
<defs>
<clipPath id="clip0_9_4">
<rect width="263" height="75" fill="white"/>
</clipPath>
</defs>
</svg>
